  0
SECTION
  2
HEADER
  9
$ACADVER
  1
AC1009
  9
$ANGDIR
  70
0
  9
$CECOLOR
  62
256
  9
$CELTYPE
  6
BYLAYER
  9
$EXTMIN
  10
0.0
  20
0.0
  9
$EXTMAX
  10
69.5325
  20
17.145
  9
$FILLMODE
  70
1
  9
$MIRRTEXT
  70
0
  0
ENDSEC
  0
SECTION
  2
TABLES
  0
TABLE
  2
LAYER
  70
17
  0
LAYER
  2
Top
  70
64
  62
5
  6
CONTINUOUS
  0
LAYER
  2
Drill_Top
  70
64
  62
7
  6
CONTINUOUS
  0
LAYER
  2
Board_Outline
  70
64
  62
13
  6
CONTINUOUS
  0
ENDTAB
  0
ENDSEC
  0
SECTION
  2
ENTITIES
  0
SOLID
  8
Top
  10
13.795
  20
2.9325
  11
12.295
  21
2.9325
  12
13.795
  22
1.1325
  13
12.295
  23
1.1325
  0
SOLID
  8
Top
  10
10.3015
  20
2.9325
  11
8.8015
  21
2.9325
  12
10.3015
  22
1.1325
  13
8.8015
  23
1.1325
  0
SOLID
  8
Top
  10
28.0825
  20
2.9325
  11
26.5825
  21
2.9325
  12
28.0825
  22
1.1325
  13
26.5825
  23
1.1325
  0
SOLID
  8
Top
  10
24.589
  20
2.9325
  11
23.089
  21
2.9325
  12
24.589
  22
1.1325
  13
23.089
  23
1.1325
  0
SOLID
  8
Top
  10
45.8625
  20
2.9325
  11
44.3625
  21
2.9325
  12
45.8625
  22
1.1325
  13
44.3625
  23
1.1325
  0
SOLID
  8
Top
  10
42.369
  20
2.9325
  11
40.869
  21
2.9325
  12
42.369
  22
1.1325
  13
40.869
  23
1.1325
  0
SOLID
  8
Top
  10
60.4675
  20
2.9325
  11
58.9675
  21
2.9325
  12
60.4675
  22
1.1325
  13
58.9675
  23
1.1325
  0
SOLID
  8
Top
  10
56.974
  20
2.9325
  11
55.474
  21
2.9325
  12
56.974
  22
1.1325
  13
55.474
  23
1.1325
  0
SOLID
  8
Top
  10
14.28
  20
5.9225
  11
13.08
  21
5.9225
  12
14.28
  22
3.2225
  13
13.08
  23
3.2225
  0
SOLID
  8
Top
  10
9.78
  20
5.9225
  11
8.58
  21
5.9225
  12
9.78
  22
3.2225
  13
8.58
  23
3.2225
  0
SOLID
  8
Top
  10
9.78
  20
13.9225
  11
8.58
  21
13.9225
  12
9.78
  22
11.2225
  13
8.58
  23
11.2225
  0
SOLID
  8
Top
  10
14.28
  20
13.9225
  11
13.08
  21
13.9225
  12
14.28
  22
11.2225
  13
13.08
  23
11.2225
  0
SOLID
  8
Top
  10
28.5675
  20
5.9225
  11
27.3675
  21
5.9225
  12
28.5675
  22
3.2225
  13
27.3675
  23
3.2225
  0
SOLID
  8
Top
  10
24.0675
  20
5.9225
  11
22.8675
  21
5.9225
  12
24.0675
  22
3.2225
  13
22.8675
  23
3.2225
  0
SOLID
  8
Top
  10
24.0675
  20
13.9225
  11
22.8675
  21
13.9225
  12
24.0675
  22
11.2225
  13
22.8675
  23
11.2225
  0
SOLID
  8
Top
  10
28.5675
  20
13.9225
  11
27.3675
  21
13.9225
  12
28.5675
  22
11.2225
  13
27.3675
  23
11.2225
  0
SOLID
  8
Top
  10
46.3475
  20
5.9225
  11
45.1475
  21
5.9225
  12
46.3475
  22
3.2225
  13
45.1475
  23
3.2225
  0
SOLID
  8
Top
  10
41.8475
  20
5.9225
  11
40.6475
  21
5.9225
  12
41.8475
  22
3.2225
  13
40.6475
  23
3.2225
  0
SOLID
  8
Top
  10
41.8475
  20
13.9225
  11
40.6475
  21
13.9225
  12
41.8475
  22
11.2225
  13
40.6475
  23
11.2225
  0
SOLID
  8
Top
  10
46.3475
  20
13.9225
  11
45.1475
  21
13.9225
  12
46.3475
  22
11.2225
  13
45.1475
  23
11.2225
  0
SOLID
  8
Top
  10
60.9525
  20
5.9225
  11
59.7525
  21
5.9225
  12
60.9525
  22
3.2225
  13
59.7525
  23
3.2225
  0
SOLID
  8
Top
  10
56.4525
  20
5.9225
  11
55.2525
  21
5.9225
  12
56.4525
  22
3.2225
  13
55.2525
  23
3.2225
  0
SOLID
  8
Top
  10
56.4525
  20
13.9225
  11
55.2525
  21
13.9225
  12
56.4525
  22
11.2225
  13
55.2525
  23
11.2225
  0
SOLID
  8
Top
  10
60.9525
  20
13.9225
  11
59.7525
  21
13.9225
  12
60.9525
  22
11.2225
  13
59.7525
  23
11.2225
  0
SOLID
  8
Top
  10
37.2904
  20
11.1875
  11
35.7904
  21
11.1875
  12
37.2904
  22
9.3875
  13
35.7904
  23
9.3875
  0
SOLID
  8
Top
  10
33.797
  20
11.1875
  11
32.297
  21
11.1875
  12
33.797
  22
9.3875
  13
32.297
  23
9.3875
  0
SOLID
  8
Top
  10
32.0425
  20
5.005
  11
30.2425
  21
5.005
  12
32.0425
  22
3.505
  13
30.2425
  23
3.505
  0
SOLID
  8
Top
  10
32.0425
  20
8.4985
  11
30.2425
  21
8.4985
  12
32.0425
  22
6.9985
  13
30.2425
  23
6.9985
  0
SOLID
  8
Top
  10
35.535
  20
5.005
  11
33.735
  21
5.005
  12
35.535
  22
3.505
  13
33.735
  23
3.505
  0
SOLID
  8
Top
  10
35.535
  20
8.4985
  11
33.735
  21
8.4985
  12
35.535
  22
6.9985
  13
33.735
  23
6.9985
  0
SOLID
  8
Top
  10
39.0275
  20
5.005
  11
37.2275
  21
5.005
  12
39.0275
  22
3.505
  13
37.2275
  23
3.505
  0
SOLID
  8
Top
  10
39.0275
  20
8.4985
  11
37.2275
  21
8.4985
  12
39.0275
  22
6.9985
  13
37.2275
  23
6.9985
  0
POLYLINE
  8
Top
  6
CONTINUOUS
  66
1
  70
0
  40
1.0
  41
1.0
  0
VERTEX
  8
Top
  10
52.8675
  20
14.0975
  42
1
  0
VERTEX
  8
Top
  10
53.8675
  20
14.0975
  42
1
  0
VERTEX
  8
Top
  10
52.8675
  20
14.0975
  42
1
  0
SEQEND
  0
POLYLINE
  8
Top
  6
CONTINUOUS
  66
1
  70
0
  40
1.0
  41
1.0
  0
VERTEX
  8
Top
  10
50.3275
  20
14.0975
  42
1
  0
VERTEX
  8
Top
  10
51.3275
  20
14.0975
  42
1
  0
VERTEX
  8
Top
  10
50.3275
  20
14.0975
  42
1
  0
SEQEND
  0
POLYLINE
  8
Top
  6
CONTINUOUS
  66
1
  70
0
  40
1.0
  41
1.0
  0
VERTEX
  8
Top
  10
47.7875
  20
14.0975
  42
1
  0
VERTEX
  8
Top
  10
48.7875
  20
14.0975
  42
1
  0
VERTEX
  8
Top
  10
47.7875
  20
14.0975
  42
1
  0
SEQEND
  0
POLYLINE
  8
Top
  6
CONTINUOUS
  66
1
  70
0
  40
1.0
  41
1.0
  0
VERTEX
  8
Top
  10
36.6792
  20
14.0997
  42
1
  0
VERTEX
  8
Top
  10
37.6792
  20
14.0997
  42
1
  0
VERTEX
  8
Top
  10
36.6792
  20
14.0997
  42
1
  0
SEQEND
  0
POLYLINE
  8
Top
  6
CONTINUOUS
  66
1
  70
0
  40
1.0
  41
1.0
  0
VERTEX
  8
Top
  10
34.1392
  20
14.0997
  42
1
  0
VERTEX
  8
Top
  10
35.1392
  20
14.0997
  42
1
  0
VERTEX
  8
Top
  10
34.1392
  20
14.0997
  42
1
  0
SEQEND
  0
POLYLINE
  8
Top
  6
CONTINUOUS
  66
1
  70
0
  40
1.0
  41
1.0
  0
VERTEX
  8
Top
  10
31.5992
  20
14.0997
  42
1
  0
VERTEX
  8
Top
  10
32.5992
  20
14.0997
  42
1
  0
VERTEX
  8
Top
  10
31.5992
  20
14.0997
  42
1
  0
SEQEND
  0
POLYLINE
  8
Top
  6
CONTINUOUS
  66
1
  70
0
  40
1.0
  41
1.0
  0
VERTEX
  8
Top
  10
20.4825
  20
14.0975
  42
1
  0
VERTEX
  8
Top
  10
21.4825
  20
14.0975
  42
1
  0
VERTEX
  8
Top
  10
20.4825
  20
14.0975
  42
1
  0
SEQEND
  0
POLYLINE
  8
Top
  6
CONTINUOUS
  66
1
  70
0
  40
1.0
  41
1.0
  0
VERTEX
  8
Top
  10
17.9425
  20
14.0975
  42
1
  0
VERTEX
  8
Top
  10
18.9425
  20
14.0975
  42
1
  0
VERTEX
  8
Top
  10
17.9425
  20
14.0975
  42
1
  0
SEQEND
  0
POLYLINE
  8
Top
  6
CONTINUOUS
  66
1
  70
0
  40
1.0
  41
1.0
  0
VERTEX
  8
Top
  10
15.4025
  20
14.0975
  42
1
  0
VERTEX
  8
Top
  10
16.4025
  20
14.0975
  42
1
  0
VERTEX
  8
Top
  10
15.4025
  20
14.0975
  42
1
  0
SEQEND
  0
POLYLINE
  8
Top
  6
CONTINUOUS
  66
1
  70
0
  40
0.8
  41
0.8
  0
VERTEX
  8
Top
  10
45.1125
  20
2.0325
  42
0
  0
VERTEX
  8
Top
  10
45.1125
  20
2.35
  42
0
  0
SEQEND
  0
POLYLINE
  8
Top
  6
CONTINUOUS
  66
1
  70
0
  40
0.4
  41
0.4
  0
VERTEX
  8
Top
  10
45.3125
  20
2.0325
  42
1
  0
VERTEX
  8
Top
  10
44.9125
  20
2.0325
  42
1
  0
VERTEX
  8
Top
  10
45.3125
  20
2.0325
  42
1
  0
SEQEND
  0
POLYLINE
  8
Top
  6
CONTINUOUS
  66
1
  70
0
  40
0.4
  41
0.4
  0
VERTEX
  8
Top
  10
45.3125
  20
2.35
  42
1
  0
VERTEX
  8
Top
  10
44.9125
  20
2.35
  42
1
  0
VERTEX
  8
Top
  10
45.3125
  20
2.35
  42
1
  0
SEQEND
  0
POLYLINE
  8
Top
  6
CONTINUOUS
  66
1
  70
0
  40
0.8
  41
0.8
  0
VERTEX
  8
Top
  10
45.1125
  20
2.35
  42
0
  0
VERTEX
  8
Top
  10
45.5888
  20
2.8263
  42
0
  0
SEQEND
  0
POLYLINE
  8
Top
  6
CONTINUOUS
  66
1
  70
0
  40
0.4
  41
0.4
  0
VERTEX
  8
Top
  10
45.3125
  20
2.35
  42
1
  0
VERTEX
  8
Top
  10
44.9125
  20
2.35
  42
1
  0
VERTEX
  8
Top
  10
45.3125
  20
2.35
  42
1
  0
SEQEND
  0
POLYLINE
  8
Top
  6
CONTINUOUS
  66
1
  70
0
  40
0.4
  41
0.4
  0
VERTEX
  8
Top
  10
45.7888
  20
2.8263
  42
1
  0
VERTEX
  8
Top
  10
45.3888
  20
2.8263
  42
1
  0
VERTEX
  8
Top
  10
45.7888
  20
2.8263
  42
1
  0
SEQEND
  0
POLYLINE
  8
Top
  6
CONTINUOUS
  66
1
  70
0
  40
0.8
  41
0.8
  0
VERTEX
  8
Top
  10
45.5888
  20
2.8263
  42
0
  0
VERTEX
  8
Top
  10
45.5888
  20
4.4138
  42
0
  0
SEQEND
  0
POLYLINE
  8
Top
  6
CONTINUOUS
  66
1
  70
0
  40
0.4
  41
0.4
  0
VERTEX
  8
Top
  10
45.7888
  20
2.8263
  42
1
  0
VERTEX
  8
Top
  10
45.3888
  20
2.8263
  42
1
  0
VERTEX
  8
Top
  10
45.7888
  20
2.8263
  42
1
  0
SEQEND
  0
POLYLINE
  8
Top
  6
CONTINUOUS
  66
1
  70
0
  40
0.4
  41
0.4
  0
VERTEX
  8
Top
  10
45.7888
  20
4.4138
  42
1
  0
VERTEX
  8
Top
  10
45.3888
  20
4.4138
  42
1
  0
VERTEX
  8
Top
  10
45.7888
  20
4.4138
  42
1
  0
SEQEND
  0
POLYLINE
  8
Top
  6
CONTINUOUS
  66
1
  70
0
  40
0.8
  41
0.8
  0
VERTEX
  8
Top
  10
45.5888
  20
4.4138
  42
0
  0
VERTEX
  8
Top
  10
45.7475
  20
4.5725
  42
0
  0
SEQEND
  0
POLYLINE
  8
Top
  6
CONTINUOUS
  66
1
  70
0
  40
0.4
  41
0.4
  0
VERTEX
  8
Top
  10
45.7888
  20
4.4138
  42
1
  0
VERTEX
  8
Top
  10
45.3888
  20
4.4138
  42
1
  0
VERTEX
  8
Top
  10
45.7888
  20
4.4138
  42
1
  0
SEQEND
  0
POLYLINE
  8
Top
  6
CONTINUOUS
  66
1
  70
0
  40
0.4
  41
0.4
  0
VERTEX
  8
Top
  10
45.9475
  20
4.5725
  42
1
  0
VERTEX
  8
Top
  10
45.5475
  20
4.5725
  42
1
  0
VERTEX
  8
Top
  10
45.9475
  20
4.5725
  42
1
  0
SEQEND
  0
POLYLINE
  8
Top
  6
CONTINUOUS
  66
1
  70
0
  40
0.8
  41
0.8
  0
VERTEX
  8
Top
  10
50.8275
  20
14.0975
  42
0
  0
VERTEX
  8
Top
  10
50.8275
  20
6.16
  42
0
  0
SEQEND
  0
POLYLINE
  8
Top
  6
CONTINUOUS
  66
1
  70
0
  40
0.4
  41
0.4
  0
VERTEX
  8
Top
  10
51.0275
  20
14.0975
  42
1
  0
VERTEX
  8
Top
  10
50.6275
  20
14.0975
  42
1
  0
VERTEX
  8
Top
  10
51.0275
  20
14.0975
  42
1
  0
SEQEND
  0
POLYLINE
  8
Top
  6
CONTINUOUS
  66
1
  70
0
  40
0.4
  41
0.4
  0
VERTEX
  8
Top
  10
51.0275
  20
6.16
  42
1
  0
VERTEX
  8
Top
  10
50.6275
  20
6.16
  42
1
  0
VERTEX
  8
Top
  10
51.0275
  20
6.16
  42
1
  0
SEQEND
  0
POLYLINE
  8
Top
  6
CONTINUOUS
  66
1
  70
0
  40
0.8
  41
0.8
  0
VERTEX
  8
Top
  10
50.8275
  20
6.16
  42
0
  0
VERTEX
  8
Top
  10
48.605
  20
3.9375
  42
0
  0
SEQEND
  0
POLYLINE
  8
Top
  6
CONTINUOUS
  66
1
  70
0
  40
0.4
  41
0.4
  0
VERTEX
  8
Top
  10
51.0275
  20
6.16
  42
1
  0
VERTEX
  8
Top
  10
50.6275
  20
6.16
  42
1
  0
VERTEX
  8
Top
  10
51.0275
  20
6.16
  42
1
  0
SEQEND
  0
POLYLINE
  8
Top
  6
CONTINUOUS
  66
1
  70
0
  40
0.4
  41
0.4
  0
VERTEX
  8
Top
  10
48.805
  20
3.9375
  42
1
  0
VERTEX
  8
Top
  10
48.405
  20
3.9375
  42
1
  0
VERTEX
  8
Top
  10
48.805
  20
3.9375
  42
1
  0
SEQEND
  0
POLYLINE
  8
Top
  6
CONTINUOUS
  66
1
  70
0
  40
0.8
  41
0.8
  0
VERTEX
  8
Top
  10
48.605
  20
3.9375
  42
0
  0
VERTEX
  8
Top
  10
45.9062
  20
3.9375
  42
0
  0
SEQEND
  0
POLYLINE
  8
Top
  6
CONTINUOUS
  66
1
  70
0
  40
0.4
  41
0.4
  0
VERTEX
  8
Top
  10
48.805
  20
3.9375
  42
1
  0
VERTEX
  8
Top
  10
48.405
  20
3.9375
  42
1
  0
VERTEX
  8
Top
  10
48.805
  20
3.9375
  42
1
  0
SEQEND
  0
POLYLINE
  8
Top
  6
CONTINUOUS
  66
1
  70
0
  40
0.4
  41
0.4
  0
VERTEX
  8
Top
  10
46.1062
  20
3.9375
  42
1
  0
VERTEX
  8
Top
  10
45.7062
  20
3.9375
  42
1
  0
VERTEX
  8
Top
  10
46.1062
  20
3.9375
  42
1
  0
SEQEND
  0
POLYLINE
  8
Top
  6
CONTINUOUS
  66
1
  70
0
  40
0.8
  41
0.8
  0
VERTEX
  8
Top
  10
45.9062
  20
3.9375
  42
0
  0
VERTEX
  8
Top
  10
45.9062
  20
4.5725
  42
0
  0
SEQEND
  0
POLYLINE
  8
Top
  6
CONTINUOUS
  66
1
  70
0
  40
0.4
  41
0.4
  0
VERTEX
  8
Top
  10
46.1062
  20
3.9375
  42
1
  0
VERTEX
  8
Top
  10
45.7062
  20
3.9375
  42
1
  0
VERTEX
  8
Top
  10
46.1062
  20
3.9375
  42
1
  0
SEQEND
  0
POLYLINE
  8
Top
  6
CONTINUOUS
  66
1
  70
0
  40
0.4
  41
0.4
  0
VERTEX
  8
Top
  10
46.1062
  20
4.5725
  42
1
  0
VERTEX
  8
Top
  10
45.7062
  20
4.5725
  42
1
  0
VERTEX
  8
Top
  10
46.1062
  20
4.5725
  42
1
  0
SEQEND
  0
POLYLINE
  8
Top
  6
CONTINUOUS
  66
1
  70
0
  40
0.8
  41
0.8
  0
VERTEX
  8
Top
  10
45.9062
  20
4.5725
  42
0
  0
VERTEX
  8
Top
  10
45.7475
  20
4.5725
  42
0
  0
SEQEND
  0
POLYLINE
  8
Top
  6
CONTINUOUS
  66
1
  70
0
  40
0.4
  41
0.4
  0
VERTEX
  8
Top
  10
46.1062
  20
4.5725
  42
1
  0
VERTEX
  8
Top
  10
45.7062
  20
4.5725
  42
1
  0
VERTEX
  8
Top
  10
46.1062
  20
4.5725
  42
1
  0
SEQEND
  0
POLYLINE
  8
Top
  6
CONTINUOUS
  66
1
  70
0
  40
0.4
  41
0.4
  0
VERTEX
  8
Top
  10
45.9475
  20
4.5725
  42
1
  0
VERTEX
  8
Top
  10
45.5475
  20
4.5725
  42
1
  0
VERTEX
  8
Top
  10
45.9475
  20
4.5725
  42
1
  0
SEQEND
  0
POLYLINE
  8
Top
  6
CONTINUOUS
  66
1
  70
0
  40
0.8
  41
0.8
  0
VERTEX
  8
Top
  10
27.9675
  20
4.5725
  42
0
  0
VERTEX
  8
Top
  10
28.1263
  20
4.5725
  42
0
  0
SEQEND
  0
POLYLINE
  8
Top
  6
CONTINUOUS
  66
1
  70
0
  40
0.4
  41
0.4
  0
VERTEX
  8
Top
  10
28.1675
  20
4.5725
  42
1
  0
VERTEX
  8
Top
  10
27.7675
  20
4.5725
  42
1
  0
VERTEX
  8
Top
  10
28.1675
  20
4.5725
  42
1
  0
SEQEND
  0
POLYLINE
  8
Top
  6
CONTINUOUS
  66
1
  70
0
  40
0.4
  41
0.4
  0
VERTEX
  8
Top
  10
28.3263
  20
4.5725
  42
1
  0
VERTEX
  8
Top
  10
27.9263
  20
4.5725
  42
1
  0
VERTEX
  8
Top
  10
28.3263
  20
4.5725
  42
1
  0
SEQEND
  0
POLYLINE
  8
Top
  6
CONTINUOUS
  66
1
  70
0
  40
0.8
  41
0.8
  0
VERTEX
  8
Top
  10
28.1263
  20
4.5725
  42
0
  0
VERTEX
  8
Top
  10
28.1263
  20
3.3025
  42
0
  0
SEQEND
  0
POLYLINE
  8
Top
  6
CONTINUOUS
  66
1
  70
0
  40
0.4
  41
0.4
  0
VERTEX
  8
Top
  10
28.3263
  20
4.5725
  42
1
  0
VERTEX
  8
Top
  10
27.9263
  20
4.5725
  42
1
  0
VERTEX
  8
Top
  10
28.3263
  20
4.5725
  42
1
  0
SEQEND
  0
POLYLINE
  8
Top
  6
CONTINUOUS
  66
1
  70
0
  40
0.4
  41
0.4
  0
VERTEX
  8
Top
  10
28.3263
  20
3.3025
  42
1
  0
VERTEX
  8
Top
  10
27.9263
  20
3.3025
  42
1
  0
VERTEX
  8
Top
  10
28.3263
  20
3.3025
  42
1
  0
SEQEND
  0
POLYLINE
  8
Top
  6
CONTINUOUS
  66
1
  70
0
  40
0.8
  41
0.8
  0
VERTEX
  8
Top
  10
28.1263
  20
3.3025
  42
0
  0
VERTEX
  8
Top
  10
27.3325
  20
2.5088
  42
0
  0
SEQEND
  0
POLYLINE
  8
Top
  6
CONTINUOUS
  66
1
  70
0
  40
0.4
  41
0.4
  0
VERTEX
  8
Top
  10
28.3263
  20
3.3025
  42
1
  0
VERTEX
  8
Top
  10
27.9263
  20
3.3025
  42
1
  0
VERTEX
  8
Top
  10
28.3263
  20
3.3025
  42
1
  0
SEQEND
  0
POLYLINE
  8
Top
  6
CONTINUOUS
  66
1
  70
0
  40
0.4
  41
0.4
  0
VERTEX
  8
Top
  10
27.5325
  20
2.5088
  42
1
  0
VERTEX
  8
Top
  10
27.1325
  20
2.5088
  42
1
  0
VERTEX
  8
Top
  10
27.5325
  20
2.5088
  42
1
  0
SEQEND
  0
POLYLINE
  8
Top
  6
CONTINUOUS
  66
1
  70
0
  40
0.8
  41
0.8
  0
VERTEX
  8
Top
  10
27.3325
  20
2.5088
  42
0
  0
VERTEX
  8
Top
  10
27.3325
  20
2.0325
  42
0
  0
SEQEND
  0
POLYLINE
  8
Top
  6
CONTINUOUS
  66
1
  70
0
  40
0.4
  41
0.4
  0
VERTEX
  8
Top
  10
27.5325
  20
2.5088
  42
1
  0
VERTEX
  8
Top
  10
27.1325
  20
2.5088
  42
1
  0
VERTEX
  8
Top
  10
27.5325
  20
2.5088
  42
1
  0
SEQEND
  0
POLYLINE
  8
Top
  6
CONTINUOUS
  66
1
  70
0
  40
0.4
  41
0.4
  0
VERTEX
  8
Top
  10
27.5325
  20
2.0325
  42
1
  0
VERTEX
  8
Top
  10
27.1325
  20
2.0325
  42
1
  0
VERTEX
  8
Top
  10
27.5325
  20
2.0325
  42
1
  0
SEQEND
  0
POLYLINE
  8
Top
  6
CONTINUOUS
  66
1
  70
0
  40
0.8
  41
0.8
  0
VERTEX
  8
Top
  10
27.9675
  20
12.5725
  42
0
  0
VERTEX
  8
Top
  10
27.9675
  20
9.235
  42
0
  0
SEQEND
  0
POLYLINE
  8
Top
  6
CONTINUOUS
  66
1
  70
0
  40
0.4
  41
0.4
  0
VERTEX
  8
Top
  10
28.1675
  20
12.5725
  42
1
  0
VERTEX
  8
Top
  10
27.7675
  20
12.5725
  42
1
  0
VERTEX
  8
Top
  10
28.1675
  20
12.5725
  42
1
  0
SEQEND
  0
POLYLINE
  8
Top
  6
CONTINUOUS
  66
1
  70
0
  40
0.4
  41
0.4
  0
VERTEX
  8
Top
  10
28.1675
  20
9.235
  42
1
  0
VERTEX
  8
Top
  10
27.7675
  20
9.235
  42
1
  0
VERTEX
  8
Top
  10
28.1675
  20
9.235
  42
1
  0
SEQEND
  0
POLYLINE
  8
Top
  6
CONTINUOUS
  66
1
  70
0
  40
0.8
  41
0.8
  0
VERTEX
  8
Top
  10
27.9675
  20
9.235
  42
0
  0
VERTEX
  8
Top
  10
27.305
  20
8.5725
  42
0
  0
SEQEND
  0
POLYLINE
  8
Top
  6
CONTINUOUS
  66
1
  70
0
  40
0.4
  41
0.4
  0
VERTEX
  8
Top
  10
28.1675
  20
9.235
  42
1
  0
VERTEX
  8
Top
  10
27.7675
  20
9.235
  42
1
  0
VERTEX
  8
Top
  10
28.1675
  20
9.235
  42
1
  0
SEQEND
  0
POLYLINE
  8
Top
  6
CONTINUOUS
  66
1
  70
0
  40
0.4
  41
0.4
  0
VERTEX
  8
Top
  10
27.505
  20
8.5725
  42
1
  0
VERTEX
  8
Top
  10
27.105
  20
8.5725
  42
1
  0
VERTEX
  8
Top
  10
27.505
  20
8.5725
  42
1
  0
SEQEND
  0
POLYLINE
  8
Top
  6
CONTINUOUS
  66
1
  70
0
  40
0.8
  41
0.8
  0
VERTEX
  8
Top
  10
27.305
  20
8.5725
  42
0
  0
VERTEX
  8
Top
  10
22.5425
  20
8.5725
  42
0
  0
SEQEND
  0
POLYLINE
  8
Top
  6
CONTINUOUS
  66
1
  70
0
  40
0.4
  41
0.4
  0
VERTEX
  8
Top
  10
27.505
  20
8.5725
  42
1
  0
VERTEX
  8
Top
  10
27.105
  20
8.5725
  42
1
  0
VERTEX
  8
Top
  10
27.505
  20
8.5725
  42
1
  0
SEQEND
  0
POLYLINE
  8
Top
  6
CONTINUOUS
  66
1
  70
0
  40
0.4
  41
0.4
  0
VERTEX
  8
Top
  10
22.7425
  20
8.5725
  42
1
  0
VERTEX
  8
Top
  10
22.3425
  20
8.5725
  42
1
  0
VERTEX
  8
Top
  10
22.7425
  20
8.5725
  42
1
  0
SEQEND
  0
POLYLINE
  8
Top
  6
CONTINUOUS
  66
1
  70
0
  40
0.8
  41
0.8
  0
VERTEX
  8
Top
  10
22.5425
  20
8.5725
  42
0
  0
VERTEX
  8
Top
  10
20.955
  20
10.16
  42
0
  0
SEQEND
  0
POLYLINE
  8
Top
  6
CONTINUOUS
  66
1
  70
0
  40
0.4
  41
0.4
  0
VERTEX
  8
Top
  10
22.7425
  20
8.5725
  42
1
  0
VERTEX
  8
Top
  10
22.3425
  20
8.5725
  42
1
  0
VERTEX
  8
Top
  10
22.7425
  20
8.5725
  42
1
  0
SEQEND
  0
POLYLINE
  8
Top
  6
CONTINUOUS
  66
1
  70
0
  40
0.4
  41
0.4
  0
VERTEX
  8
Top
  10
21.155
  20
10.16
  42
1
  0
VERTEX
  8
Top
  10
20.755
  20
10.16
  42
1
  0
VERTEX
  8
Top
  10
21.155
  20
10.16
  42
1
  0
SEQEND
  0
POLYLINE
  8
Top
  6
CONTINUOUS
  66
1
  70
0
  40
0.8
  41
0.8
  0
VERTEX
  8
Top
  10
20.955
  20
10.16
  42
0
  0
VERTEX
  8
Top
  10
20.955
  20
14.07
  42
0
  0
SEQEND
  0
POLYLINE
  8
Top
  6
CONTINUOUS
  66
1
  70
0
  40
0.4
  41
0.4
  0
VERTEX
  8
Top
  10
21.155
  20
10.16
  42
1
  0
VERTEX
  8
Top
  10
20.755
  20
10.16
  42
1
  0
VERTEX
  8
Top
  10
21.155
  20
10.16
  42
1
  0
SEQEND
  0
POLYLINE
  8
Top
  6
CONTINUOUS
  66
1
  70
0
  40
0.4
  41
0.4
  0
VERTEX
  8
Top
  10
21.155
  20
14.07
  42
1
  0
VERTEX
  8
Top
  10
20.755
  20
14.07
  42
1
  0
VERTEX
  8
Top
  10
21.155
  20
14.07
  42
1
  0
SEQEND
  0
POLYLINE
  8
Top
  6
CONTINUOUS
  66
1
  70
0
  40
0.8
  41
0.8
  0
VERTEX
  8
Top
  10
20.955
  20
14.07
  42
0
  0
VERTEX
  8
Top
  10
20.9825
  20
14.0975
  42
0
  0
SEQEND
  0
POLYLINE
  8
Top
  6
CONTINUOUS
  66
1
  70
0
  40
0.4
  41
0.4
  0
VERTEX
  8
Top
  10
21.155
  20
14.07
  42
1
  0
VERTEX
  8
Top
  10
20.755
  20
14.07
  42
1
  0
VERTEX
  8
Top
  10
21.155
  20
14.07
  42
1
  0
SEQEND
  0
POLYLINE
  8
Top
  6
CONTINUOUS
  66
1
  70
0
  40
0.4
  41
0.4
  0
VERTEX
  8
Top
  10
21.1825
  20
14.0975
  42
1
  0
VERTEX
  8
Top
  10
20.7825
  20
14.0975
  42
1
  0
VERTEX
  8
Top
  10
21.1825
  20
14.0975
  42
1
  0
SEQEND
  0
POLYLINE
  8
Top
  6
CONTINUOUS
  66
1
  70
0
  40
0.8
  41
0.8
  0
VERTEX
  8
Top
  10
60.3525
  20
4.5725
  42
0
  0
VERTEX
  8
Top
  10
60.1938
  20
4.5725
  42
0
  0
SEQEND
  0
POLYLINE
  8
Top
  6
CONTINUOUS
  66
1
  70
0
  40
0.4
  41
0.4
  0
VERTEX
  8
Top
  10
60.5525
  20
4.5725
  42
1
  0
VERTEX
  8
Top
  10
60.1525
  20
4.5725
  42
1
  0
VERTEX
  8
Top
  10
60.5525
  20
4.5725
  42
1
  0
SEQEND
  0
POLYLINE
  8
Top
  6
CONTINUOUS
  66
1
  70
0
  40
0.4
  41
0.4
  0
VERTEX
  8
Top
  10
60.3938
  20
4.5725
  42
1
  0
VERTEX
  8
Top
  10
59.9938
  20
4.5725
  42
1
  0
VERTEX
  8
Top
  10
60.3938
  20
4.5725
  42
1
  0
SEQEND
  0
POLYLINE
  8
Top
  6
CONTINUOUS
  66
1
  70
0
  40
0.8
  41
0.8
  0
VERTEX
  8
Top
  10
60.1938
  20
4.5725
  42
0
  0
VERTEX
  8
Top
  10
60.1938
  20
2.5088
  42
0
  0
SEQEND
  0
POLYLINE
  8
Top
  6
CONTINUOUS
  66
1
  70
0
  40
0.4
  41
0.4
  0
VERTEX
  8
Top
  10
60.3938
  20
4.5725
  42
1
  0
VERTEX
  8
Top
  10
59.9938
  20
4.5725
  42
1
  0
VERTEX
  8
Top
  10
60.3938
  20
4.5725
  42
1
  0
SEQEND
  0
POLYLINE
  8
Top
  6
CONTINUOUS
  66
1
  70
0
  40
0.4
  41
0.4
  0
VERTEX
  8
Top
  10
60.3938
  20
2.5088
  42
1
  0
VERTEX
  8
Top
  10
59.9938
  20
2.5088
  42
1
  0
VERTEX
  8
Top
  10
60.3938
  20
2.5088
  42
1
  0
SEQEND
  0
POLYLINE
  8
Top
  6
CONTINUOUS
  66
1
  70
0
  40
0.8
  41
0.8
  0
VERTEX
  8
Top
  10
60.1938
  20
2.5088
  42
0
  0
VERTEX
  8
Top
  10
59.7175
  20
2.0325
  42
0
  0
SEQEND
  0
POLYLINE
  8
Top
  6
CONTINUOUS
  66
1
  70
0
  40
0.4
  41
0.4
  0
VERTEX
  8
Top
  10
60.3938
  20
2.5088
  42
1
  0
VERTEX
  8
Top
  10
59.9938
  20
2.5088
  42
1
  0
VERTEX
  8
Top
  10
60.3938
  20
2.5088
  42
1
  0
SEQEND
  0
POLYLINE
  8
Top
  6
CONTINUOUS
  66
1
  70
0
  40
0.4
  41
0.4
  0
VERTEX
  8
Top
  10
59.9175
  20
2.0325
  42
1
  0
VERTEX
  8
Top
  10
59.5175
  20
2.0325
  42
1
  0
VERTEX
  8
Top
  10
59.9175
  20
2.0325
  42
1
  0
SEQEND
  0
POLYLINE
  8
Top
  6
CONTINUOUS
  66
1
  70
0
  40
0.8
  41
0.8
  0
VERTEX
  8
Top
  10
60.3525
  20
12.5725
  42
0
  0
VERTEX
  8
Top
  10
60.3525
  20
9.6525
  42
0
  0
SEQEND
  0
POLYLINE
  8
Top
  6
CONTINUOUS
  66
1
  70
0
  40
0.4
  41
0.4
  0
VERTEX
  8
Top
  10
60.5525
  20
12.5725
  42
1
  0
VERTEX
  8
Top
  10
60.1525
  20
12.5725
  42
1
  0
VERTEX
  8
Top
  10
60.5525
  20
12.5725
  42
1
  0
SEQEND
  0
POLYLINE
  8
Top
  6
CONTINUOUS
  66
1
  70
0
  40
0.4
  41
0.4
  0
VERTEX
  8
Top
  10
60.5525
  20
9.6525
  42
1
  0
VERTEX
  8
Top
  10
60.1525
  20
9.6525
  42
1
  0
VERTEX
  8
Top
  10
60.5525
  20
9.6525
  42
1
  0
SEQEND
  0
POLYLINE
  8
Top
  6
CONTINUOUS
  66
1
  70
0
  40
0.8
  41
0.8
  0
VERTEX
  8
Top
  10
60.3525
  20
9.6525
  42
0
  0
VERTEX
  8
Top
  10
59.4
  20
8.7
  42
0
  0
SEQEND
  0
POLYLINE
  8
Top
  6
CONTINUOUS
  66
1
  70
0
  40
0.4
  41
0.4
  0
VERTEX
  8
Top
  10
60.5525
  20
9.6525
  42
1
  0
VERTEX
  8
Top
  10
60.1525
  20
9.6525
  42
1
  0
VERTEX
  8
Top
  10
60.5525
  20
9.6525
  42
1
  0
SEQEND
  0
POLYLINE
  8
Top
  6
CONTINUOUS
  66
1
  70
0
  40
0.4
  41
0.4
  0
VERTEX
  8
Top
  10
59.6
  20
8.7
  42
1
  0
VERTEX
  8
Top
  10
59.2
  20
8.7
  42
1
  0
VERTEX
  8
Top
  10
59.6
  20
8.7
  42
1
  0
SEQEND
  0
POLYLINE
  8
Top
  6
CONTINUOUS
  66
1
  70
0
  40
0.8
  41
0.8
  0
VERTEX
  8
Top
  10
59.4
  20
8.7
  42
0
  0
VERTEX
  8
Top
  10
54.32
  20
8.7
  42
0
  0
SEQEND
  0
POLYLINE
  8
Top
  6
CONTINUOUS
  66
1
  70
0
  40
0.4
  41
0.4
  0
VERTEX
  8
Top
  10
59.6
  20
8.7
  42
1
  0
VERTEX
  8
Top
  10
59.2
  20
8.7
  42
1
  0
VERTEX
  8
Top
  10
59.6
  20
8.7
  42
1
  0
SEQEND
  0
POLYLINE
  8
Top
  6
CONTINUOUS
  66
1
  70
0
  40
0.4
  41
0.4
  0
VERTEX
  8
Top
  10
54.52
  20
8.7
  42
1
  0
VERTEX
  8
Top
  10
54.12
  20
8.7
  42
1
  0
VERTEX
  8
Top
  10
54.52
  20
8.7
  42
1
  0
SEQEND
  0
POLYLINE
  8
Top
  6
CONTINUOUS
  66
1
  70
0
  40
0.8
  41
0.8
  0
VERTEX
  8
Top
  10
54.32
  20
8.7
  42
0
  0
VERTEX
  8
Top
  10
53.3675
  20
9.6525
  42
0
  0
SEQEND
  0
POLYLINE
  8
Top
  6
CONTINUOUS
  66
1
  70
0
  40
0.4
  41
0.4
  0
VERTEX
  8
Top
  10
54.52
  20
8.7
  42
1
  0
VERTEX
  8
Top
  10
54.12
  20
8.7
  42
1
  0
VERTEX
  8
Top
  10
54.52
  20
8.7
  42
1
  0
SEQEND
  0
POLYLINE
  8
Top
  6
CONTINUOUS
  66
1
  70
0
  40
0.4
  41
0.4
  0
VERTEX
  8
Top
  10
53.5675
  20
9.6525
  42
1
  0
VERTEX
  8
Top
  10
53.1675
  20
9.6525
  42
1
  0
VERTEX
  8
Top
  10
53.5675
  20
9.6525
  42
1
  0
SEQEND
  0
POLYLINE
  8
Top
  6
CONTINUOUS
  66
1
  70
0
  40
0.8
  41
0.8
  0
VERTEX
  8
Top
  10
53.3675
  20
9.6525
  42
0
  0
VERTEX
  8
Top
  10
53.3675
  20
14.0975
  42
0
  0
SEQEND
  0
POLYLINE
  8
Top
  6
CONTINUOUS
  66
1
  70
0
  40
0.4
  41
0.4
  0
VERTEX
  8
Top
  10
53.5675
  20
9.6525
  42
1
  0
VERTEX
  8
Top
  10
53.1675
  20
9.6525
  42
1
  0
VERTEX
  8
Top
  10
53.5675
  20
9.6525
  42
1
  0
SEQEND
  0
POLYLINE
  8
Top
  6
CONTINUOUS
  66
1
  70
0
  40
0.4
  41
0.4
  0
VERTEX
  8
Top
  10
53.5675
  20
14.0975
  42
1
  0
VERTEX
  8
Top
  10
53.1675
  20
14.0975
  42
1
  0
VERTEX
  8
Top
  10
53.5675
  20
14.0975
  42
1
  0
SEQEND
  0
POLYLINE
  8
Top
  6
CONTINUOUS
  66
1
  70
0
  40
0.8
  41
0.8
  0
VERTEX
  8
Top
  10
13.68
  20
4.5725
  42
0
  0
VERTEX
  8
Top
  10
13.68
  20
2.5675
  42
0
  0
SEQEND
  0
POLYLINE
  8
Top
  6
CONTINUOUS
  66
1
  70
0
  40
0.4
  41
0.4
  0
VERTEX
  8
Top
  10
13.88
  20
4.5725
  42
1
  0
VERTEX
  8
Top
  10
13.48
  20
4.5725
  42
1
  0
VERTEX
  8
Top
  10
13.88
  20
4.5725
  42
1
  0
SEQEND
  0
POLYLINE
  8
Top
  6
CONTINUOUS
  66
1
  70
0
  40
0.4
  41
0.4
  0
VERTEX
  8
Top
  10
13.88
  20
2.5675
  42
1
  0
VERTEX
  8
Top
  10
13.48
  20
2.5675
  42
1
  0
VERTEX
  8
Top
  10
13.88
  20
2.5675
  42
1
  0
SEQEND
  0
POLYLINE
  8
Top
  6
CONTINUOUS
  66
1
  70
0
  40
0.8
  41
0.8
  0
VERTEX
  8
Top
  10
13.68
  20
2.5675
  42
0
  0
VERTEX
  8
Top
  10
13.145
  20
2.0325
  42
0
  0
SEQEND
  0
POLYLINE
  8
Top
  6
CONTINUOUS
  66
1
  70
0
  40
0.4
  41
0.4
  0
VERTEX
  8
Top
  10
13.88
  20
2.5675
  42
1
  0
VERTEX
  8
Top
  10
13.48
  20
2.5675
  42
1
  0
VERTEX
  8
Top
  10
13.88
  20
2.5675
  42
1
  0
SEQEND
  0
POLYLINE
  8
Top
  6
CONTINUOUS
  66
1
  70
0
  40
0.4
  41
0.4
  0
VERTEX
  8
Top
  10
13.345
  20
2.0325
  42
1
  0
VERTEX
  8
Top
  10
12.945
  20
2.0325
  42
1
  0
VERTEX
  8
Top
  10
13.345
  20
2.0325
  42
1
  0
SEQEND
  0
POLYLINE
  8
Top
  6
CONTINUOUS
  66
1
  70
0
  40
0.8
  41
0.8
  0
VERTEX
  8
Top
  10
13.145
  20
2.0325
  42
0
  0
VERTEX
  8
Top
  10
13.045
  20
2.0325
  42
0
  0
SEQEND
  0
POLYLINE
  8
Top
  6
CONTINUOUS
  66
1
  70
0
  40
0.4
  41
0.4
  0
VERTEX
  8
Top
  10
13.345
  20
2.0325
  42
1
  0
VERTEX
  8
Top
  10
12.945
  20
2.0325
  42
1
  0
VERTEX
  8
Top
  10
13.345
  20
2.0325
  42
1
  0
SEQEND
  0
POLYLINE
  8
Top
  6
CONTINUOUS
  66
1
  70
0
  40
0.4
  41
0.4
  0
VERTEX
  8
Top
  10
13.245
  20
2.0325
  42
1
  0
VERTEX
  8
Top
  10
12.845
  20
2.0325
  42
1
  0
VERTEX
  8
Top
  10
13.245
  20
2.0325
  42
1
  0
SEQEND
  0
POLYLINE
  8
Top
  6
CONTINUOUS
  66
1
  70
0
  40
0.8
  41
0.8
  0
VERTEX
  8
Top
  10
18.4425
  20
14.0975
  42
0
  0
VERTEX
  8
Top
  10
18.4425
  20
12.41
  42
0
  0
SEQEND
  0
POLYLINE
  8
Top
  6
CONTINUOUS
  66
1
  70
0
  40
0.4
  41
0.4
  0
VERTEX
  8
Top
  10
18.6425
  20
14.0975
  42
1
  0
VERTEX
  8
Top
  10
18.2425
  20
14.0975
  42
1
  0
VERTEX
  8
Top
  10
18.6425
  20
14.0975
  42
1
  0
SEQEND
  0
POLYLINE
  8
Top
  6
CONTINUOUS
  66
1
  70
0
  40
0.4
  41
0.4
  0
VERTEX
  8
Top
  10
18.6425
  20
12.41
  42
1
  0
VERTEX
  8
Top
  10
18.2425
  20
12.41
  42
1
  0
VERTEX
  8
Top
  10
18.6425
  20
12.41
  42
1
  0
SEQEND
  0
POLYLINE
  8
Top
  6
CONTINUOUS
  66
1
  70
0
  40
0.8
  41
0.8
  0
VERTEX
  8
Top
  10
18.4425
  20
12.41
  42
0
  0
VERTEX
  8
Top
  10
17.78
  20
11.7475
  42
0
  0
SEQEND
  0
POLYLINE
  8
Top
  6
CONTINUOUS
  66
1
  70
0
  40
0.4
  41
0.4
  0
VERTEX
  8
Top
  10
18.6425
  20
12.41
  42
1
  0
VERTEX
  8
Top
  10
18.2425
  20
12.41
  42
1
  0
VERTEX
  8
Top
  10
18.6425
  20
12.41
  42
1
  0
SEQEND
  0
POLYLINE
  8
Top
  6
CONTINUOUS
  66
1
  70
0
  40
0.4
  41
0.4
  0
VERTEX
  8
Top
  10
17.98
  20
11.7475
  42
1
  0
VERTEX
  8
Top
  10
17.58
  20
11.7475
  42
1
  0
VERTEX
  8
Top
  10
17.98
  20
11.7475
  42
1
  0
SEQEND
  0
POLYLINE
  8
Top
  6
CONTINUOUS
  66
1
  70
0
  40
0.8
  41
0.8
  0
VERTEX
  8
Top
  10
17.78
  20
11.7475
  42
0
  0
VERTEX
  8
Top
  10
13.68
  20
11.7475
  42
0
  0
SEQEND
  0
POLYLINE
  8
Top
  6
CONTINUOUS
  66
1
  70
0
  40
0.4
  41
0.4
  0
VERTEX
  8
Top
  10
17.98
  20
11.7475
  42
1
  0
VERTEX
  8
Top
  10
17.58
  20
11.7475
  42
1
  0
VERTEX
  8
Top
  10
17.98
  20
11.7475
  42
1
  0
SEQEND
  0
POLYLINE
  8
Top
  6
CONTINUOUS
  66
1
  70
0
  40
0.4
  41
0.4
  0
VERTEX
  8
Top
  10
13.88
  20
11.7475
  42
1
  0
VERTEX
  8
Top
  10
13.48
  20
11.7475
  42
1
  0
VERTEX
  8
Top
  10
13.88
  20
11.7475
  42
1
  0
SEQEND
  0
POLYLINE
  8
Top
  6
CONTINUOUS
  66
1
  70
0
  40
0.8
  41
0.8
  0
VERTEX
  8
Top
  10
13.68
  20
11.7475
  42
0
  0
VERTEX
  8
Top
  10
13.68
  20
12.5725
  42
0
  0
SEQEND
  0
POLYLINE
  8
Top
  6
CONTINUOUS
  66
1
  70
0
  40
0.4
  41
0.4
  0
VERTEX
  8
Top
  10
13.88
  20
11.7475
  42
1
  0
VERTEX
  8
Top
  10
13.48
  20
11.7475
  42
1
  0
VERTEX
  8
Top
  10
13.88
  20
11.7475
  42
1
  0
SEQEND
  0
POLYLINE
  8
Top
  6
CONTINUOUS
  66
1
  70
0
  40
0.4
  41
0.4
  0
VERTEX
  8
Top
  10
13.88
  20
12.5725
  42
1
  0
VERTEX
  8
Top
  10
13.48
  20
12.5725
  42
1
  0
VERTEX
  8
Top
  10
13.88
  20
12.5725
  42
1
  0
SEQEND
  0
POLYLINE
  8
Top
  6
CONTINUOUS
  66
1
  70
0
  40
0.8
  41
0.8
  0
VERTEX
  8
Top
  10
56.224
  20
2.0325
  42
0
  0
VERTEX
  8
Top
  10
56.224
  20
4.201
  42
0
  0
SEQEND
  0
POLYLINE
  8
Top
  6
CONTINUOUS
  66
1
  70
0
  40
0.4
  41
0.4
  0
VERTEX
  8
Top
  10
56.424
  20
2.0325
  42
1
  0
VERTEX
  8
Top
  10
56.024
  20
2.0325
  42
1
  0
VERTEX
  8
Top
  10
56.424
  20
2.0325
  42
1
  0
SEQEND
  0
POLYLINE
  8
Top
  6
CONTINUOUS
  66
1
  70
0
  40
0.4
  41
0.4
  0
VERTEX
  8
Top
  10
56.424
  20
4.201
  42
1
  0
VERTEX
  8
Top
  10
56.024
  20
4.201
  42
1
  0
VERTEX
  8
Top
  10
56.424
  20
4.201
  42
1
  0
SEQEND
  0
POLYLINE
  8
Top
  6
CONTINUOUS
  66
1
  70
0
  40
0.8
  41
0.8
  0
VERTEX
  8
Top
  10
56.224
  20
4.201
  42
0
  0
VERTEX
  8
Top
  10
55.8525
  20
4.5725
  42
0
  0
SEQEND
  0
POLYLINE
  8
Top
  6
CONTINUOUS
  66
1
  70
0
  40
0.4
  41
0.4
  0
VERTEX
  8
Top
  10
56.424
  20
4.201
  42
1
  0
VERTEX
  8
Top
  10
56.024
  20
4.201
  42
1
  0
VERTEX
  8
Top
  10
56.424
  20
4.201
  42
1
  0
SEQEND
  0
POLYLINE
  8
Top
  6
CONTINUOUS
  66
1
  70
0
  40
0.4
  41
0.4
  0
VERTEX
  8
Top
  10
56.0525
  20
4.5725
  42
1
  0
VERTEX
  8
Top
  10
55.6525
  20
4.5725
  42
1
  0
VERTEX
  8
Top
  10
56.0525
  20
4.5725
  42
1
  0
SEQEND
  0
POLYLINE
  8
Top
  6
CONTINUOUS
  66
1
  70
0
  40
0.8
  41
0.8
  0
VERTEX
  8
Top
  10
41.619
  20
2.0325
  42
0
  0
VERTEX
  8
Top
  10
41.3025
  20
2.0325
  42
0
  0
SEQEND
  0
POLYLINE
  8
Top
  6
CONTINUOUS
  66
1
  70
0
  40
0.4
  41
0.4
  0
VERTEX
  8
Top
  10
41.819
  20
2.0325
  42
1
  0
VERTEX
  8
Top
  10
41.419
  20
2.0325
  42
1
  0
VERTEX
  8
Top
  10
41.819
  20
2.0325
  42
1
  0
SEQEND
  0
POLYLINE
  8
Top
  6
CONTINUOUS
  66
1
  70
0
  40
0.4
  41
0.4
  0
VERTEX
  8
Top
  10
41.5025
  20
2.0325
  42
1
  0
VERTEX
  8
Top
  10
41.1025
  20
2.0325
  42
1
  0
VERTEX
  8
Top
  10
41.5025
  20
2.0325
  42
1
  0
SEQEND
  0
POLYLINE
  8
Top
  6
CONTINUOUS
  66
1
  70
0
  40
0.8
  41
0.8
  0
VERTEX
  8
Top
  10
41.3025
  20
2.0325
  42
0
  0
VERTEX
  8
Top
  10
41.3025
  20
4.5175
  42
0
  0
SEQEND
  0
POLYLINE
  8
Top
  6
CONTINUOUS
  66
1
  70
0
  40
0.4
  41
0.4
  0
VERTEX
  8
Top
  10
41.5025
  20
2.0325
  42
1
  0
VERTEX
  8
Top
  10
41.1025
  20
2.0325
  42
1
  0
VERTEX
  8
Top
  10
41.5025
  20
2.0325
  42
1
  0
SEQEND
  0
POLYLINE
  8
Top
  6
CONTINUOUS
  66
1
  70
0
  40
0.4
  41
0.4
  0
VERTEX
  8
Top
  10
41.5025
  20
4.5175
  42
1
  0
VERTEX
  8
Top
  10
41.1025
  20
4.5175
  42
1
  0
VERTEX
  8
Top
  10
41.5025
  20
4.5175
  42
1
  0
SEQEND
  0
POLYLINE
  8
Top
  6
CONTINUOUS
  66
1
  70
0
  40
0.8
  41
0.8
  0
VERTEX
  8
Top
  10
41.3025
  20
4.5175
  42
0
  0
VERTEX
  8
Top
  10
41.2475
  20
4.5725
  42
0
  0
SEQEND
  0
POLYLINE
  8
Top
  6
CONTINUOUS
  66
1
  70
0
  40
0.4
  41
0.4
  0
VERTEX
  8
Top
  10
41.5025
  20
4.5175
  42
1
  0
VERTEX
  8
Top
  10
41.1025
  20
4.5175
  42
1
  0
VERTEX
  8
Top
  10
41.5025
  20
4.5175
  42
1
  0
SEQEND
  0
POLYLINE
  8
Top
  6
CONTINUOUS
  66
1
  70
0
  40
0.4
  41
0.4
  0
VERTEX
  8
Top
  10
41.4475
  20
4.5725
  42
1
  0
VERTEX
  8
Top
  10
41.0475
  20
4.5725
  42
1
  0
VERTEX
  8
Top
  10
41.4475
  20
4.5725
  42
1
  0
SEQEND
  0
POLYLINE
  8
Top
  6
CONTINUOUS
  66
1
  70
0
  40
0.8
  41
0.8
  0
VERTEX
  8
Top
  10
23.4675
  20
4.5725
  42
0
  0
VERTEX
  8
Top
  10
23.4675
  20
2.404
  42
0
  0
SEQEND
  0
POLYLINE
  8
Top
  6
CONTINUOUS
  66
1
  70
0
  40
0.4
  41
0.4
  0
VERTEX
  8
Top
  10
23.6675
  20
4.5725
  42
1
  0
VERTEX
  8
Top
  10
23.2675
  20
4.5725
  42
1
  0
VERTEX
  8
Top
  10
23.6675
  20
4.5725
  42
1
  0
SEQEND
  0
POLYLINE
  8
Top
  6
CONTINUOUS
  66
1
  70
0
  40
0.4
  41
0.4
  0
VERTEX
  8
Top
  10
23.6675
  20
2.404
  42
1
  0
VERTEX
  8
Top
  10
23.2675
  20
2.404
  42
1
  0
VERTEX
  8
Top
  10
23.6675
  20
2.404
  42
1
  0
SEQEND
  0
POLYLINE
  8
Top
  6
CONTINUOUS
  66
1
  70
0
  40
0.8
  41
0.8
  0
VERTEX
  8
Top
  10
23.4675
  20
2.404
  42
0
  0
VERTEX
  8
Top
  10
23.839
  20
2.0325
  42
0
  0
SEQEND
  0
POLYLINE
  8
Top
  6
CONTINUOUS
  66
1
  70
0
  40
0.4
  41
0.4
  0
VERTEX
  8
Top
  10
23.6675
  20
2.404
  42
1
  0
VERTEX
  8
Top
  10
23.2675
  20
2.404
  42
1
  0
VERTEX
  8
Top
  10
23.6675
  20
2.404
  42
1
  0
SEQEND
  0
POLYLINE
  8
Top
  6
CONTINUOUS
  66
1
  70
0
  40
0.4
  41
0.4
  0
VERTEX
  8
Top
  10
24.039
  20
2.0325
  42
1
  0
VERTEX
  8
Top
  10
23.639
  20
2.0325
  42
1
  0
VERTEX
  8
Top
  10
24.039
  20
2.0325
  42
1
  0
SEQEND
  0
POLYLINE
  8
Top
  6
CONTINUOUS
  66
1
  70
0
  40
0.8
  41
0.8
  0
VERTEX
  8
Top
  10
9.18
  20
4.5725
  42
0
  0
VERTEX
  8
Top
  10
9.18
  20
2.404
  42
0
  0
SEQEND
  0
POLYLINE
  8
Top
  6
CONTINUOUS
  66
1
  70
0
  40
0.4
  41
0.4
  0
VERTEX
  8
Top
  10
9.38
  20
4.5725
  42
1
  0
VERTEX
  8
Top
  10
8.98
  20
4.5725
  42
1
  0
VERTEX
  8
Top
  10
9.38
  20
4.5725
  42
1
  0
SEQEND
  0
POLYLINE
  8
Top
  6
CONTINUOUS
  66
1
  70
0
  40
0.4
  41
0.4
  0
VERTEX
  8
Top
  10
9.38
  20
2.404
  42
1
  0
VERTEX
  8
Top
  10
8.98
  20
2.404
  42
1
  0
VERTEX
  8
Top
  10
9.38
  20
2.404
  42
1
  0
SEQEND
  0
POLYLINE
  8
Top
  6
CONTINUOUS
  66
1
  70
0
  40
0.8
  41
0.8
  0
VERTEX
  8
Top
  10
9.18
  20
2.404
  42
0
  0
VERTEX
  8
Top
  10
9.5515
  20
2.0325
  42
0
  0
SEQEND
  0
POLYLINE
  8
Top
  6
CONTINUOUS
  66
1
  70
0
  40
0.4
  41
0.4
  0
VERTEX
  8
Top
  10
9.38
  20
2.404
  42
1
  0
VERTEX
  8
Top
  10
8.98
  20
2.404
  42
1
  0
VERTEX
  8
Top
  10
9.38
  20
2.404
  42
1
  0
SEQEND
  0
POLYLINE
  8
Top
  6
CONTINUOUS
  66
1
  70
0
  40
0.4
  41
0.4
  0
VERTEX
  8
Top
  10
9.7515
  20
2.0325
  42
1
  0
VERTEX
  8
Top
  10
9.3515
  20
2.0325
  42
1
  0
VERTEX
  8
Top
  10
9.7515
  20
2.0325
  42
1
  0
SEQEND
  0
POLYLINE
  8
Top
  6
CONTINUOUS
  66
1
  70
0
  40
0.8
  41
0.8
  0
VERTEX
  8
Top
  10
38.1275
  20
4.255
  42
0
  0
VERTEX
  8
Top
  10
36.3812
  20
4.255
  42
0
  0
SEQEND
  0
POLYLINE
  8
Top
  6
CONTINUOUS
  66
1
  70
0
  40
0.4
  41
0.4
  0
VERTEX
  8
Top
  10
38.3275
  20
4.255
  42
1
  0
VERTEX
  8
Top
  10
37.9275
  20
4.255
  42
1
  0
VERTEX
  8
Top
  10
38.3275
  20
4.255
  42
1
  0
SEQEND
  0
POLYLINE
  8
Top
  6
CONTINUOUS
  66
1
  70
0
  40
0.4
  41
0.4
  0
VERTEX
  8
Top
  10
36.5812
  20
4.255
  42
1
  0
VERTEX
  8
Top
  10
36.1812
  20
4.255
  42
1
  0
VERTEX
  8
Top
  10
36.5812
  20
4.255
  42
1
  0
SEQEND
  0
POLYLINE
  8
Top
  6
CONTINUOUS
  66
1
  70
0
  40
0.8
  41
0.8
  0
VERTEX
  8
Top
  10
36.3812
  20
4.255
  42
0
  0
VERTEX
  8
Top
  10
34.635
  20
4.255
  42
0
  0
SEQEND
  0
POLYLINE
  8
Top
  6
CONTINUOUS
  66
1
  70
0
  40
0.4
  41
0.4
  0
VERTEX
  8
Top
  10
36.5812
  20
4.255
  42
1
  0
VERTEX
  8
Top
  10
36.1812
  20
4.255
  42
1
  0
VERTEX
  8
Top
  10
36.5812
  20
4.255
  42
1
  0
SEQEND
  0
POLYLINE
  8
Top
  6
CONTINUOUS
  66
1
  70
0
  40
0.4
  41
0.4
  0
VERTEX
  8
Top
  10
34.835
  20
4.255
  42
1
  0
VERTEX
  8
Top
  10
34.435
  20
4.255
  42
1
  0
VERTEX
  8
Top
  10
34.835
  20
4.255
  42
1
  0
SEQEND
  0
POLYLINE
  8
Top
  6
CONTINUOUS
  66
1
  70
0
  40
0.8
  41
0.8
  0
VERTEX
  8
Top
  10
34.635
  20
4.255
  42
0
  0
VERTEX
  8
Top
  10
31.1425
  20
4.255
  42
0
  0
SEQEND
  0
POLYLINE
  8
Top
  6
CONTINUOUS
  66
1
  70
0
  40
0.4
  41
0.4
  0
VERTEX
  8
Top
  10
34.835
  20
4.255
  42
1
  0
VERTEX
  8
Top
  10
34.435
  20
4.255
  42
1
  0
VERTEX
  8
Top
  10
34.835
  20
4.255
  42
1
  0
SEQEND
  0
POLYLINE
  8
Top
  6
CONTINUOUS
  66
1
  70
0
  40
0.4
  41
0.4
  0
VERTEX
  8
Top
  10
31.3425
  20
4.255
  42
1
  0
VERTEX
  8
Top
  10
30.9425
  20
4.255
  42
1
  0
VERTEX
  8
Top
  10
31.3425
  20
4.255
  42
1
  0
SEQEND
  0
POLYLINE
  8
Top
  6
CONTINUOUS
  66
1
  70
0
  40
0.5
  41
0.5
  0
VERTEX
  8
Top
  10
36.5404
  20
10.2875
  42
0
  0
VERTEX
  8
Top
  10
36.3812
  20
10.2875
  42
0
  0
SEQEND
  0
POLYLINE
  8
Top
  6
CONTINUOUS
  66
1
  70
0
  40
0.25
  41
0.25
  0
VERTEX
  8
Top
  10
36.6654
  20
10.2875
  42
1
  0
VERTEX
  8
Top
  10
36.4154
  20
10.2875
  42
1
  0
VERTEX
  8
Top
  10
36.6654
  20
10.2875
  42
1
  0
SEQEND
  0
POLYLINE
  8
Top
  6
CONTINUOUS
  66
1
  70
0
  40
0.25
  41
0.25
  0
VERTEX
  8
Top
  10
36.5062
  20
10.2875
  42
1
  0
VERTEX
  8
Top
  10
36.2562
  20
10.2875
  42
1
  0
VERTEX
  8
Top
  10
36.5062
  20
10.2875
  42
1
  0
SEQEND
  0
POLYLINE
  8
Top
  6
CONTINUOUS
  66
1
  70
0
  40
0.5
  41
0.5
  0
VERTEX
  8
Top
  10
36.3812
  20
10.2875
  42
0
  0
VERTEX
  8
Top
  10
36.3812
  20
4.255
  42
0
  0
SEQEND
  0
POLYLINE
  8
Top
  6
CONTINUOUS
  66
1
  70
0
  40
0.25
  41
0.25
  0
VERTEX
  8
Top
  10
36.5062
  20
10.2875
  42
1
  0
VERTEX
  8
Top
  10
36.2562
  20
10.2875
  42
1
  0
VERTEX
  8
Top
  10
36.5062
  20
10.2875
  42
1
  0
SEQEND
  0
POLYLINE
  8
Top
  6
CONTINUOUS
  66
1
  70
0
  40
0.25
  41
0.25
  0
VERTEX
  8
Top
  10
36.5062
  20
4.255
  42
1
  0
VERTEX
  8
Top
  10
36.2562
  20
4.255
  42
1
  0
VERTEX
  8
Top
  10
36.5062
  20
4.255
  42
1
  0
SEQEND
  0
POLYLINE
  8
Top
  6
CONTINUOUS
  66
1
  70
0
  40
0.8
  41
0.8
  0
VERTEX
  8
Top
  10
9.18
  20
4.5725
  42
0
  0
VERTEX
  8
Top
  10
9.18
  20
5.7875
  42
0
  0
SEQEND
  0
POLYLINE
  8
Top
  6
CONTINUOUS
  66
1
  70
0
  40
0.4
  41
0.4
  0
VERTEX
  8
Top
  10
9.38
  20
4.5725
  42
1
  0
VERTEX
  8
Top
  10
8.98
  20
4.5725
  42
1
  0
VERTEX
  8
Top
  10
9.38
  20
4.5725
  42
1
  0
SEQEND
  0
POLYLINE
  8
Top
  6
CONTINUOUS
  66
1
  70
0
  40
0.4
  41
0.4
  0
VERTEX
  8
Top
  10
9.38
  20
5.7875
  42
1
  0
VERTEX
  8
Top
  10
8.98
  20
5.7875
  42
1
  0
VERTEX
  8
Top
  10
9.38
  20
5.7875
  42
1
  0
SEQEND
  0
POLYLINE
  8
Top
  6
CONTINUOUS
  66
1
  70
0
  40
0.8
  41
0.8
  0
VERTEX
  8
Top
  10
9.18
  20
5.7875
  42
0
  0
VERTEX
  8
Top
  10
11.33
  20
7.9375
  42
0
  0
SEQEND
  0
POLYLINE
  8
Top
  6
CONTINUOUS
  66
1
  70
0
  40
0.4
  41
0.4
  0
VERTEX
  8
Top
  10
9.38
  20
5.7875
  42
1
  0
VERTEX
  8
Top
  10
8.98
  20
5.7875
  42
1
  0
VERTEX
  8
Top
  10
9.38
  20
5.7875
  42
1
  0
SEQEND
  0
POLYLINE
  8
Top
  6
CONTINUOUS
  66
1
  70
0
  40
0.4
  41
0.4
  0
VERTEX
  8
Top
  10
11.53
  20
7.9375
  42
1
  0
VERTEX
  8
Top
  10
11.13
  20
7.9375
  42
1
  0
VERTEX
  8
Top
  10
11.53
  20
7.9375
  42
1
  0
SEQEND
  0
POLYLINE
  8
Top
  6
CONTINUOUS
  66
1
  70
0
  40
0.8
  41
0.8
  0
VERTEX
  8
Top
  10
11.33
  20
7.9375
  42
0
  0
VERTEX
  8
Top
  10
20.32
  20
7.9375
  42
0
  0
SEQEND
  0
POLYLINE
  8
Top
  6
CONTINUOUS
  66
1
  70
0
  40
0.4
  41
0.4
  0
VERTEX
  8
Top
  10
11.53
  20
7.9375
  42
1
  0
VERTEX
  8
Top
  10
11.13
  20
7.9375
  42
1
  0
VERTEX
  8
Top
  10
11.53
  20
7.9375
  42
1
  0
SEQEND
  0
POLYLINE
  8
Top
  6
CONTINUOUS
  66
1
  70
0
  40
0.4
  41
0.4
  0
VERTEX
  8
Top
  10
20.52
  20
7.9375
  42
1
  0
VERTEX
  8
Top
  10
20.12
  20
7.9375
  42
1
  0
VERTEX
  8
Top
  10
20.52
  20
7.9375
  42
1
  0
SEQEND
  0
POLYLINE
  8
Top
  6
CONTINUOUS
  66
1
  70
0
  40
0.8
  41
0.8
  0
VERTEX
  8
Top
  10
20.32
  20
7.9375
  42
0
  0
VERTEX
  8
Top
  10
23.685
  20
4.5725
  42
0
  0
SEQEND
  0
POLYLINE
  8
Top
  6
CONTINUOUS
  66
1
  70
0
  40
0.4
  41
0.4
  0
VERTEX
  8
Top
  10
20.52
  20
7.9375
  42
1
  0
VERTEX
  8
Top
  10
20.12
  20
7.9375
  42
1
  0
VERTEX
  8
Top
  10
20.52
  20
7.9375
  42
1
  0
SEQEND
  0
POLYLINE
  8
Top
  6
CONTINUOUS
  66
1
  70
0
  40
0.4
  41
0.4
  0
VERTEX
  8
Top
  10
23.885
  20
4.5725
  42
1
  0
VERTEX
  8
Top
  10
23.485
  20
4.5725
  42
1
  0
VERTEX
  8
Top
  10
23.885
  20
4.5725
  42
1
  0
SEQEND
  0
POLYLINE
  8
Top
  6
CONTINUOUS
  66
1
  70
0
  40
0.8
  41
0.8
  0
VERTEX
  8
Top
  10
23.685
  20
4.5725
  42
0
  0
VERTEX
  8
Top
  10
23.4675
  20
4.5725
  42
0
  0
SEQEND
  0
POLYLINE
  8
Top
  6
CONTINUOUS
  66
1
  70
0
  40
0.4
  41
0.4
  0
VERTEX
  8
Top
  10
23.885
  20
4.5725
  42
1
  0
VERTEX
  8
Top
  10
23.485
  20
4.5725
  42
1
  0
VERTEX
  8
Top
  10
23.885
  20
4.5725
  42
1
  0
SEQEND
  0
POLYLINE
  8
Top
  6
CONTINUOUS
  66
1
  70
0
  40
0.4
  41
0.4
  0
VERTEX
  8
Top
  10
23.6675
  20
4.5725
  42
1
  0
VERTEX
  8
Top
  10
23.2675
  20
4.5725
  42
1
  0
VERTEX
  8
Top
  10
23.6675
  20
4.5725
  42
1
  0
SEQEND
  0
POLYLINE
  8
Top
  6
CONTINUOUS
  66
1
  70
0
  40
0.8
  41
0.8
  0
VERTEX
  8
Top
  10
41.2475
  20
4.5725
  42
0
  0
VERTEX
  8
Top
  10
38.445
  20
4.5725
  42
0
  0
SEQEND
  0
POLYLINE
  8
Top
  6
CONTINUOUS
  66
1
  70
0
  40
0.4
  41
0.4
  0
VERTEX
  8
Top
  10
41.4475
  20
4.5725
  42
1
  0
VERTEX
  8
Top
  10
41.0475
  20
4.5725
  42
1
  0
VERTEX
  8
Top
  10
41.4475
  20
4.5725
  42
1
  0
SEQEND
  0
POLYLINE
  8
Top
  6
CONTINUOUS
  66
1
  70
0
  40
0.4
  41
0.4
  0
VERTEX
  8
Top
  10
38.645
  20
4.5725
  42
1
  0
VERTEX
  8
Top
  10
38.245
  20
4.5725
  42
1
  0
VERTEX
  8
Top
  10
38.645
  20
4.5725
  42
1
  0
SEQEND
  0
POLYLINE
  8
Top
  6
CONTINUOUS
  66
1
  70
0
  40
0.8
  41
0.8
  0
VERTEX
  8
Top
  10
38.445
  20
4.5725
  42
0
  0
VERTEX
  8
Top
  10
38.1275
  20
4.255
  42
0
  0
SEQEND
  0
POLYLINE
  8
Top
  6
CONTINUOUS
  66
1
  70
0
  40
0.4
  41
0.4
  0
VERTEX
  8
Top
  10
38.645
  20
4.5725
  42
1
  0
VERTEX
  8
Top
  10
38.245
  20
4.5725
  42
1
  0
VERTEX
  8
Top
  10
38.645
  20
4.5725
  42
1
  0
SEQEND
  0
POLYLINE
  8
Top
  6
CONTINUOUS
  66
1
  70
0
  40
0.4
  41
0.4
  0
VERTEX
  8
Top
  10
38.3275
  20
4.255
  42
1
  0
VERTEX
  8
Top
  10
37.9275
  20
4.255
  42
1
  0
VERTEX
  8
Top
  10
38.3275
  20
4.255
  42
1
  0
SEQEND
  0
POLYLINE
  8
Top
  6
CONTINUOUS
  66
1
  70
0
  40
0.8
  41
0.8
  0
VERTEX
  8
Top
  10
41.2475
  20
12.5725
  42
0
  0
VERTEX
  8
Top
  10
41.2475
  20
16.32
  42
0
  0
SEQEND
  0
POLYLINE
  8
Top
  6
CONTINUOUS
  66
1
  70
0
  40
0.4
  41
0.4
  0
VERTEX
  8
Top
  10
41.4475
  20
12.5725
  42
1
  0
VERTEX
  8
Top
  10
41.0475
  20
12.5725
  42
1
  0
VERTEX
  8
Top
  10
41.4475
  20
12.5725
  42
1
  0
SEQEND
  0
POLYLINE
  8
Top
  6
CONTINUOUS
  66
1
  70
0
  40
0.4
  41
0.4
  0
VERTEX
  8
Top
  10
41.4475
  20
16.32
  42
1
  0
VERTEX
  8
Top
  10
41.0475
  20
16.32
  42
1
  0
VERTEX
  8
Top
  10
41.4475
  20
16.32
  42
1
  0
SEQEND
  0
POLYLINE
  8
Top
  6
CONTINUOUS
  66
1
  70
0
  40
0.8
  41
0.8
  0
VERTEX
  8
Top
  10
41.2475
  20
16.32
  42
0
  0
VERTEX
  8
Top
  10
23.4675
  20
16.32
  42
0
  0
SEQEND
  0
POLYLINE
  8
Top
  6
CONTINUOUS
  66
1
  70
0
  40
0.4
  41
0.4
  0
VERTEX
  8
Top
  10
41.4475
  20
16.32
  42
1
  0
VERTEX
  8
Top
  10
41.0475
  20
16.32
  42
1
  0
VERTEX
  8
Top
  10
41.4475
  20
16.32
  42
1
  0
SEQEND
  0
POLYLINE
  8
Top
  6
CONTINUOUS
  66
1
  70
0
  40
0.4
  41
0.4
  0
VERTEX
  8
Top
  10
23.6675
  20
16.32
  42
1
  0
VERTEX
  8
Top
  10
23.2675
  20
16.32
  42
1
  0
VERTEX
  8
Top
  10
23.6675
  20
16.32
  42
1
  0
SEQEND
  0
POLYLINE
  8
Top
  6
CONTINUOUS
  66
1
  70
0
  40
0.8
  41
0.8
  0
VERTEX
  8
Top
  10
23.4675
  20
16.32
  42
0
  0
VERTEX
  8
Top
  10
23.4675
  20
12.5725
  42
0
  0
SEQEND
  0
POLYLINE
  8
Top
  6
CONTINUOUS
  66
1
  70
0
  40
0.4
  41
0.4
  0
VERTEX
  8
Top
  10
23.6675
  20
16.32
  42
1
  0
VERTEX
  8
Top
  10
23.2675
  20
16.32
  42
1
  0
VERTEX
  8
Top
  10
23.6675
  20
16.32
  42
1
  0
SEQEND
  0
POLYLINE
  8
Top
  6
CONTINUOUS
  66
1
  70
0
  40
0.4
  41
0.4
  0
VERTEX
  8
Top
  10
23.6675
  20
12.5725
  42
1
  0
VERTEX
  8
Top
  10
23.2675
  20
12.5725
  42
1
  0
VERTEX
  8
Top
  10
23.6675
  20
12.5725
  42
1
  0
SEQEND
  0
POLYLINE
  8
Top
  6
CONTINUOUS
  66
1
  70
0
  40
0.8
  41
0.8
  0
VERTEX
  8
Top
  10
55.8525
  20
12.5725
  42
0
  0
VERTEX
  8
Top
  10
55.8525
  20
15.74
  42
0
  0
SEQEND
  0
POLYLINE
  8
Top
  6
CONTINUOUS
  66
1
  70
0
  40
0.4
  41
0.4
  0
VERTEX
  8
Top
  10
56.0525
  20
12.5725
  42
1
  0
VERTEX
  8
Top
  10
55.6525
  20
12.5725
  42
1
  0
VERTEX
  8
Top
  10
56.0525
  20
12.5725
  42
1
  0
SEQEND
  0
POLYLINE
  8
Top
  6
CONTINUOUS
  66
1
  70
0
  40
0.4
  41
0.4
  0
VERTEX
  8
Top
  10
56.0525
  20
15.74
  42
1
  0
VERTEX
  8
Top
  10
55.6525
  20
15.74
  42
1
  0
VERTEX
  8
Top
  10
56.0525
  20
15.74
  42
1
  0
SEQEND
  0
POLYLINE
  8
Top
  6
CONTINUOUS
  66
1
  70
0
  40
0.8
  41
0.8
  0
VERTEX
  8
Top
  10
55.8525
  20
15.74
  42
0
  0
VERTEX
  8
Top
  10
55.2725
  20
16.32
  42
0
  0
SEQEND
  0
POLYLINE
  8
Top
  6
CONTINUOUS
  66
1
  70
0
  40
0.4
  41
0.4
  0
VERTEX
  8
Top
  10
56.0525
  20
15.74
  42
1
  0
VERTEX
  8
Top
  10
55.6525
  20
15.74
  42
1
  0
VERTEX
  8
Top
  10
56.0525
  20
15.74
  42
1
  0
SEQEND
  0
POLYLINE
  8
Top
  6
CONTINUOUS
  66
1
  70
0
  40
0.4
  41
0.4
  0
VERTEX
  8
Top
  10
55.4725
  20
16.32
  42
1
  0
VERTEX
  8
Top
  10
55.0725
  20
16.32
  42
1
  0
VERTEX
  8
Top
  10
55.4725
  20
16.32
  42
1
  0
SEQEND
  0
POLYLINE
  8
Top
  6
CONTINUOUS
  66
1
  70
0
  40
0.8
  41
0.8
  0
VERTEX
  8
Top
  10
55.2725
  20
16.32
  42
0
  0
VERTEX
  8
Top
  10
41.2475
  20
16.32
  42
0
  0
SEQEND
  0
POLYLINE
  8
Top
  6
CONTINUOUS
  66
1
  70
0
  40
0.4
  41
0.4
  0
VERTEX
  8
Top
  10
55.4725
  20
16.32
  42
1
  0
VERTEX
  8
Top
  10
55.0725
  20
16.32
  42
1
  0
VERTEX
  8
Top
  10
55.4725
  20
16.32
  42
1
  0
SEQEND
  0
POLYLINE
  8
Top
  6
CONTINUOUS
  66
1
  70
0
  40
0.4
  41
0.4
  0
VERTEX
  8
Top
  10
41.4475
  20
16.32
  42
1
  0
VERTEX
  8
Top
  10
41.0475
  20
16.32
  42
1
  0
VERTEX
  8
Top
  10
41.4475
  20
16.32
  42
1
  0
SEQEND
  0
POLYLINE
  8
Top
  6
CONTINUOUS
  66
1
  70
0
  40
0.8
  41
0.8
  0
VERTEX
  8
Top
  10
23.4675
  20
16.32
  42
0
  0
VERTEX
  8
Top
  10
15.9025
  20
16.32
  42
0
  0
SEQEND
  0
POLYLINE
  8
Top
  6
CONTINUOUS
  66
1
  70
0
  40
0.4
  41
0.4
  0
VERTEX
  8
Top
  10
23.6675
  20
16.32
  42
1
  0
VERTEX
  8
Top
  10
23.2675
  20
16.32
  42
1
  0
VERTEX
  8
Top
  10
23.6675
  20
16.32
  42
1
  0
SEQEND
  0
POLYLINE
  8
Top
  6
CONTINUOUS
  66
1
  70
0
  40
0.4
  41
0.4
  0
VERTEX
  8
Top
  10
16.1025
  20
16.32
  42
1
  0
VERTEX
  8
Top
  10
15.7025
  20
16.32
  42
1
  0
VERTEX
  8
Top
  10
16.1025
  20
16.32
  42
1
  0
SEQEND
  0
POLYLINE
  8
Top
  6
CONTINUOUS
  66
1
  70
0
  40
0.8
  41
0.8
  0
VERTEX
  8
Top
  10
15.9025
  20
16.32
  42
0
  0
VERTEX
  8
Top
  10
15.9025
  20
14.0975
  42
0
  0
SEQEND
  0
POLYLINE
  8
Top
  6
CONTINUOUS
  66
1
  70
0
  40
0.4
  41
0.4
  0
VERTEX
  8
Top
  10
16.1025
  20
16.32
  42
1
  0
VERTEX
  8
Top
  10
15.7025
  20
16.32
  42
1
  0
VERTEX
  8
Top
  10
16.1025
  20
16.32
  42
1
  0
SEQEND
  0
POLYLINE
  8
Top
  6
CONTINUOUS
  66
1
  70
0
  40
0.4
  41
0.4
  0
VERTEX
  8
Top
  10
16.1025
  20
14.0975
  42
1
  0
VERTEX
  8
Top
  10
15.7025
  20
14.0975
  42
1
  0
VERTEX
  8
Top
  10
16.1025
  20
14.0975
  42
1
  0
SEQEND
  0
POLYLINE
  8
Top
  6
CONTINUOUS
  66
1
  70
0
  40
0.8
  41
0.8
  0
VERTEX
  8
Top
  10
15.9025
  20
16.32
  42
0
  0
VERTEX
  8
Top
  10
12.1925
  20
16.32
  42
0
  0
SEQEND
  0
POLYLINE
  8
Top
  6
CONTINUOUS
  66
1
  70
0
  40
0.4
  41
0.4
  0
VERTEX
  8
Top
  10
16.1025
  20
16.32
  42
1
  0
VERTEX
  8
Top
  10
15.7025
  20
16.32
  42
1
  0
VERTEX
  8
Top
  10
16.1025
  20
16.32
  42
1
  0
SEQEND
  0
POLYLINE
  8
Top
  6
CONTINUOUS
  66
1
  70
0
  40
0.4
  41
0.4
  0
VERTEX
  8
Top
  10
12.3925
  20
16.32
  42
1
  0
VERTEX
  8
Top
  10
11.9925
  20
16.32
  42
1
  0
VERTEX
  8
Top
  10
12.3925
  20
16.32
  42
1
  0
SEQEND
  0
POLYLINE
  8
Top
  6
CONTINUOUS
  66
1
  70
0
  40
0.8
  41
0.8
  0
VERTEX
  8
Top
  10
12.1925
  20
16.32
  42
0
  0
VERTEX
  8
Top
  10
9.18
  20
13.3075
  42
0
  0
SEQEND
  0
POLYLINE
  8
Top
  6
CONTINUOUS
  66
1
  70
0
  40
0.4
  41
0.4
  0
VERTEX
  8
Top
  10
12.3925
  20
16.32
  42
1
  0
VERTEX
  8
Top
  10
11.9925
  20
16.32
  42
1
  0
VERTEX
  8
Top
  10
12.3925
  20
16.32
  42
1
  0
SEQEND
  0
POLYLINE
  8
Top
  6
CONTINUOUS
  66
1
  70
0
  40
0.4
  41
0.4
  0
VERTEX
  8
Top
  10
9.38
  20
13.3075
  42
1
  0
VERTEX
  8
Top
  10
8.98
  20
13.3075
  42
1
  0
VERTEX
  8
Top
  10
9.38
  20
13.3075
  42
1
  0
SEQEND
  0
POLYLINE
  8
Top
  6
CONTINUOUS
  66
1
  70
0
  40
0.8
  41
0.8
  0
VERTEX
  8
Top
  10
9.18
  20
13.3075
  42
0
  0
VERTEX
  8
Top
  10
9.18
  20
12.5725
  42
0
  0
SEQEND
  0
POLYLINE
  8
Top
  6
CONTINUOUS
  66
1
  70
0
  40
0.4
  41
0.4
  0
VERTEX
  8
Top
  10
9.38
  20
13.3075
  42
1
  0
VERTEX
  8
Top
  10
8.98
  20
13.3075
  42
1
  0
VERTEX
  8
Top
  10
9.38
  20
13.3075
  42
1
  0
SEQEND
  0
POLYLINE
  8
Top
  6
CONTINUOUS
  66
1
  70
0
  40
0.4
  41
0.4
  0
VERTEX
  8
Top
  10
9.38
  20
12.5725
  42
1
  0
VERTEX
  8
Top
  10
8.98
  20
12.5725
  42
1
  0
VERTEX
  8
Top
  10
9.38
  20
12.5725
  42
1
  0
SEQEND
  0
POLYLINE
  8
Top
  6
CONTINUOUS
  66
1
  70
0
  40
0.8
  41
0.8
  0
VERTEX
  8
Top
  10
48.2875
  20
14.0975
  42
0
  0
VERTEX
  8
Top
  10
48.2875
  20
9.335
  42
0
  0
SEQEND
  0
POLYLINE
  8
Top
  6
CONTINUOUS
  66
1
  70
0
  40
0.4
  41
0.4
  0
VERTEX
  8
Top
  10
48.4875
  20
14.0975
  42
1
  0
VERTEX
  8
Top
  10
48.0875
  20
14.0975
  42
1
  0
VERTEX
  8
Top
  10
48.4875
  20
14.0975
  42
1
  0
SEQEND
  0
POLYLINE
  8
Top
  6
CONTINUOUS
  66
1
  70
0
  40
0.4
  41
0.4
  0
VERTEX
  8
Top
  10
48.4875
  20
9.335
  42
1
  0
VERTEX
  8
Top
  10
48.0875
  20
9.335
  42
1
  0
VERTEX
  8
Top
  10
48.4875
  20
9.335
  42
1
  0
SEQEND
  0
POLYLINE
  8
Top
  6
CONTINUOUS
  66
1
  70
0
  40
0.8
  41
0.8
  0
VERTEX
  8
Top
  10
48.2875
  20
9.335
  42
0
  0
VERTEX
  8
Top
  10
47.0175
  20
8.065
  42
0
  0
SEQEND
  0
POLYLINE
  8
Top
  6
CONTINUOUS
  66
1
  70
0
  40
0.4
  41
0.4
  0
VERTEX
  8
Top
  10
48.4875
  20
9.335
  42
1
  0
VERTEX
  8
Top
  10
48.0875
  20
9.335
  42
1
  0
VERTEX
  8
Top
  10
48.4875
  20
9.335
  42
1
  0
SEQEND
  0
POLYLINE
  8
Top
  6
CONTINUOUS
  66
1
  70
0
  40
0.4
  41
0.4
  0
VERTEX
  8
Top
  10
47.2175
  20
8.065
  42
1
  0
VERTEX
  8
Top
  10
46.8175
  20
8.065
  42
1
  0
VERTEX
  8
Top
  10
47.2175
  20
8.065
  42
1
  0
SEQEND
  0
POLYLINE
  8
Top
  6
CONTINUOUS
  66
1
  70
0
  40
0.8
  41
0.8
  0
VERTEX
  8
Top
  10
47.0175
  20
8.065
  42
0
  0
VERTEX
  8
Top
  10
38.444
  20
8.065
  42
0
  0
SEQEND
  0
POLYLINE
  8
Top
  6
CONTINUOUS
  66
1
  70
0
  40
0.4
  41
0.4
  0
VERTEX
  8
Top
  10
47.2175
  20
8.065
  42
1
  0
VERTEX
  8
Top
  10
46.8175
  20
8.065
  42
1
  0
VERTEX
  8
Top
  10
47.2175
  20
8.065
  42
1
  0
SEQEND
  0
POLYLINE
  8
Top
  6
CONTINUOUS
  66
1
  70
0
  40
0.4
  41
0.4
  0
VERTEX
  8
Top
  10
38.644
  20
8.065
  42
1
  0
VERTEX
  8
Top
  10
38.244
  20
8.065
  42
1
  0
VERTEX
  8
Top
  10
38.644
  20
8.065
  42
1
  0
SEQEND
  0
POLYLINE
  8
Top
  6
CONTINUOUS
  66
1
  70
0
  40
0.8
  41
0.8
  0
VERTEX
  8
Top
  10
38.444
  20
8.065
  42
0
  0
VERTEX
  8
Top
  10
38.1275
  20
7.7485
  42
0
  0
SEQEND
  0
POLYLINE
  8
Top
  6
CONTINUOUS
  66
1
  70
0
  40
0.4
  41
0.4
  0
VERTEX
  8
Top
  10
38.644
  20
8.065
  42
1
  0
VERTEX
  8
Top
  10
38.244
  20
8.065
  42
1
  0
VERTEX
  8
Top
  10
38.644
  20
8.065
  42
1
  0
SEQEND
  0
POLYLINE
  8
Top
  6
CONTINUOUS
  66
1
  70
0
  40
0.4
  41
0.4
  0
VERTEX
  8
Top
  10
38.3275
  20
7.7485
  42
1
  0
VERTEX
  8
Top
  10
37.9275
  20
7.7485
  42
1
  0
VERTEX
  8
Top
  10
38.3275
  20
7.7485
  42
1
  0
SEQEND
  0
POLYLINE
  8
Top
  6
CONTINUOUS
  66
1
  70
0
  40
0.45
  41
0.45
  0
VERTEX
  8
Top
  10
34.635
  20
7.7485
  42
0
  0
VERTEX
  8
Top
  10
34.7938
  20
7.7485
  42
0
  0
SEQEND
  0
POLYLINE
  8
Top
  6
CONTINUOUS
  66
1
  70
0
  40
0.225
  41
0.225
  0
VERTEX
  8
Top
  10
34.7475
  20
7.7485
  42
1
  0
VERTEX
  8
Top
  10
34.5225
  20
7.7485
  42
1
  0
VERTEX
  8
Top
  10
34.7475
  20
7.7485
  42
1
  0
SEQEND
  0
POLYLINE
  8
Top
  6
CONTINUOUS
  66
1
  70
0
  40
0.225
  41
0.225
  0
VERTEX
  8
Top
  10
34.9063
  20
7.7485
  42
1
  0
VERTEX
  8
Top
  10
34.6813
  20
7.7485
  42
1
  0
VERTEX
  8
Top
  10
34.9063
  20
7.7485
  42
1
  0
SEQEND
  0
POLYLINE
  8
Top
  6
CONTINUOUS
  66
1
  70
0
  40
0.45
  41
0.45
  0
VERTEX
  8
Top
  10
34.7938
  20
7.7485
  42
0
  0
VERTEX
  8
Top
  10
34.7938
  20
11.5575
  42
0
  0
SEQEND
  0
POLYLINE
  8
Top
  6
CONTINUOUS
  66
1
  70
0
  40
0.225
  41
0.225
  0
VERTEX
  8
Top
  10
34.9063
  20
7.7485
  42
1
  0
VERTEX
  8
Top
  10
34.6813
  20
7.7485
  42
1
  0
VERTEX
  8
Top
  10
34.9063
  20
7.7485
  42
1
  0
SEQEND
  0
POLYLINE
  8
Top
  6
CONTINUOUS
  66
1
  70
0
  40
0.225
  41
0.225
  0
VERTEX
  8
Top
  10
34.9063
  20
11.5575
  42
1
  0
VERTEX
  8
Top
  10
34.6813
  20
11.5575
  42
1
  0
VERTEX
  8
Top
  10
34.9063
  20
11.5575
  42
1
  0
SEQEND
  0
POLYLINE
  8
Top
  6
CONTINUOUS
  66
1
  70
0
  40
0.45
  41
0.45
  0
VERTEX
  8
Top
  10
34.7938
  20
11.5575
  42
0
  0
VERTEX
  8
Top
  10
37.1792
  20
13.9429
  42
0
  0
SEQEND
  0
POLYLINE
  8
Top
  6
CONTINUOUS
  66
1
  70
0
  40
0.225
  41
0.225
  0
VERTEX
  8
Top
  10
34.9063
  20
11.5575
  42
1
  0
VERTEX
  8
Top
  10
34.6813
  20
11.5575
  42
1
  0
VERTEX
  8
Top
  10
34.9063
  20
11.5575
  42
1
  0
SEQEND
  0
POLYLINE
  8
Top
  6
CONTINUOUS
  66
1
  70
0
  40
0.225
  41
0.225
  0
VERTEX
  8
Top
  10
37.2917
  20
13.9429
  42
1
  0
VERTEX
  8
Top
  10
37.0667
  20
13.9429
  42
1
  0
VERTEX
  8
Top
  10
37.2917
  20
13.9429
  42
1
  0
SEQEND
  0
POLYLINE
  8
Top
  6
CONTINUOUS
  66
1
  70
0
  40
0.45
  41
0.45
  0
VERTEX
  8
Top
  10
37.1792
  20
13.9429
  42
0
  0
VERTEX
  8
Top
  10
37.1792
  20
14.0997
  42
0
  0
SEQEND
  0
POLYLINE
  8
Top
  6
CONTINUOUS
  66
1
  70
0
  40
0.225
  41
0.225
  0
VERTEX
  8
Top
  10
37.2917
  20
13.9429
  42
1
  0
VERTEX
  8
Top
  10
37.0667
  20
13.9429
  42
1
  0
VERTEX
  8
Top
  10
37.2917
  20
13.9429
  42
1
  0
SEQEND
  0
POLYLINE
  8
Top
  6
CONTINUOUS
  66
1
  70
0
  40
0.225
  41
0.225
  0
VERTEX
  8
Top
  10
37.2917
  20
14.0997
  42
1
  0
VERTEX
  8
Top
  10
37.0667
  20
14.0997
  42
1
  0
VERTEX
  8
Top
  10
37.2917
  20
14.0997
  42
1
  0
SEQEND
  0
POLYLINE
  8
Top
  6
CONTINUOUS
  66
1
  70
0
  40
0.45
  41
0.45
  0
VERTEX
  8
Top
  10
32.0992
  20
14.0997
  42
0
  0
VERTEX
  8
Top
  10
30.825
  20
12.8255
  42
0
  0
SEQEND
  0
POLYLINE
  8
Top
  6
CONTINUOUS
  66
1
  70
0
  40
0.225
  41
0.225
  0
VERTEX
  8
Top
  10
32.2117
  20
14.0997
  42
1
  0
VERTEX
  8
Top
  10
31.9867
  20
14.0997
  42
1
  0
VERTEX
  8
Top
  10
32.2117
  20
14.0997
  42
1
  0
SEQEND
  0
POLYLINE
  8
Top
  6
CONTINUOUS
  66
1
  70
0
  40
0.225
  41
0.225
  0
VERTEX
  8
Top
  10
30.9375
  20
12.8255
  42
1
  0
VERTEX
  8
Top
  10
30.7125
  20
12.8255
  42
1
  0
VERTEX
  8
Top
  10
30.9375
  20
12.8255
  42
1
  0
SEQEND
  0
POLYLINE
  8
Top
  6
CONTINUOUS
  66
1
  70
0
  40
0.45
  41
0.45
  0
VERTEX
  8
Top
  10
30.825
  20
12.8255
  42
0
  0
VERTEX
  8
Top
  10
30.825
  20
8.066
  42
0
  0
SEQEND
  0
POLYLINE
  8
Top
  6
CONTINUOUS
  66
1
  70
0
  40
0.225
  41
0.225
  0
VERTEX
  8
Top
  10
30.9375
  20
12.8255
  42
1
  0
VERTEX
  8
Top
  10
30.7125
  20
12.8255
  42
1
  0
VERTEX
  8
Top
  10
30.9375
  20
12.8255
  42
1
  0
SEQEND
  0
POLYLINE
  8
Top
  6
CONTINUOUS
  66
1
  70
0
  40
0.225
  41
0.225
  0
VERTEX
  8
Top
  10
30.9375
  20
8.066
  42
1
  0
VERTEX
  8
Top
  10
30.7125
  20
8.066
  42
1
  0
VERTEX
  8
Top
  10
30.9375
  20
8.066
  42
1
  0
SEQEND
  0
POLYLINE
  8
Top
  6
CONTINUOUS
  66
1
  70
0
  40
0.45
  41
0.45
  0
VERTEX
  8
Top
  10
30.825
  20
8.066
  42
0
  0
VERTEX
  8
Top
  10
31.1425
  20
7.7485
  42
0
  0
SEQEND
  0
POLYLINE
  8
Top
  6
CONTINUOUS
  66
1
  70
0
  40
0.225
  41
0.225
  0
VERTEX
  8
Top
  10
30.9375
  20
8.066
  42
1
  0
VERTEX
  8
Top
  10
30.7125
  20
8.066
  42
1
  0
VERTEX
  8
Top
  10
30.9375
  20
8.066
  42
1
  0
SEQEND
  0
POLYLINE
  8
Top
  6
CONTINUOUS
  66
1
  70
0
  40
0.225
  41
0.225
  0
VERTEX
  8
Top
  10
31.255
  20
7.7485
  42
1
  0
VERTEX
  8
Top
  10
31.03
  20
7.7485
  42
1
  0
VERTEX
  8
Top
  10
31.255
  20
7.7485
  42
1
  0
SEQEND
  0
POLYLINE
  8
Top
  6
CONTINUOUS
  66
1
  70
0
  40
0.45
  41
0.45
  0
VERTEX
  8
Top
  10
34.6392
  20
14.0997
  42
0
  0
VERTEX
  8
Top
  10
34.6392
  20
13.7842
  42
0
  0
SEQEND
  0
POLYLINE
  8
Top
  6
CONTINUOUS
  66
1
  70
0
  40
0.225
  41
0.225
  0
VERTEX
  8
Top
  10
34.7517
  20
14.0997
  42
1
  0
VERTEX
  8
Top
  10
34.5267
  20
14.0997
  42
1
  0
VERTEX
  8
Top
  10
34.7517
  20
14.0997
  42
1
  0
SEQEND
  0
POLYLINE
  8
Top
  6
CONTINUOUS
  66
1
  70
0
  40
0.225
  41
0.225
  0
VERTEX
  8
Top
  10
34.7517
  20
13.7842
  42
1
  0
VERTEX
  8
Top
  10
34.5267
  20
13.7842
  42
1
  0
VERTEX
  8
Top
  10
34.7517
  20
13.7842
  42
1
  0
SEQEND
  0
POLYLINE
  8
Top
  6
CONTINUOUS
  66
1
  70
0
  40
0.45
  41
0.45
  0
VERTEX
  8
Top
  10
34.6392
  20
13.7842
  42
0
  0
VERTEX
  8
Top
  10
33.0475
  20
12.1925
  42
0
  0
SEQEND
  0
POLYLINE
  8
Top
  6
CONTINUOUS
  66
1
  70
0
  40
0.225
  41
0.225
  0
VERTEX
  8
Top
  10
34.7517
  20
13.7842
  42
1
  0
VERTEX
  8
Top
  10
34.5267
  20
13.7842
  42
1
  0
VERTEX
  8
Top
  10
34.7517
  20
13.7842
  42
1
  0
SEQEND
  0
POLYLINE
  8
Top
  6
CONTINUOUS
  66
1
  70
0
  40
0.225
  41
0.225
  0
VERTEX
  8
Top
  10
33.16
  20
12.1925
  42
1
  0
VERTEX
  8
Top
  10
32.935
  20
12.1925
  42
1
  0
VERTEX
  8
Top
  10
33.16
  20
12.1925
  42
1
  0
SEQEND
  0
POLYLINE
  8
Top
  6
CONTINUOUS
  66
1
  70
0
  40
0.45
  41
0.45
  0
VERTEX
  8
Top
  10
33.0475
  20
12.1925
  42
0
  0
VERTEX
  8
Top
  10
33.0475
  20
10.288
  42
0
  0
SEQEND
  0
POLYLINE
  8
Top
  6
CONTINUOUS
  66
1
  70
0
  40
0.225
  41
0.225
  0
VERTEX
  8
Top
  10
33.16
  20
12.1925
  42
1
  0
VERTEX
  8
Top
  10
32.935
  20
12.1925
  42
1
  0
VERTEX
  8
Top
  10
33.16
  20
12.1925
  42
1
  0
SEQEND
  0
POLYLINE
  8
Top
  6
CONTINUOUS
  66
1
  70
0
  40
0.225
  41
0.225
  0
VERTEX
  8
Top
  10
33.16
  20
10.288
  42
1
  0
VERTEX
  8
Top
  10
32.935
  20
10.288
  42
1
  0
VERTEX
  8
Top
  10
33.16
  20
10.288
  42
1
  0
SEQEND
  0
POLYLINE
  8
Top
  6
CONTINUOUS
  66
1
  70
0
  40
0.45
  41
0.45
  0
VERTEX
  8
Top
  10
33.0475
  20
10.288
  42
0
  0
VERTEX
  8
Top
  10
33.047
  20
10.2875
  42
0
  0
SEQEND
  0
POLYLINE
  8
Top
  6
CONTINUOUS
  66
1
  70
0
  40
0.225
  41
0.225
  0
VERTEX
  8
Top
  10
33.16
  20
10.288
  42
1
  0
VERTEX
  8
Top
  10
32.935
  20
10.288
  42
1
  0
VERTEX
  8
Top
  10
33.16
  20
10.288
  42
1
  0
SEQEND
  0
CIRCLE
  8
Drill_Top
  10
53.3675
  20
14.0975
  40
0.25
  0
CIRCLE
  8
Drill_Top
  10
50.8275
  20
14.0975
  40
0.25
  0
CIRCLE
  8
Drill_Top
  10
48.2875
  20
14.0975
  40
0.25
  0
CIRCLE
  8
Drill_Top
  10
37.1792
  20
14.0997
  40
0.25
  0
CIRCLE
  8
Drill_Top
  10
34.6392
  20
14.0997
  40
0.25
  0
CIRCLE
  8
Drill_Top
  10
32.0992
  20
14.0997
  40
0.25
  0
CIRCLE
  8
Drill_Top
  10
20.9825
  20
14.0975
  40
0.25
  0
CIRCLE
  8
Drill_Top
  10
18.4425
  20
14.0975
  40
0.25
  0
CIRCLE
  8
Drill_Top
  10
15.9025
  20
14.0975
  40
0.25
  0
CIRCLE
  8
Drill_Top
  10
65.0875
  20
8.5725
  40
1.5
  0
CIRCLE
  8
Drill_Top
  10
4.445
  20
8.5725
  40
1.5
  0
POLYLINE
  8
Board_Outline
  6
CONTINUOUS
  66
1
  70
0
  40
0.14
  41
0.14
  0
VERTEX
  8
Board_Outline
  10
69.5325
  20
17.145
  42
0
  0
VERTEX
  8
Board_Outline
  10
69.5325
  20
0.0
  42
0
  0
VERTEX
  8
Board_Outline
  10
0.0
  20
0.0
  42
0
  0
VERTEX
  8
Board_Outline
  10
0.0
  20
17.145
  42
0
  0
VERTEX
  8
Board_Outline
  10
69.5325
  20
17.145
  42
0
  0
SEQEND
  0
ENDSEC
  0
EOF
