  0
SECTION
  2
HEADER
  9
$ACADVER
  1
AC1009
  9
$ANGDIR
  70
0
  9
$CECOLOR
  62
256
  9
$CELTYPE
  6
BYLAYER
  9
$EXTMIN
  10
0.0
  20
0.0
  9
$EXTMAX
  10
49.2177
  20
39.0566
  9
$FILLMODE
  70
1
  9
$MIRRTEXT
  70
1
  0
ENDSEC
  0
SECTION
  2
TABLES
  0
TABLE
  2
LAYER
  70
17
  0
LAYER
  2
Top
  70
64
  62
5
  6
CONTINUOUS
  0
LAYER
  2
Drill_Top
  70
64
  62
7
  6
CONTINUOUS
  0
LAYER
  2
Board_Outline
  70
64
  62
13
  6
CONTINUOUS
  0
ENDTAB
  0
ENDSEC
  0
SECTION
  2
ENTITIES
  0
POLYLINE
  8
Top
  6
CONTINUOUS
  66
1
  70
0
  40
0.0
  41
0.0
  0
VERTEX
  8
Top
  10
4.1718
  20
22.5975
  42
0
  0
VERTEX
  8
Top
  10
5.6718
  20
22.5975
  42
0
  0
VERTEX
  8
Top
  10
5.6718
  20
24.3975
  42
0
  0
VERTEX
  8
Top
  10
4.1718
  20
24.3975
  42
0
  0
VERTEX
  8
Top
  10
4.1718
  20
22.5975
  42
0
  0
SEQEND
  0
POLYLINE
  8
Top
  6
CONTINUOUS
  66
1
  70
0
  40
0.0
  41
0.0
  0
VERTEX
  8
Top
  10
0.6783
  20
22.5975
  42
0
  0
VERTEX
  8
Top
  10
2.1783
  20
22.5975
  42
0
  0
VERTEX
  8
Top
  10
2.1783
  20
24.3975
  42
0
  0
VERTEX
  8
Top
  10
0.6783
  20
24.3975
  42
0
  0
VERTEX
  8
Top
  10
0.6783
  20
22.5975
  42
0
  0
SEQEND
  0
POLYLINE
  8
Top
  6
CONTINUOUS
  66
1
  70
0
  40
0.0
  41
0.0
  0
VERTEX
  8
Top
  10
14.0775
  20
19.9492
  42
0
  0
VERTEX
  8
Top
  10
15.1382
  20
21.0099
  42
0
  0
VERTEX
  8
Top
  10
13.8654
  20
22.2827
  42
0
  0
VERTEX
  8
Top
  10
12.8047
  20
21.222
  42
0
  0
VERTEX
  8
Top
  10
14.0775
  20
19.9492
  42
0
  0
SEQEND
  0
POLYLINE
  8
Top
  6
CONTINUOUS
  66
1
  70
0
  40
0.0
  41
0.0
  0
VERTEX
  8
Top
  10
11.6073
  20
17.479
  42
0
  0
VERTEX
  8
Top
  10
12.6679
  20
18.5396
  42
0
  0
VERTEX
  8
Top
  10
11.3951
  20
19.8124
  42
0
  0
VERTEX
  8
Top
  10
10.3345
  20
18.7518
  42
0
  0
VERTEX
  8
Top
  10
11.6073
  20
17.479
  42
0
  0
SEQEND
  0
POLYLINE
  8
Top
  6
CONTINUOUS
  66
1
  70
0
  40
1.2
  41
1.2
  0
VERTEX
  8
Top
  10
41.4732
  20
25.0851
  42
1
  0
VERTEX
  8
Top
  10
42.6732
  20
25.0851
  42
1
  0
VERTEX
  8
Top
  10
41.4732
  20
25.0851
  42
1
  0
SEQEND
  0
POLYLINE
  8
Top
  6
CONTINUOUS
  66
1
  70
0
  40
1.2
  41
1.2
  0
VERTEX
  8
Top
  10
44.9652
  20
25.0851
  42
1
  0
VERTEX
  8
Top
  10
46.1652
  20
25.0851
  42
1
  0
VERTEX
  8
Top
  10
44.9652
  20
25.0851
  42
1
  0
SEQEND
  0
SOLID
  8
Top
  10
35.5962
  20
14.6127
  11
34.8962
  21
14.6127
  12
35.5962
  22
13.0127
  13
34.8962
  23
13.0127
  0
SOLID
  8
Top
  10
37.0962
  20
14.6127
  11
36.3962
  21
14.6127
  12
37.0962
  22
13.0127
  13
36.3962
  23
13.0127
  0
SOLID
  8
Top
  10
38.5962
  20
14.6127
  11
37.8962
  21
14.6127
  12
38.5962
  22
13.0127
  13
37.8962
  23
13.0127
  0
SOLID
  8
Top
  10
37.7462
  20
10.6677
  11
35.7462
  21
10.6677
  12
37.7462
  22
9.1677
  13
35.7462
  23
9.1677
  0
SOLID
  8
Top
  10
22.9773
  20
19.0757
  11
21.4773
  21
19.0757
  12
22.9773
  22
18.0757
  13
21.4773
  23
18.0757
  0
SOLID
  8
Top
  10
22.9773
  20
20.9812
  11
21.4773
  21
20.9812
  12
22.9773
  22
19.9812
  13
21.4773
  23
19.9812
  0
SOLID
  8
Top
  10
23.6799
  20
23.2949
  11
22.6799
  21
23.2949
  12
23.6799
  22
21.7949
  13
22.6799
  23
21.7949
  0
SOLID
  8
Top
  10
21.7745
  20
23.2949
  11
20.7745
  21
23.2949
  12
21.7745
  22
21.7949
  13
20.7745
  23
21.7949
  0
POLYLINE
  8
Top
  6
CONTINUOUS
  66
1
  70
0
  40
0.0
  41
0.0
  0
VERTEX
  8
Top
  10
11.5662
  20
22.2712
  42
0
  0
VERTEX
  8
Top
  10
12.5662
  20
22.2712
  42
0
  0
VERTEX
  8
Top
  10
12.5662
  20
23.7712
  42
0
  0
VERTEX
  8
Top
  10
11.5662
  20
23.7712
  42
0
  0
VERTEX
  8
Top
  10
11.5662
  20
22.2712
  42
0
  0
SEQEND
  0
POLYLINE
  8
Top
  6
CONTINUOUS
  66
1
  70
0
  40
0.0
  41
0.0
  0
VERTEX
  8
Top
  10
9.6608
  20
22.2712
  42
0
  0
VERTEX
  8
Top
  10
10.6608
  20
22.2712
  42
0
  0
VERTEX
  8
Top
  10
10.6608
  20
23.7712
  42
0
  0
VERTEX
  8
Top
  10
9.6608
  20
23.7712
  42
0
  0
VERTEX
  8
Top
  10
9.6608
  20
22.2712
  42
0
  0
SEQEND
  0
SOLID
  8
Top
  10
36.0637
  20
5.3542
  11
35.0637
  21
5.3542
  12
36.0637
  22
3.8542
  13
35.0637
  23
3.8542
  0
SOLID
  8
Top
  10
34.1583
  20
5.3542
  11
33.1583
  21
5.3542
  12
34.1583
  22
3.8542
  13
33.1583
  23
3.8542
  0
SOLID
  8
Top
  10
27.6491
  20
5.1955
  11
26.6491
  21
5.1955
  12
27.6491
  22
3.6955
  13
26.6491
  23
3.6955
  0
SOLID
  8
Top
  10
25.7436
  20
5.1955
  11
24.7436
  21
5.1955
  12
25.7436
  22
3.6955
  13
24.7436
  23
3.6955
  0
SOLID
  8
Top
  10
17.9643
  20
4.7192
  11
16.9643
  21
4.7192
  12
17.9643
  22
3.2192
  13
16.9643
  23
3.2192
  0
SOLID
  8
Top
  10
16.0589
  20
4.7192
  11
15.0589
  21
4.7192
  12
16.0589
  22
3.2192
  13
15.0589
  23
3.2192
  0
SOLID
  8
Top
  10
14.4039
  20
2.0877
  11
12.9039
  21
2.0877
  12
14.4039
  22
1.0877
  13
12.9039
  23
1.0877
  0
SOLID
  8
Top
  10
14.4039
  20
3.9931
  11
12.9039
  21
3.9931
  12
14.4039
  22
2.9931
  13
12.9039
  23
2.9931
  0
SOLID
  8
Top
  10
28.851
  20
18.2801
  11
27.351
  21
18.2801
  12
28.851
  22
17.2801
  13
27.351
  23
17.2801
  0
SOLID
  8
Top
  10
28.851
  20
20.1856
  11
27.351
  21
20.1856
  12
28.851
  22
19.1856
  13
27.351
  23
19.1856
  0
SOLID
  8
Top
  10
30.5059
  20
22.8164
  11
29.5059
  21
22.8164
  12
30.5059
  22
21.3164
  13
29.5059
  23
21.3164
  0
SOLID
  8
Top
  10
28.6005
  20
22.8164
  11
27.6005
  21
22.8164
  12
28.6005
  22
21.3164
  13
27.6005
  23
21.3164
  0
SOLID
  8
Top
  10
35.836
  20
18.2801
  11
34.336
  21
18.2801
  12
35.836
  22
17.2801
  13
34.336
  23
17.2801
  0
SOLID
  8
Top
  10
35.836
  20
20.1856
  11
34.336
  21
20.1856
  12
35.836
  22
19.1856
  13
34.336
  23
19.1856
  0
SOLID
  8
Top
  10
37.491
  20
22.9752
  11
36.491
  21
22.9752
  12
37.491
  22
21.4752
  13
36.491
  23
21.4752
  0
SOLID
  8
Top
  10
35.5855
  20
22.9752
  11
34.5855
  21
22.9752
  12
35.5855
  22
21.4752
  13
34.5855
  23
21.4752
  0
POLYLINE
  8
Top
  6
CONTINUOUS
  66
1
  70
0
  40
0.0
  41
0.0
  0
VERTEX
  8
Top
  10
13.4442
  20
13.6686
  42
0
  0
VERTEX
  8
Top
  10
13.7978
  20
14.0221
  42
0
  0
VERTEX
  8
Top
  10
12.5957
  20
15.2242
  42
0
  0
VERTEX
  8
Top
  10
12.2421
  20
14.8707
  42
0
  0
VERTEX
  8
Top
  10
13.4442
  20
13.6686
  42
0
  0
SEQEND
  0
POLYLINE
  8
Top
  6
CONTINUOUS
  66
1
  70
0
  40
0.0
  41
0.0
  0
VERTEX
  8
Top
  10
14.0099
  20
14.2343
  42
0
  0
VERTEX
  8
Top
  10
14.3635
  20
14.5878
  42
0
  0
VERTEX
  8
Top
  10
13.1614
  20
15.7899
  42
0
  0
VERTEX
  8
Top
  10
12.8078
  20
15.4364
  42
0
  0
VERTEX
  8
Top
  10
14.0099
  20
14.2343
  42
0
  0
SEQEND
  0
POLYLINE
  8
Top
  6
CONTINUOUS
  66
1
  70
0
  40
0.0
  41
0.0
  0
VERTEX
  8
Top
  10
14.5756
  20
14.8
  42
0
  0
VERTEX
  8
Top
  10
14.9292
  20
15.1535
  42
0
  0
VERTEX
  8
Top
  10
13.7271
  20
16.3556
  42
0
  0
VERTEX
  8
Top
  10
13.3735
  20
16.0021
  42
0
  0
VERTEX
  8
Top
  10
14.5756
  20
14.8
  42
0
  0
SEQEND
  0
POLYLINE
  8
Top
  6
CONTINUOUS
  66
1
  70
0
  40
0.0
  41
0.0
  0
VERTEX
  8
Top
  10
15.1413
  20
15.3656
  42
0
  0
VERTEX
  8
Top
  10
15.4949
  20
15.7192
  42
0
  0
VERTEX
  8
Top
  10
14.2928
  20
16.9213
  42
0
  0
VERTEX
  8
Top
  10
13.9392
  20
16.5677
  42
0
  0
VERTEX
  8
Top
  10
15.1413
  20
15.3656
  42
0
  0
SEQEND
  0
POLYLINE
  8
Top
  6
CONTINUOUS
  66
1
  70
0
  40
0.0
  41
0.0
  0
VERTEX
  8
Top
  10
15.707
  20
15.9313
  42
0
  0
VERTEX
  8
Top
  10
16.0605
  20
16.2849
  42
0
  0
VERTEX
  8
Top
  10
14.8584
  20
17.487
  42
0
  0
VERTEX
  8
Top
  10
14.5049
  20
17.1334
  42
0
  0
VERTEX
  8
Top
  10
15.707
  20
15.9313
  42
0
  0
SEQEND
  0
POLYLINE
  8
Top
  6
CONTINUOUS
  66
1
  70
0
  40
0.0
  41
0.0
  0
VERTEX
  8
Top
  10
16.2727
  20
16.497
  42
0
  0
VERTEX
  8
Top
  10
16.6262
  20
16.8506
  42
0
  0
VERTEX
  8
Top
  10
15.4241
  20
18.0527
  42
0
  0
VERTEX
  8
Top
  10
15.0706
  20
17.6991
  42
0
  0
VERTEX
  8
Top
  10
16.2727
  20
16.497
  42
0
  0
SEQEND
  0
POLYLINE
  8
Top
  6
CONTINUOUS
  66
1
  70
0
  40
0.0
  41
0.0
  0
VERTEX
  8
Top
  10
16.8383
  20
17.0627
  42
0
  0
VERTEX
  8
Top
  10
17.1919
  20
17.4163
  42
0
  0
VERTEX
  8
Top
  10
15.9898
  20
18.6184
  42
0
  0
VERTEX
  8
Top
  10
15.6362
  20
18.2648
  42
0
  0
VERTEX
  8
Top
  10
16.8383
  20
17.0627
  42
0
  0
SEQEND
  0
POLYLINE
  8
Top
  6
CONTINUOUS
  66
1
  70
0
  40
0.0
  41
0.0
  0
VERTEX
  8
Top
  10
17.404
  20
17.6284
  42
0
  0
VERTEX
  8
Top
  10
17.7576
  20
17.9819
  42
0
  0
VERTEX
  8
Top
  10
16.5555
  20
19.184
  42
0
  0
VERTEX
  8
Top
  10
16.2019
  20
18.8305
  42
0
  0
VERTEX
  8
Top
  10
17.404
  20
17.6284
  42
0
  0
SEQEND
  0
POLYLINE
  8
Top
  6
CONTINUOUS
  66
1
  70
0
  40
0.0
  41
0.0
  0
VERTEX
  8
Top
  10
19.7375
  20
18.8305
  42
0
  0
VERTEX
  8
Top
  10
19.3839
  20
19.184
  42
0
  0
VERTEX
  8
Top
  10
18.1818
  20
17.9819
  42
0
  0
VERTEX
  8
Top
  10
18.5354
  20
17.6284
  42
0
  0
VERTEX
  8
Top
  10
19.7375
  20
18.8305
  42
0
  0
SEQEND
  0
POLYLINE
  8
Top
  6
CONTINUOUS
  66
1
  70
0
  40
0.0
  41
0.0
  0
VERTEX
  8
Top
  10
20.3032
  20
18.2648
  42
0
  0
VERTEX
  8
Top
  10
19.9496
  20
18.6184
  42
0
  0
VERTEX
  8
Top
  10
18.7475
  20
17.4163
  42
0
  0
VERTEX
  8
Top
  10
19.1011
  20
17.0627
  42
0
  0
VERTEX
  8
Top
  10
20.3032
  20
18.2648
  42
0
  0
SEQEND
  0
POLYLINE
  8
Top
  6
CONTINUOUS
  66
1
  70
0
  40
0.0
  41
0.0
  0
VERTEX
  8
Top
  10
20.8689
  20
17.6991
  42
0
  0
VERTEX
  8
Top
  10
20.5153
  20
18.0527
  42
0
  0
VERTEX
  8
Top
  10
19.3132
  20
16.8506
  42
0
  0
VERTEX
  8
Top
  10
19.6668
  20
16.497
  42
0
  0
VERTEX
  8
Top
  10
20.8689
  20
17.6991
  42
0
  0
SEQEND
  0
POLYLINE
  8
Top
  6
CONTINUOUS
  66
1
  70
0
  40
0.0
  41
0.0
  0
VERTEX
  8
Top
  10
21.4346
  20
17.1334
  42
0
  0
VERTEX
  8
Top
  10
21.081
  20
17.487
  42
0
  0
VERTEX
  8
Top
  10
19.8789
  20
16.2849
  42
0
  0
VERTEX
  8
Top
  10
20.2325
  20
15.9313
  42
0
  0
VERTEX
  8
Top
  10
21.4346
  20
17.1334
  42
0
  0
SEQEND
  0
POLYLINE
  8
Top
  6
CONTINUOUS
  66
1
  70
0
  40
0.0
  41
0.0
  0
VERTEX
  8
Top
  10
22.0002
  20
16.5677
  42
0
  0
VERTEX
  8
Top
  10
21.6467
  20
16.9213
  42
0
  0
VERTEX
  8
Top
  10
20.4446
  20
15.7192
  42
0
  0
VERTEX
  8
Top
  10
20.7981
  20
15.3656
  42
0
  0
VERTEX
  8
Top
  10
22.0002
  20
16.5677
  42
0
  0
SEQEND
  0
POLYLINE
  8
Top
  6
CONTINUOUS
  66
1
  70
0
  40
0.0
  41
0.0
  0
VERTEX
  8
Top
  10
22.5659
  20
16.0021
  42
0
  0
VERTEX
  8
Top
  10
22.2124
  20
16.3556
  42
0
  0
VERTEX
  8
Top
  10
21.0103
  20
15.1535
  42
0
  0
VERTEX
  8
Top
  10
21.3638
  20
14.8
  42
0
  0
VERTEX
  8
Top
  10
22.5659
  20
16.0021
  42
0
  0
SEQEND
  0
POLYLINE
  8
Top
  6
CONTINUOUS
  66
1
  70
0
  40
0.0
  41
0.0
  0
VERTEX
  8
Top
  10
23.1316
  20
15.4364
  42
0
  0
VERTEX
  8
Top
  10
22.778
  20
15.7899
  42
0
  0
VERTEX
  8
Top
  10
21.5759
  20
14.5878
  42
0
  0
VERTEX
  8
Top
  10
21.9295
  20
14.2343
  42
0
  0
VERTEX
  8
Top
  10
23.1316
  20
15.4364
  42
0
  0
SEQEND
  0
POLYLINE
  8
Top
  6
CONTINUOUS
  66
1
  70
0
  40
0.0
  41
0.0
  0
VERTEX
  8
Top
  10
23.6973
  20
14.8707
  42
0
  0
VERTEX
  8
Top
  10
23.3437
  20
15.2242
  42
0
  0
VERTEX
  8
Top
  10
22.1416
  20
14.0221
  42
0
  0
VERTEX
  8
Top
  10
22.4952
  20
13.6686
  42
0
  0
VERTEX
  8
Top
  10
23.6973
  20
14.8707
  42
0
  0
SEQEND
  0
POLYLINE
  8
Top
  6
CONTINUOUS
  66
1
  70
0
  40
0.0
  41
0.0
  0
VERTEX
  8
Top
  10
23.3437
  20
11.6887
  42
0
  0
VERTEX
  8
Top
  10
23.6973
  20
12.0423
  42
0
  0
VERTEX
  8
Top
  10
22.4952
  20
13.2444
  42
0
  0
VERTEX
  8
Top
  10
22.1416
  20
12.8908
  42
0
  0
VERTEX
  8
Top
  10
23.3437
  20
11.6887
  42
0
  0
SEQEND
  0
POLYLINE
  8
Top
  6
CONTINUOUS
  66
1
  70
0
  40
0.0
  41
0.0
  0
VERTEX
  8
Top
  10
22.778
  20
11.123
  42
0
  0
VERTEX
  8
Top
  10
23.1316
  20
11.4766
  42
0
  0
VERTEX
  8
Top
  10
21.9295
  20
12.6787
  42
0
  0
VERTEX
  8
Top
  10
21.5759
  20
12.3251
  42
0
  0
VERTEX
  8
Top
  10
22.778
  20
11.123
  42
0
  0
SEQEND
  0
POLYLINE
  8
Top
  6
CONTINUOUS
  66
1
  70
0
  40
0.0
  41
0.0
  0
VERTEX
  8
Top
  10
22.2124
  20
10.5573
  42
0
  0
VERTEX
  8
Top
  10
22.5659
  20
10.9109
  42
0
  0
VERTEX
  8
Top
  10
21.3638
  20
12.113
  42
0
  0
VERTEX
  8
Top
  10
21.0103
  20
11.7594
  42
0
  0
VERTEX
  8
Top
  10
22.2124
  20
10.5573
  42
0
  0
SEQEND
  0
POLYLINE
  8
Top
  6
CONTINUOUS
  66
1
  70
0
  40
0.0
  41
0.0
  0
VERTEX
  8
Top
  10
21.6467
  20
9.9916
  42
0
  0
VERTEX
  8
Top
  10
22.0002
  20
10.3452
  42
0
  0
VERTEX
  8
Top
  10
20.7981
  20
11.5473
  42
0
  0
VERTEX
  8
Top
  10
20.4446
  20
11.1937
  42
0
  0
VERTEX
  8
Top
  10
21.6467
  20
9.9916
  42
0
  0
SEQEND
  0
POLYLINE
  8
Top
  6
CONTINUOUS
  66
1
  70
0
  40
0.0
  41
0.0
  0
VERTEX
  8
Top
  10
21.081
  20
9.4259
  42
0
  0
VERTEX
  8
Top
  10
21.4346
  20
9.7795
  42
0
  0
VERTEX
  8
Top
  10
20.2325
  20
10.9816
  42
0
  0
VERTEX
  8
Top
  10
19.8789
  20
10.628
  42
0
  0
VERTEX
  8
Top
  10
21.081
  20
9.4259
  42
0
  0
SEQEND
  0
POLYLINE
  8
Top
  6
CONTINUOUS
  66
1
  70
0
  40
0.0
  41
0.0
  0
VERTEX
  8
Top
  10
20.5153
  20
8.8603
  42
0
  0
VERTEX
  8
Top
  10
20.8689
  20
9.2138
  42
0
  0
VERTEX
  8
Top
  10
19.6668
  20
10.4159
  42
0
  0
VERTEX
  8
Top
  10
19.3132
  20
10.0624
  42
0
  0
VERTEX
  8
Top
  10
20.5153
  20
8.8603
  42
0
  0
SEQEND
  0
POLYLINE
  8
Top
  6
CONTINUOUS
  66
1
  70
0
  40
0.0
  41
0.0
  0
VERTEX
  8
Top
  10
19.9496
  20
8.2946
  42
0
  0
VERTEX
  8
Top
  10
20.3032
  20
8.6481
  42
0
  0
VERTEX
  8
Top
  10
19.1011
  20
9.8502
  42
0
  0
VERTEX
  8
Top
  10
18.7475
  20
9.4967
  42
0
  0
VERTEX
  8
Top
  10
19.9496
  20
8.2946
  42
0
  0
SEQEND
  0
POLYLINE
  8
Top
  6
CONTINUOUS
  66
1
  70
0
  40
0.0
  41
0.0
  0
VERTEX
  8
Top
  10
19.3839
  20
7.7289
  42
0
  0
VERTEX
  8
Top
  10
19.7375
  20
8.0825
  42
0
  0
VERTEX
  8
Top
  10
18.5354
  20
9.2846
  42
0
  0
VERTEX
  8
Top
  10
18.1818
  20
8.931
  42
0
  0
VERTEX
  8
Top
  10
19.3839
  20
7.7289
  42
0
  0
SEQEND
  0
POLYLINE
  8
Top
  6
CONTINUOUS
  66
1
  70
0
  40
0.0
  41
0.0
  0
VERTEX
  8
Top
  10
17.7576
  20
8.931
  42
0
  0
VERTEX
  8
Top
  10
17.404
  20
9.2846
  42
0
  0
VERTEX
  8
Top
  10
16.2019
  20
8.0825
  42
0
  0
VERTEX
  8
Top
  10
16.5555
  20
7.7289
  42
0
  0
VERTEX
  8
Top
  10
17.7576
  20
8.931
  42
0
  0
SEQEND
  0
POLYLINE
  8
Top
  6
CONTINUOUS
  66
1
  70
0
  40
0.0
  41
0.0
  0
VERTEX
  8
Top
  10
17.1919
  20
9.4967
  42
0
  0
VERTEX
  8
Top
  10
16.8383
  20
9.8502
  42
0
  0
VERTEX
  8
Top
  10
15.6362
  20
8.6481
  42
0
  0
VERTEX
  8
Top
  10
15.9898
  20
8.2946
  42
0
  0
VERTEX
  8
Top
  10
17.1919
  20
9.4967
  42
0
  0
SEQEND
  0
POLYLINE
  8
Top
  6
CONTINUOUS
  66
1
  70
0
  40
0.0
  41
0.0
  0
VERTEX
  8
Top
  10
16.6262
  20
10.0624
  42
0
  0
VERTEX
  8
Top
  10
16.2727
  20
10.4159
  42
0
  0
VERTEX
  8
Top
  10
15.0706
  20
9.2138
  42
0
  0
VERTEX
  8
Top
  10
15.4241
  20
8.8603
  42
0
  0
VERTEX
  8
Top
  10
16.6262
  20
10.0624
  42
0
  0
SEQEND
  0
POLYLINE
  8
Top
  6
CONTINUOUS
  66
1
  70
0
  40
0.0
  41
0.0
  0
VERTEX
  8
Top
  10
16.0605
  20
10.628
  42
0
  0
VERTEX
  8
Top
  10
15.707
  20
10.9816
  42
0
  0
VERTEX
  8
Top
  10
14.5049
  20
9.7795
  42
0
  0
VERTEX
  8
Top
  10
14.8584
  20
9.4259
  42
0
  0
VERTEX
  8
Top
  10
16.0605
  20
10.628
  42
0
  0
SEQEND
  0
POLYLINE
  8
Top
  6
CONTINUOUS
  66
1
  70
0
  40
0.0
  41
0.0
  0
VERTEX
  8
Top
  10
15.4949
  20
11.1937
  42
0
  0
VERTEX
  8
Top
  10
15.1413
  20
11.5473
  42
0
  0
VERTEX
  8
Top
  10
13.9392
  20
10.3452
  42
0
  0
VERTEX
  8
Top
  10
14.2928
  20
9.9916
  42
0
  0
VERTEX
  8
Top
  10
15.4949
  20
11.1937
  42
0
  0
SEQEND
  0
POLYLINE
  8
Top
  6
CONTINUOUS
  66
1
  70
0
  40
0.0
  41
0.0
  0
VERTEX
  8
Top
  10
14.9292
  20
11.7594
  42
0
  0
VERTEX
  8
Top
  10
14.5756
  20
12.113
  42
0
  0
VERTEX
  8
Top
  10
13.3735
  20
10.9109
  42
0
  0
VERTEX
  8
Top
  10
13.7271
  20
10.5573
  42
0
  0
VERTEX
  8
Top
  10
14.9292
  20
11.7594
  42
0
  0
SEQEND
  0
POLYLINE
  8
Top
  6
CONTINUOUS
  66
1
  70
0
  40
0.0
  41
0.0
  0
VERTEX
  8
Top
  10
14.3635
  20
12.3251
  42
0
  0
VERTEX
  8
Top
  10
14.0099
  20
12.6787
  42
0
  0
VERTEX
  8
Top
  10
12.8078
  20
11.4766
  42
0
  0
VERTEX
  8
Top
  10
13.1614
  20
11.123
  42
0
  0
VERTEX
  8
Top
  10
14.3635
  20
12.3251
  42
0
  0
SEQEND
  0
POLYLINE
  8
Top
  6
CONTINUOUS
  66
1
  70
0
  40
0.0
  41
0.0
  0
VERTEX
  8
Top
  10
13.7978
  20
12.8908
  42
0
  0
VERTEX
  8
Top
  10
13.4442
  20
13.2444
  42
0
  0
VERTEX
  8
Top
  10
12.2421
  20
12.0423
  42
0
  0
VERTEX
  8
Top
  10
12.5957
  20
11.6887
  42
0
  0
VERTEX
  8
Top
  10
13.7978
  20
12.8908
  42
0
  0
SEQEND
  0
SOLID
  8
Top
  10
25.2759
  20
25.0227
  11
24.5759
  21
25.0227
  12
25.2759
  22
23.8727
  13
24.5759
  23
23.8727
  0
SOLID
  8
Top
  10
24.0059
  20
25.0232
  11
23.3059
  21
25.0232
  12
24.0059
  22
23.8732
  13
23.3059
  23
23.8732
  0
SOLID
  8
Top
  10
22.7359
  20
25.0232
  11
22.0359
  21
25.0232
  12
22.7359
  22
23.8732
  13
22.0359
  23
23.8732
  0
SOLID
  8
Top
  10
21.4659
  20
25.0232
  11
20.7659
  21
25.0232
  12
21.4659
  22
23.8732
  13
20.7659
  23
23.8732
  0
SOLID
  8
Top
  10
25.3709
  20
30.6684
  11
20.6709
  21
30.6684
  12
25.3709
  22
26.0684
  13
20.6709
  23
26.0684
  0
SOLID
  8
Top
  10
32.2609
  20
25.0227
  11
31.5609
  21
25.0227
  12
32.2609
  22
23.8727
  13
31.5609
  23
23.8727
  0
SOLID
  8
Top
  10
30.9909
  20
25.0232
  11
30.2909
  21
25.0232
  12
30.9909
  22
23.8732
  13
30.2909
  23
23.8732
  0
SOLID
  8
Top
  10
29.7209
  20
25.0232
  11
29.0209
  21
25.0232
  12
29.7209
  22
23.8732
  13
29.0209
  23
23.8732
  0
SOLID
  8
Top
  10
28.4509
  20
25.0232
  11
27.7509
  21
25.0232
  12
28.4509
  22
23.8732
  13
27.7509
  23
23.8732
  0
SOLID
  8
Top
  10
32.3559
  20
30.6684
  11
27.6559
  21
30.6684
  12
32.3559
  22
26.0684
  13
27.6559
  23
26.0684
  0
SOLID
  8
Top
  10
39.246
  20
25.0227
  11
38.546
  21
25.0227
  12
39.246
  22
23.8727
  13
38.546
  23
23.8727
  0
SOLID
  8
Top
  10
37.976
  20
25.0232
  11
37.276
  21
25.0232
  12
37.976
  22
23.8732
  13
37.276
  23
23.8732
  0
SOLID
  8
Top
  10
36.706
  20
25.0232
  11
36.006
  21
25.0232
  12
36.706
  22
23.8732
  13
36.006
  23
23.8732
  0
SOLID
  8
Top
  10
35.436
  20
25.0232
  11
34.736
  21
25.0232
  12
35.436
  22
23.8732
  13
34.736
  23
23.8732
  0
SOLID
  8
Top
  10
39.341
  20
30.6684
  11
34.641
  21
30.6684
  12
39.341
  22
26.0684
  13
34.641
  23
26.0684
  0
POLYLINE
  8
Top
  6
CONTINUOUS
  66
1
  70
0
  40
1.2
  41
1.2
  0
VERTEX
  8
Top
  10
18.9285
  20
33.3376
  42
1
  0
VERTEX
  8
Top
  10
20.1285
  20
33.3376
  42
1
  0
VERTEX
  8
Top
  10
18.9285
  20
33.3376
  42
1
  0
SEQEND
  0
POLYLINE
  8
Top
  6
CONTINUOUS
  66
1
  70
0
  40
1.2
  41
1.2
  0
VERTEX
  8
Top
  10
22.4285
  20
33.3376
  42
1
  0
VERTEX
  8
Top
  10
23.6285
  20
33.3376
  42
1
  0
VERTEX
  8
Top
  10
22.4285
  20
33.3376
  42
1
  0
SEQEND
  0
POLYLINE
  8
Top
  6
CONTINUOUS
  66
1
  70
0
  40
1.2
  41
1.2
  0
VERTEX
  8
Top
  10
25.9135
  20
33.3376
  42
1
  0
VERTEX
  8
Top
  10
27.1135
  20
33.3376
  42
1
  0
VERTEX
  8
Top
  10
25.9135
  20
33.3376
  42
1
  0
SEQEND
  0
POLYLINE
  8
Top
  6
CONTINUOUS
  66
1
  70
0
  40
1.2
  41
1.2
  0
VERTEX
  8
Top
  10
29.4135
  20
33.3376
  42
1
  0
VERTEX
  8
Top
  10
30.6135
  20
33.3376
  42
1
  0
VERTEX
  8
Top
  10
29.4135
  20
33.3376
  42
1
  0
SEQEND
  0
POLYLINE
  8
Top
  6
CONTINUOUS
  66
1
  70
0
  40
1.2
  41
1.2
  0
VERTEX
  8
Top
  10
32.8985
  20
33.3376
  42
1
  0
VERTEX
  8
Top
  10
34.0985
  20
33.3376
  42
1
  0
VERTEX
  8
Top
  10
32.8985
  20
33.3376
  42
1
  0
SEQEND
  0
POLYLINE
  8
Top
  6
CONTINUOUS
  66
1
  70
0
  40
1.2
  41
1.2
  0
VERTEX
  8
Top
  10
36.3985
  20
33.3376
  42
1
  0
VERTEX
  8
Top
  10
37.5985
  20
33.3376
  42
1
  0
VERTEX
  8
Top
  10
36.3985
  20
33.3376
  42
1
  0
SEQEND
  0
POLYLINE
  8
Top
  6
CONTINUOUS
  66
1
  70
0
  40
1.2
  41
1.2
  0
VERTEX
  8
Top
  10
45.6011
  20
33.341
  42
1
  0
VERTEX
  8
Top
  10
46.8011
  20
33.341
  42
1
  0
VERTEX
  8
Top
  10
45.6011
  20
33.341
  42
1
  0
SEQEND
  0
POLYLINE
  8
Top
  6
CONTINUOUS
  66
1
  70
0
  40
1.2
  41
1.2
  0
VERTEX
  8
Top
  10
42.1011
  20
33.341
  42
1
  0
VERTEX
  8
Top
  10
43.3011
  20
33.341
  42
1
  0
VERTEX
  8
Top
  10
42.1011
  20
33.341
  42
1
  0
SEQEND
  0
POLYLINE
  8
Top
  6
CONTINUOUS
  66
1
  70
0
  40
1.0
  41
1.0
  0
VERTEX
  8
Top
  10
1.4065
  20
26.3553
  42
1
  0
VERTEX
  8
Top
  10
2.4065
  20
26.3553
  42
1
  0
VERTEX
  8
Top
  10
1.4065
  20
26.3553
  42
1
  0
SEQEND
  0
POLYLINE
  8
Top
  6
CONTINUOUS
  66
1
  70
0
  40
1.0
  41
1.0
  0
VERTEX
  8
Top
  10
3.9465
  20
26.3553
  42
1
  0
VERTEX
  8
Top
  10
4.9465
  20
26.3553
  42
1
  0
VERTEX
  8
Top
  10
3.9465
  20
26.3553
  42
1
  0
SEQEND
  0
POLYLINE
  8
Top
  6
CONTINUOUS
  66
1
  70
0
  40
1.0
  41
1.0
  0
VERTEX
  8
Top
  10
6.4865
  20
26.3553
  42
1
  0
VERTEX
  8
Top
  10
7.4865
  20
26.3553
  42
1
  0
VERTEX
  8
Top
  10
6.4865
  20
26.3553
  42
1
  0
SEQEND
  0
POLYLINE
  8
Top
  6
CONTINUOUS
  66
1
  70
0
  40
1.0
  41
1.0
  0
VERTEX
  8
Top
  10
9.0265
  20
26.3553
  42
1
  0
VERTEX
  8
Top
  10
10.0265
  20
26.3553
  42
1
  0
VERTEX
  8
Top
  10
9.0265
  20
26.3553
  42
1
  0
SEQEND
  0
POLYLINE
  8
Top
  6
CONTINUOUS
  66
1
  70
0
  40
1.0
  41
1.0
  0
VERTEX
  8
Top
  10
11.5665
  20
26.3553
  42
1
  0
VERTEX
  8
Top
  10
12.5665
  20
26.3553
  42
1
  0
VERTEX
  8
Top
  10
11.5665
  20
26.3553
  42
1
  0
SEQEND
  0
POLYLINE
  8
Top
  6
CONTINUOUS
  66
1
  70
0
  40
1.0
  41
1.0
  0
VERTEX
  8
Top
  10
14.1065
  20
26.3553
  42
1
  0
VERTEX
  8
Top
  10
15.1065
  20
26.3553
  42
1
  0
VERTEX
  8
Top
  10
14.1065
  20
26.3553
  42
1
  0
SEQEND
  0
POLYLINE
  8
Top
  6
CONTINUOUS
  66
1
  70
0
  40
1.0
  41
1.0
  0
VERTEX
  8
Top
  10
42.8413
  20
1.2701
  42
1
  0
VERTEX
  8
Top
  10
43.8413
  20
1.2701
  42
1
  0
VERTEX
  8
Top
  10
42.8413
  20
1.2701
  42
1
  0
SEQEND
  0
POLYLINE
  8
Top
  6
CONTINUOUS
  66
1
  70
0
  40
1.0
  41
1.0
  0
VERTEX
  8
Top
  10
40.3013
  20
1.2701
  42
1
  0
VERTEX
  8
Top
  10
41.3013
  20
1.2701
  42
1
  0
VERTEX
  8
Top
  10
40.3013
  20
1.2701
  42
1
  0
SEQEND
  0
POLYLINE
  8
Top
  6
CONTINUOUS
  66
1
  70
0
  40
1.0
  41
1.0
  0
VERTEX
  8
Top
  10
37.7613
  20
1.2701
  42
1
  0
VERTEX
  8
Top
  10
38.7613
  20
1.2701
  42
1
  0
VERTEX
  8
Top
  10
37.7613
  20
1.2701
  42
1
  0
SEQEND
  0
POLYLINE
  8
Top
  6
CONTINUOUS
  66
1
  70
0
  40
1.0
  41
1.0
  0
VERTEX
  8
Top
  10
26.6488
  20
1.2701
  42
1
  0
VERTEX
  8
Top
  10
27.6488
  20
1.2701
  42
1
  0
VERTEX
  8
Top
  10
26.6488
  20
1.2701
  42
1
  0
SEQEND
  0
POLYLINE
  8
Top
  6
CONTINUOUS
  66
1
  70
0
  40
1.0
  41
1.0
  0
VERTEX
  8
Top
  10
24.1088
  20
1.2701
  42
1
  0
VERTEX
  8
Top
  10
25.1088
  20
1.2701
  42
1
  0
VERTEX
  8
Top
  10
24.1088
  20
1.2701
  42
1
  0
SEQEND
  0
POLYLINE
  8
Top
  6
CONTINUOUS
  66
1
  70
0
  40
1.0
  41
1.0
  0
VERTEX
  8
Top
  10
21.5688
  20
1.2701
  42
1
  0
VERTEX
  8
Top
  10
22.5688
  20
1.2701
  42
1
  0
VERTEX
  8
Top
  10
21.5688
  20
1.2701
  42
1
  0
SEQEND
  0
POLYLINE
  8
Top
  6
CONTINUOUS
  66
1
  70
0
  40
1.0
  41
1.0
  0
VERTEX
  8
Top
  10
10.4563
  20
1.2701
  42
1
  0
VERTEX
  8
Top
  10
11.4563
  20
1.2701
  42
1
  0
VERTEX
  8
Top
  10
10.4563
  20
1.2701
  42
1
  0
SEQEND
  0
POLYLINE
  8
Top
  6
CONTINUOUS
  66
1
  70
0
  40
1.0
  41
1.0
  0
VERTEX
  8
Top
  10
7.9163
  20
1.2701
  42
1
  0
VERTEX
  8
Top
  10
8.9163
  20
1.2701
  42
1
  0
VERTEX
  8
Top
  10
7.9163
  20
1.2701
  42
1
  0
SEQEND
  0
POLYLINE
  8
Top
  6
CONTINUOUS
  66
1
  70
0
  40
1.0
  41
1.0
  0
VERTEX
  8
Top
  10
5.3763
  20
1.2701
  42
1
  0
VERTEX
  8
Top
  10
6.3763
  20
1.2701
  42
1
  0
VERTEX
  8
Top
  10
5.3763
  20
1.2701
  42
1
  0
SEQEND
  0
POLYLINE
  8
Top
  6
CONTINUOUS
  66
1
  70
0
  40
1.2
  41
1.2
  0
VERTEX
  8
Top
  10
41.4732
  20
10.6374
  42
1
  0
VERTEX
  8
Top
  10
42.6732
  20
10.6374
  42
1
  0
VERTEX
  8
Top
  10
41.4732
  20
10.6374
  42
1
  0
SEQEND
  0
POLYLINE
  8
Top
  6
CONTINUOUS
  66
1
  70
0
  40
1.2
  41
1.2
  0
VERTEX
  8
Top
  10
30.9946
  20
13.6539
  42
1
  0
VERTEX
  8
Top
  10
32.1946
  20
13.6539
  42
1
  0
VERTEX
  8
Top
  10
30.9946
  20
13.6539
  42
1
  0
SEQEND
  0
POLYLINE
  8
Top
  6
CONTINUOUS
  66
1
  70
0
  40
1.2
  41
1.2
  0
VERTEX
  8
Top
  10
24.9614
  20
14.289
  42
1
  0
VERTEX
  8
Top
  10
26.1614
  20
14.289
  42
1
  0
VERTEX
  8
Top
  10
24.9614
  20
14.289
  42
1
  0
SEQEND
  0
POLYLINE
  8
Top
  6
CONTINUOUS
  66
1
  70
0
  40
1.2
  41
1.2
  0
VERTEX
  8
Top
  10
27.8192
  20
12.8601
  42
1
  0
VERTEX
  8
Top
  10
29.0192
  20
12.8601
  42
1
  0
VERTEX
  8
Top
  10
27.8192
  20
12.8601
  42
1
  0
SEQEND
  0
POLYLINE
  8
Top
  6
CONTINUOUS
  66
1
  70
0
  40
1.2
  41
1.2
  0
VERTEX
  8
Top
  10
24.8022
  20
21.9077
  42
1
  0
VERTEX
  8
Top
  10
26.0022
  20
21.9077
  42
1
  0
VERTEX
  8
Top
  10
24.8022
  20
21.9077
  42
1
  0
SEQEND
  0
POLYLINE
  8
Top
  6
CONTINUOUS
  66
1
  70
0
  40
1.2
  41
1.2
  0
VERTEX
  8
Top
  10
38.7722
  20
21.9077
  42
1
  0
VERTEX
  8
Top
  10
39.9722
  20
21.9077
  42
1
  0
VERTEX
  8
Top
  10
38.7722
  20
21.9077
  42
1
  0
SEQEND
  0
POLYLINE
  8
Top
  6
CONTINUOUS
  66
1
  70
0
  40
1.2
  41
1.2
  0
VERTEX
  8
Top
  10
31.7872
  20
21.9077
  42
1
  0
VERTEX
  8
Top
  10
32.9872
  20
21.9077
  42
1
  0
VERTEX
  8
Top
  10
31.7872
  20
21.9077
  42
1
  0
SEQEND
  0
POLYLINE
  8
Top
  6
CONTINUOUS
  66
1
  70
0
  40
1.2
  41
1.2
  0
VERTEX
  8
Top
  10
10.5137
  20
10.1611
  42
1
  0
VERTEX
  8
Top
  10
11.7137
  20
10.1611
  42
1
  0
VERTEX
  8
Top
  10
10.5137
  20
10.1611
  42
1
  0
SEQEND
  0
POLYLINE
  8
Top
  6
CONTINUOUS
  66
1
  70
0
  40
1.2
  41
1.2
  0
VERTEX
  8
Top
  10
30.9946
  20
17.7819
  42
1
  0
VERTEX
  8
Top
  10
32.1946
  20
17.7819
  42
1
  0
VERTEX
  8
Top
  10
30.9946
  20
17.7819
  42
1
  0
SEQEND
  0
POLYLINE
  8
Top
  6
CONTINUOUS
  66
1
  70
0
  40
1.2
  41
1.2
  0
VERTEX
  8
Top
  10
43.2196
  20
4.6042
  42
1
  0
VERTEX
  8
Top
  10
44.4196
  20
4.6042
  42
1
  0
VERTEX
  8
Top
  10
43.2196
  20
4.6042
  42
1
  0
SEQEND
  0
POLYLINE
  8
Top
  6
CONTINUOUS
  66
1
  70
0
  40
1.2
  41
1.2
  0
VERTEX
  8
Top
  10
40.203
  20
4.6042
  42
1
  0
VERTEX
  8
Top
  10
41.403
  20
4.6042
  42
1
  0
VERTEX
  8
Top
  10
40.203
  20
4.6042
  42
1
  0
SEQEND
  0
POLYLINE
  8
Top
  6
CONTINUOUS
  66
1
  70
0
  40
1.2
  41
1.2
  0
VERTEX
  8
Top
  10
37.1865
  20
4.6042
  42
1
  0
VERTEX
  8
Top
  10
38.3865
  20
4.6042
  42
1
  0
VERTEX
  8
Top
  10
37.1865
  20
4.6042
  42
1
  0
SEQEND
  0
POLYLINE
  8
Top
  6
CONTINUOUS
  66
1
  70
0
  40
1.2
  41
1.2
  0
VERTEX
  8
Top
  10
28.7718
  20
4.1279
  42
1
  0
VERTEX
  8
Top
  10
29.9718
  20
4.1279
  42
1
  0
VERTEX
  8
Top
  10
28.7718
  20
4.1279
  42
1
  0
SEQEND
  0
POLYLINE
  8
Top
  6
CONTINUOUS
  66
1
  70
0
  40
1.2
  41
1.2
  0
VERTEX
  8
Top
  10
18.6108
  20
3.3341
  42
1
  0
VERTEX
  8
Top
  10
19.8108
  20
3.3341
  42
1
  0
VERTEX
  8
Top
  10
18.6108
  20
3.3341
  42
1
  0
SEQEND
  0
POLYLINE
  8
Top
  6
CONTINUOUS
  66
1
  70
0
  40
1.2
  41
1.2
  0
VERTEX
  8
Top
  10
15.9117
  20
1.5877
  42
1
  0
VERTEX
  8
Top
  10
17.1117
  20
1.5877
  42
1
  0
VERTEX
  8
Top
  10
15.9117
  20
1.5877
  42
1
  0
SEQEND
  0
POLYLINE
  8
Top
  6
CONTINUOUS
  66
1
  70
0
  40
1.2
  41
1.2
  0
VERTEX
  8
Top
  10
10.3549
  20
4.6042
  42
1
  0
VERTEX
  8
Top
  10
11.5549
  20
4.6042
  42
1
  0
VERTEX
  8
Top
  10
10.3549
  20
4.6042
  42
1
  0
SEQEND
  0
POLYLINE
  8
Top
  6
CONTINUOUS
  66
1
  70
0
  40
1.2
  41
1.2
  0
VERTEX
  8
Top
  10
7.3383
  20
4.6042
  42
1
  0
VERTEX
  8
Top
  10
8.5383
  20
4.6042
  42
1
  0
VERTEX
  8
Top
  10
7.3383
  20
4.6042
  42
1
  0
SEQEND
  0
POLYLINE
  8
Top
  6
CONTINUOUS
  66
1
  70
0
  40
1.5
  41
1.5
  0
VERTEX
  8
Top
  10
46.2011
  20
33.341
  42
0
  0
VERTEX
  8
Top
  10
46.2011
  20
35.5637
  42
0
  0
SEQEND
  0
POLYLINE
  8
Top
  6
CONTINUOUS
  66
1
  70
0
  40
0.75
  41
0.75
  0
VERTEX
  8
Top
  10
46.5761
  20
33.341
  42
1
  0
VERTEX
  8
Top
  10
45.8261
  20
33.341
  42
1
  0
VERTEX
  8
Top
  10
46.5761
  20
33.341
  42
1
  0
SEQEND
  0
POLYLINE
  8
Top
  6
CONTINUOUS
  66
1
  70
0
  40
0.75
  41
0.75
  0
VERTEX
  8
Top
  10
46.5761
  20
35.5637
  42
1
  0
VERTEX
  8
Top
  10
45.8261
  20
35.5637
  42
1
  0
VERTEX
  8
Top
  10
46.5761
  20
35.5637
  42
1
  0
SEQEND
  0
POLYLINE
  8
Top
  6
CONTINUOUS
  66
1
  70
0
  40
1.5
  41
1.5
  0
VERTEX
  8
Top
  10
46.2011
  20
35.5637
  42
0
  0
VERTEX
  8
Top
  10
44.931
  20
36.8339
  42
0
  0
SEQEND
  0
POLYLINE
  8
Top
  6
CONTINUOUS
  66
1
  70
0
  40
0.75
  41
0.75
  0
VERTEX
  8
Top
  10
46.5761
  20
35.5637
  42
1
  0
VERTEX
  8
Top
  10
45.8261
  20
35.5637
  42
1
  0
VERTEX
  8
Top
  10
46.5761
  20
35.5637
  42
1
  0
SEQEND
  0
POLYLINE
  8
Top
  6
CONTINUOUS
  66
1
  70
0
  40
0.75
  41
0.75
  0
VERTEX
  8
Top
  10
45.306
  20
36.8339
  42
1
  0
VERTEX
  8
Top
  10
44.556
  20
36.8339
  42
1
  0
VERTEX
  8
Top
  10
45.306
  20
36.8339
  42
1
  0
SEQEND
  0
POLYLINE
  8
Top
  6
CONTINUOUS
  66
1
  70
0
  40
1.5
  41
1.5
  0
VERTEX
  8
Top
  10
44.931
  20
36.8339
  42
0
  0
VERTEX
  8
Top
  10
33.4985
  20
36.8339
  42
0
  0
SEQEND
  0
POLYLINE
  8
Top
  6
CONTINUOUS
  66
1
  70
0
  40
0.75
  41
0.75
  0
VERTEX
  8
Top
  10
45.306
  20
36.8339
  42
1
  0
VERTEX
  8
Top
  10
44.556
  20
36.8339
  42
1
  0
VERTEX
  8
Top
  10
45.306
  20
36.8339
  42
1
  0
SEQEND
  0
POLYLINE
  8
Top
  6
CONTINUOUS
  66
1
  70
0
  40
0.75
  41
0.75
  0
VERTEX
  8
Top
  10
33.8735
  20
36.8339
  42
1
  0
VERTEX
  8
Top
  10
33.1235
  20
36.8339
  42
1
  0
VERTEX
  8
Top
  10
33.8735
  20
36.8339
  42
1
  0
SEQEND
  0
POLYLINE
  8
Top
  6
CONTINUOUS
  66
1
  70
0
  40
1.5
  41
1.5
  0
VERTEX
  8
Top
  10
33.4985
  20
36.8339
  42
0
  0
VERTEX
  8
Top
  10
33.4985
  20
33.3376
  42
0
  0
SEQEND
  0
POLYLINE
  8
Top
  6
CONTINUOUS
  66
1
  70
0
  40
0.75
  41
0.75
  0
VERTEX
  8
Top
  10
33.8735
  20
36.8339
  42
1
  0
VERTEX
  8
Top
  10
33.1235
  20
36.8339
  42
1
  0
VERTEX
  8
Top
  10
33.8735
  20
36.8339
  42
1
  0
SEQEND
  0
POLYLINE
  8
Top
  6
CONTINUOUS
  66
1
  70
0
  40
0.75
  41
0.75
  0
VERTEX
  8
Top
  10
33.8735
  20
33.3376
  42
1
  0
VERTEX
  8
Top
  10
33.1235
  20
33.3376
  42
1
  0
VERTEX
  8
Top
  10
33.8735
  20
33.3376
  42
1
  0
SEQEND
  0
POLYLINE
  8
Top
  6
CONTINUOUS
  66
1
  70
0
  40
1.5
  41
1.5
  0
VERTEX
  8
Top
  10
26.5135
  20
33.3376
  42
0
  0
VERTEX
  8
Top
  10
26.5135
  20
36.8339
  42
0
  0
SEQEND
  0
POLYLINE
  8
Top
  6
CONTINUOUS
  66
1
  70
0
  40
0.75
  41
0.75
  0
VERTEX
  8
Top
  10
26.8885
  20
33.3376
  42
1
  0
VERTEX
  8
Top
  10
26.1385
  20
33.3376
  42
1
  0
VERTEX
  8
Top
  10
26.8885
  20
33.3376
  42
1
  0
SEQEND
  0
POLYLINE
  8
Top
  6
CONTINUOUS
  66
1
  70
0
  40
0.75
  41
0.75
  0
VERTEX
  8
Top
  10
26.8885
  20
36.8339
  42
1
  0
VERTEX
  8
Top
  10
26.1385
  20
36.8339
  42
1
  0
VERTEX
  8
Top
  10
26.8885
  20
36.8339
  42
1
  0
SEQEND
  0
POLYLINE
  8
Top
  6
CONTINUOUS
  66
1
  70
0
  40
1.5
  41
1.5
  0
VERTEX
  8
Top
  10
26.5135
  20
36.8339
  42
0
  0
VERTEX
  8
Top
  10
33.4985
  20
36.8339
  42
0
  0
SEQEND
  0
POLYLINE
  8
Top
  6
CONTINUOUS
  66
1
  70
0
  40
0.75
  41
0.75
  0
VERTEX
  8
Top
  10
26.8885
  20
36.8339
  42
1
  0
VERTEX
  8
Top
  10
26.1385
  20
36.8339
  42
1
  0
VERTEX
  8
Top
  10
26.8885
  20
36.8339
  42
1
  0
SEQEND
  0
POLYLINE
  8
Top
  6
CONTINUOUS
  66
1
  70
0
  40
0.75
  41
0.75
  0
VERTEX
  8
Top
  10
33.8735
  20
36.8339
  42
1
  0
VERTEX
  8
Top
  10
33.1235
  20
36.8339
  42
1
  0
VERTEX
  8
Top
  10
33.8735
  20
36.8339
  42
1
  0
SEQEND
  0
POLYLINE
  8
Top
  6
CONTINUOUS
  66
1
  70
0
  40
1.5
  41
1.5
  0
VERTEX
  8
Top
  10
19.5285
  20
33.3376
  42
0
  0
VERTEX
  8
Top
  10
19.5285
  20
35.8814
  42
0
  0
SEQEND
  0
POLYLINE
  8
Top
  6
CONTINUOUS
  66
1
  70
0
  40
0.75
  41
0.75
  0
VERTEX
  8
Top
  10
19.9035
  20
33.3376
  42
1
  0
VERTEX
  8
Top
  10
19.1535
  20
33.3376
  42
1
  0
VERTEX
  8
Top
  10
19.9035
  20
33.3376
  42
1
  0
SEQEND
  0
POLYLINE
  8
Top
  6
CONTINUOUS
  66
1
  70
0
  40
0.75
  41
0.75
  0
VERTEX
  8
Top
  10
19.9035
  20
35.8814
  42
1
  0
VERTEX
  8
Top
  10
19.1535
  20
35.8814
  42
1
  0
VERTEX
  8
Top
  10
19.9035
  20
35.8814
  42
1
  0
SEQEND
  0
POLYLINE
  8
Top
  6
CONTINUOUS
  66
1
  70
0
  40
1.5
  41
1.5
  0
VERTEX
  8
Top
  10
19.5285
  20
35.8814
  42
0
  0
VERTEX
  8
Top
  10
20.4809
  20
36.8339
  42
0
  0
SEQEND
  0
POLYLINE
  8
Top
  6
CONTINUOUS
  66
1
  70
0
  40
0.75
  41
0.75
  0
VERTEX
  8
Top
  10
19.9035
  20
35.8814
  42
1
  0
VERTEX
  8
Top
  10
19.1535
  20
35.8814
  42
1
  0
VERTEX
  8
Top
  10
19.9035
  20
35.8814
  42
1
  0
SEQEND
  0
POLYLINE
  8
Top
  6
CONTINUOUS
  66
1
  70
0
  40
0.75
  41
0.75
  0
VERTEX
  8
Top
  10
20.8559
  20
36.8339
  42
1
  0
VERTEX
  8
Top
  10
20.1059
  20
36.8339
  42
1
  0
VERTEX
  8
Top
  10
20.8559
  20
36.8339
  42
1
  0
SEQEND
  0
POLYLINE
  8
Top
  6
CONTINUOUS
  66
1
  70
0
  40
1.5
  41
1.5
  0
VERTEX
  8
Top
  10
20.4809
  20
36.8339
  42
0
  0
VERTEX
  8
Top
  10
26.5135
  20
36.8339
  42
0
  0
SEQEND
  0
POLYLINE
  8
Top
  6
CONTINUOUS
  66
1
  70
0
  40
0.75
  41
0.75
  0
VERTEX
  8
Top
  10
20.8559
  20
36.8339
  42
1
  0
VERTEX
  8
Top
  10
20.1059
  20
36.8339
  42
1
  0
VERTEX
  8
Top
  10
20.8559
  20
36.8339
  42
1
  0
SEQEND
  0
POLYLINE
  8
Top
  6
CONTINUOUS
  66
1
  70
0
  40
0.75
  41
0.75
  0
VERTEX
  8
Top
  10
26.8885
  20
36.8339
  42
1
  0
VERTEX
  8
Top
  10
26.1385
  20
36.8339
  42
1
  0
VERTEX
  8
Top
  10
26.8885
  20
36.8339
  42
1
  0
SEQEND
  0
POLYLINE
  8
Top
  6
CONTINUOUS
  66
1
  70
0
  40
1.5
  41
1.5
  0
VERTEX
  8
Top
  10
46.2011
  20
33.341
  42
0
  0
VERTEX
  8
Top
  10
46.2011
  20
25.7211
  42
0
  0
SEQEND
  0
POLYLINE
  8
Top
  6
CONTINUOUS
  66
1
  70
0
  40
0.75
  41
0.75
  0
VERTEX
  8
Top
  10
46.5761
  20
33.341
  42
1
  0
VERTEX
  8
Top
  10
45.8261
  20
33.341
  42
1
  0
VERTEX
  8
Top
  10
46.5761
  20
33.341
  42
1
  0
SEQEND
  0
POLYLINE
  8
Top
  6
CONTINUOUS
  66
1
  70
0
  40
0.75
  41
0.75
  0
VERTEX
  8
Top
  10
46.5761
  20
25.7211
  42
1
  0
VERTEX
  8
Top
  10
45.8261
  20
25.7211
  42
1
  0
VERTEX
  8
Top
  10
46.5761
  20
25.7211
  42
1
  0
SEQEND
  0
POLYLINE
  8
Top
  6
CONTINUOUS
  66
1
  70
0
  40
1.5
  41
1.5
  0
VERTEX
  8
Top
  10
46.2011
  20
25.7211
  42
0
  0
VERTEX
  8
Top
  10
45.5652
  20
25.0851
  42
0
  0
SEQEND
  0
POLYLINE
  8
Top
  6
CONTINUOUS
  66
1
  70
0
  40
0.75
  41
0.75
  0
VERTEX
  8
Top
  10
46.5761
  20
25.7211
  42
1
  0
VERTEX
  8
Top
  10
45.8261
  20
25.7211
  42
1
  0
VERTEX
  8
Top
  10
46.5761
  20
25.7211
  42
1
  0
SEQEND
  0
POLYLINE
  8
Top
  6
CONTINUOUS
  66
1
  70
0
  40
0.75
  41
0.75
  0
VERTEX
  8
Top
  10
45.9402
  20
25.0851
  42
1
  0
VERTEX
  8
Top
  10
45.1902
  20
25.0851
  42
1
  0
VERTEX
  8
Top
  10
45.9402
  20
25.0851
  42
1
  0
SEQEND
  0
POLYLINE
  8
Top
  6
CONTINUOUS
  66
1
  70
0
  40
0.6
  41
0.6
  0
VERTEX
  8
Top
  10
45.5652
  20
25.0851
  42
0
  0
VERTEX
  8
Top
  10
47.4712
  20
23.1791
  42
0
  0
SEQEND
  0
POLYLINE
  8
Top
  6
CONTINUOUS
  66
1
  70
0
  40
0.3
  41
0.3
  0
VERTEX
  8
Top
  10
45.7152
  20
25.0851
  42
1
  0
VERTEX
  8
Top
  10
45.4152
  20
25.0851
  42
1
  0
VERTEX
  8
Top
  10
45.7152
  20
25.0851
  42
1
  0
SEQEND
  0
POLYLINE
  8
Top
  6
CONTINUOUS
  66
1
  70
0
  40
0.3
  41
0.3
  0
VERTEX
  8
Top
  10
47.6212
  20
23.1791
  42
1
  0
VERTEX
  8
Top
  10
47.3212
  20
23.1791
  42
1
  0
VERTEX
  8
Top
  10
47.6212
  20
23.1791
  42
1
  0
SEQEND
  0
POLYLINE
  8
Top
  6
CONTINUOUS
  66
1
  70
0
  40
0.6
  41
0.6
  0
VERTEX
  8
Top
  10
47.4712
  20
23.1791
  42
0
  0
VERTEX
  8
Top
  10
47.4712
  20
15.5591
  42
0
  0
SEQEND
  0
POLYLINE
  8
Top
  6
CONTINUOUS
  66
1
  70
0
  40
0.3
  41
0.3
  0
VERTEX
  8
Top
  10
47.6212
  20
23.1791
  42
1
  0
VERTEX
  8
Top
  10
47.3212
  20
23.1791
  42
1
  0
VERTEX
  8
Top
  10
47.6212
  20
23.1791
  42
1
  0
SEQEND
  0
POLYLINE
  8
Top
  6
CONTINUOUS
  66
1
  70
0
  40
0.3
  41
0.3
  0
VERTEX
  8
Top
  10
47.6212
  20
15.5591
  42
1
  0
VERTEX
  8
Top
  10
47.3212
  20
15.5591
  42
1
  0
VERTEX
  8
Top
  10
47.6212
  20
15.5591
  42
1
  0
SEQEND
  0
POLYLINE
  8
Top
  6
CONTINUOUS
  66
1
  70
0
  40
0.6
  41
0.6
  0
VERTEX
  8
Top
  10
47.4712
  20
15.5591
  42
0
  0
VERTEX
  8
Top
  10
45.7248
  20
13.8127
  42
0
  0
SEQEND
  0
POLYLINE
  8
Top
  6
CONTINUOUS
  66
1
  70
0
  40
0.3
  41
0.3
  0
VERTEX
  8
Top
  10
47.6212
  20
15.5591
  42
1
  0
VERTEX
  8
Top
  10
47.3212
  20
15.5591
  42
1
  0
VERTEX
  8
Top
  10
47.6212
  20
15.5591
  42
1
  0
SEQEND
  0
POLYLINE
  8
Top
  6
CONTINUOUS
  66
1
  70
0
  40
0.3
  41
0.3
  0
VERTEX
  8
Top
  10
45.8748
  20
13.8127
  42
1
  0
VERTEX
  8
Top
  10
45.5748
  20
13.8127
  42
1
  0
VERTEX
  8
Top
  10
45.8748
  20
13.8127
  42
1
  0
SEQEND
  0
POLYLINE
  8
Top
  6
CONTINUOUS
  66
1
  70
0
  40
0.6
  41
0.6
  0
VERTEX
  8
Top
  10
45.7248
  20
13.8127
  42
0
  0
VERTEX
  8
Top
  10
38.2462
  20
13.8127
  42
0
  0
SEQEND
  0
POLYLINE
  8
Top
  6
CONTINUOUS
  66
1
  70
0
  40
0.3
  41
0.3
  0
VERTEX
  8
Top
  10
45.8748
  20
13.8127
  42
1
  0
VERTEX
  8
Top
  10
45.5748
  20
13.8127
  42
1
  0
VERTEX
  8
Top
  10
45.8748
  20
13.8127
  42
1
  0
SEQEND
  0
POLYLINE
  8
Top
  6
CONTINUOUS
  66
1
  70
0
  40
0.3
  41
0.3
  0
VERTEX
  8
Top
  10
38.3962
  20
13.8127
  42
1
  0
VERTEX
  8
Top
  10
38.0962
  20
13.8127
  42
1
  0
VERTEX
  8
Top
  10
38.3962
  20
13.8127
  42
1
  0
SEQEND
  0
POLYLINE
  8
Top
  6
CONTINUOUS
  66
1
  70
0
  40
0.45
  41
0.45
  0
VERTEX
  8
Top
  10
18.9596
  20
8.5067
  42
0
  0
VERTEX
  8
Top
  10
20.1631
  20
7.3033
  42
0
  0
SEQEND
  0
POLYLINE
  8
Top
  6
CONTINUOUS
  66
1
  70
0
  40
0.225
  41
0.225
  0
VERTEX
  8
Top
  10
19.0721
  20
8.5067
  42
1
  0
VERTEX
  8
Top
  10
18.8471
  20
8.5067
  42
1
  0
VERTEX
  8
Top
  10
19.0721
  20
8.5067
  42
1
  0
SEQEND
  0
POLYLINE
  8
Top
  6
CONTINUOUS
  66
1
  70
0
  40
0.225
  41
0.225
  0
VERTEX
  8
Top
  10
20.2756
  20
7.3033
  42
1
  0
VERTEX
  8
Top
  10
20.0506
  20
7.3033
  42
1
  0
VERTEX
  8
Top
  10
20.2756
  20
7.3033
  42
1
  0
SEQEND
  0
POLYLINE
  8
Top
  6
CONTINUOUS
  66
1
  70
0
  40
0.45
  41
0.45
  0
VERTEX
  8
Top
  10
20.1631
  20
7.3033
  42
0
  0
VERTEX
  8
Top
  10
38.104
  20
7.3033
  42
0
  0
SEQEND
  0
POLYLINE
  8
Top
  6
CONTINUOUS
  66
1
  70
0
  40
0.225
  41
0.225
  0
VERTEX
  8
Top
  10
20.2756
  20
7.3033
  42
1
  0
VERTEX
  8
Top
  10
20.0506
  20
7.3033
  42
1
  0
VERTEX
  8
Top
  10
20.2756
  20
7.3033
  42
1
  0
SEQEND
  0
POLYLINE
  8
Top
  6
CONTINUOUS
  66
1
  70
0
  40
0.225
  41
0.225
  0
VERTEX
  8
Top
  10
38.2165
  20
7.3033
  42
1
  0
VERTEX
  8
Top
  10
37.9915
  20
7.3033
  42
1
  0
VERTEX
  8
Top
  10
38.2165
  20
7.3033
  42
1
  0
SEQEND
  0
POLYLINE
  8
Top
  6
CONTINUOUS
  66
1
  70
0
  40
0.45
  41
0.45
  0
VERTEX
  8
Top
  10
38.104
  20
7.3033
  42
0
  0
VERTEX
  8
Top
  10
40.803
  20
4.6042
  42
0
  0
SEQEND
  0
POLYLINE
  8
Top
  6
CONTINUOUS
  66
1
  70
0
  40
0.225
  41
0.225
  0
VERTEX
  8
Top
  10
38.2165
  20
7.3033
  42
1
  0
VERTEX
  8
Top
  10
37.9915
  20
7.3033
  42
1
  0
VERTEX
  8
Top
  10
38.2165
  20
7.3033
  42
1
  0
SEQEND
  0
POLYLINE
  8
Top
  6
CONTINUOUS
  66
1
  70
0
  40
0.225
  41
0.225
  0
VERTEX
  8
Top
  10
40.9155
  20
4.6042
  42
1
  0
VERTEX
  8
Top
  10
40.6905
  20
4.6042
  42
1
  0
VERTEX
  8
Top
  10
40.9155
  20
4.6042
  42
1
  0
SEQEND
  0
POLYLINE
  8
Top
  6
CONTINUOUS
  66
1
  70
0
  40
0.45
  41
0.45
  0
VERTEX
  8
Top
  10
10.9549
  20
4.6042
  42
0
  0
VERTEX
  8
Top
  10
10.9549
  20
6.6682
  42
0
  0
SEQEND
  0
POLYLINE
  8
Top
  6
CONTINUOUS
  66
1
  70
0
  40
0.225
  41
0.225
  0
VERTEX
  8
Top
  10
11.0674
  20
4.6042
  42
1
  0
VERTEX
  8
Top
  10
10.8424
  20
4.6042
  42
1
  0
VERTEX
  8
Top
  10
11.0674
  20
4.6042
  42
1
  0
SEQEND
  0
POLYLINE
  8
Top
  6
CONTINUOUS
  66
1
  70
0
  40
0.225
  41
0.225
  0
VERTEX
  8
Top
  10
11.0674
  20
6.6682
  42
1
  0
VERTEX
  8
Top
  10
10.8424
  20
6.6682
  42
1
  0
VERTEX
  8
Top
  10
11.0674
  20
6.6682
  42
1
  0
SEQEND
  0
POLYLINE
  8
Top
  6
CONTINUOUS
  66
1
  70
0
  40
0.45
  41
0.45
  0
VERTEX
  8
Top
  10
10.9549
  20
6.6682
  42
0
  0
VERTEX
  8
Top
  10
9.2085
  20
8.4146
  42
0
  0
SEQEND
  0
POLYLINE
  8
Top
  6
CONTINUOUS
  66
1
  70
0
  40
0.225
  41
0.225
  0
VERTEX
  8
Top
  10
11.0674
  20
6.6682
  42
1
  0
VERTEX
  8
Top
  10
10.8424
  20
6.6682
  42
1
  0
VERTEX
  8
Top
  10
11.0674
  20
6.6682
  42
1
  0
SEQEND
  0
POLYLINE
  8
Top
  6
CONTINUOUS
  66
1
  70
0
  40
0.225
  41
0.225
  0
VERTEX
  8
Top
  10
9.321
  20
8.4146
  42
1
  0
VERTEX
  8
Top
  10
9.096
  20
8.4146
  42
1
  0
VERTEX
  8
Top
  10
9.321
  20
8.4146
  42
1
  0
SEQEND
  0
POLYLINE
  8
Top
  6
CONTINUOUS
  66
1
  70
0
  40
0.45
  41
0.45
  0
VERTEX
  8
Top
  10
9.2085
  20
8.4146
  42
0
  0
VERTEX
  8
Top
  10
9.2085
  20
12.8601
  42
0
  0
SEQEND
  0
POLYLINE
  8
Top
  6
CONTINUOUS
  66
1
  70
0
  40
0.225
  41
0.225
  0
VERTEX
  8
Top
  10
9.321
  20
8.4146
  42
1
  0
VERTEX
  8
Top
  10
9.096
  20
8.4146
  42
1
  0
VERTEX
  8
Top
  10
9.321
  20
8.4146
  42
1
  0
SEQEND
  0
POLYLINE
  8
Top
  6
CONTINUOUS
  66
1
  70
0
  40
0.225
  41
0.225
  0
VERTEX
  8
Top
  10
9.321
  20
12.8601
  42
1
  0
VERTEX
  8
Top
  10
9.096
  20
12.8601
  42
1
  0
VERTEX
  8
Top
  10
9.321
  20
12.8601
  42
1
  0
SEQEND
  0
POLYLINE
  8
Top
  6
CONTINUOUS
  66
1
  70
0
  40
0.45
  41
0.45
  0
VERTEX
  8
Top
  10
9.2085
  20
12.8601
  42
0
  0
VERTEX
  8
Top
  10
11.59
  20
15.2416
  42
0
  0
SEQEND
  0
POLYLINE
  8
Top
  6
CONTINUOUS
  66
1
  70
0
  40
0.225
  41
0.225
  0
VERTEX
  8
Top
  10
9.321
  20
12.8601
  42
1
  0
VERTEX
  8
Top
  10
9.096
  20
12.8601
  42
1
  0
VERTEX
  8
Top
  10
9.321
  20
12.8601
  42
1
  0
SEQEND
  0
POLYLINE
  8
Top
  6
CONTINUOUS
  66
1
  70
0
  40
0.225
  41
0.225
  0
VERTEX
  8
Top
  10
11.7025
  20
15.2416
  42
1
  0
VERTEX
  8
Top
  10
11.4775
  20
15.2416
  42
1
  0
VERTEX
  8
Top
  10
11.7025
  20
15.2416
  42
1
  0
SEQEND
  0
POLYLINE
  8
Top
  6
CONTINUOUS
  66
1
  70
0
  40
0.45
  41
0.45
  0
VERTEX
  8
Top
  10
11.59
  20
15.2416
  42
0
  0
VERTEX
  8
Top
  10
12.2248
  20
15.2416
  42
0
  0
SEQEND
  0
POLYLINE
  8
Top
  6
CONTINUOUS
  66
1
  70
0
  40
0.225
  41
0.225
  0
VERTEX
  8
Top
  10
11.7025
  20
15.2416
  42
1
  0
VERTEX
  8
Top
  10
11.4775
  20
15.2416
  42
1
  0
VERTEX
  8
Top
  10
11.7025
  20
15.2416
  42
1
  0
SEQEND
  0
POLYLINE
  8
Top
  6
CONTINUOUS
  66
1
  70
0
  40
0.225
  41
0.225
  0
VERTEX
  8
Top
  10
12.3373
  20
15.2416
  42
1
  0
VERTEX
  8
Top
  10
12.1123
  20
15.2416
  42
1
  0
VERTEX
  8
Top
  10
12.3373
  20
15.2416
  42
1
  0
SEQEND
  0
POLYLINE
  8
Top
  6
CONTINUOUS
  66
1
  70
0
  40
0.45
  41
0.45
  0
VERTEX
  8
Top
  10
12.2248
  20
15.2416
  42
0
  0
VERTEX
  8
Top
  10
13.02
  20
14.4464
  42
0
  0
SEQEND
  0
POLYLINE
  8
Top
  6
CONTINUOUS
  66
1
  70
0
  40
0.225
  41
0.225
  0
VERTEX
  8
Top
  10
12.3373
  20
15.2416
  42
1
  0
VERTEX
  8
Top
  10
12.1123
  20
15.2416
  42
1
  0
VERTEX
  8
Top
  10
12.3373
  20
15.2416
  42
1
  0
SEQEND
  0
POLYLINE
  8
Top
  6
CONTINUOUS
  66
1
  70
0
  40
0.225
  41
0.225
  0
VERTEX
  8
Top
  10
13.1325
  20
14.4464
  42
1
  0
VERTEX
  8
Top
  10
12.9075
  20
14.4464
  42
1
  0
VERTEX
  8
Top
  10
13.1325
  20
14.4464
  42
1
  0
SEQEND
  0
POLYLINE
  8
Top
  6
CONTINUOUS
  66
1
  70
0
  40
0.45
  41
0.45
  0
VERTEX
  8
Top
  10
19.5253
  20
9.0724
  42
0
  0
VERTEX
  8
Top
  10
20.3419
  20
8.2559
  42
0
  0
SEQEND
  0
POLYLINE
  8
Top
  6
CONTINUOUS
  66
1
  70
0
  40
0.225
  41
0.225
  0
VERTEX
  8
Top
  10
19.6378
  20
9.0724
  42
1
  0
VERTEX
  8
Top
  10
19.4128
  20
9.0724
  42
1
  0
VERTEX
  8
Top
  10
19.6378
  20
9.0724
  42
1
  0
SEQEND
  0
POLYLINE
  8
Top
  6
CONTINUOUS
  66
1
  70
0
  40
0.225
  41
0.225
  0
VERTEX
  8
Top
  10
20.4544
  20
8.2559
  42
1
  0
VERTEX
  8
Top
  10
20.2294
  20
8.2559
  42
1
  0
VERTEX
  8
Top
  10
20.4544
  20
8.2559
  42
1
  0
SEQEND
  0
POLYLINE
  8
Top
  6
CONTINUOUS
  66
1
  70
0
  40
0.45
  41
0.45
  0
VERTEX
  8
Top
  10
20.3419
  20
8.2559
  42
0
  0
VERTEX
  8
Top
  10
40.168
  20
8.2559
  42
0
  0
SEQEND
  0
POLYLINE
  8
Top
  6
CONTINUOUS
  66
1
  70
0
  40
0.225
  41
0.225
  0
VERTEX
  8
Top
  10
20.4544
  20
8.2559
  42
1
  0
VERTEX
  8
Top
  10
20.2294
  20
8.2559
  42
1
  0
VERTEX
  8
Top
  10
20.4544
  20
8.2559
  42
1
  0
SEQEND
  0
POLYLINE
  8
Top
  6
CONTINUOUS
  66
1
  70
0
  40
0.225
  41
0.225
  0
VERTEX
  8
Top
  10
40.2805
  20
8.2559
  42
1
  0
VERTEX
  8
Top
  10
40.0555
  20
8.2559
  42
1
  0
VERTEX
  8
Top
  10
40.2805
  20
8.2559
  42
1
  0
SEQEND
  0
POLYLINE
  8
Top
  6
CONTINUOUS
  66
1
  70
0
  40
0.45
  41
0.45
  0
VERTEX
  8
Top
  10
40.168
  20
8.2559
  42
0
  0
VERTEX
  8
Top
  10
43.8196
  20
4.6042
  42
0
  0
SEQEND
  0
POLYLINE
  8
Top
  6
CONTINUOUS
  66
1
  70
0
  40
0.225
  41
0.225
  0
VERTEX
  8
Top
  10
40.2805
  20
8.2559
  42
1
  0
VERTEX
  8
Top
  10
40.0555
  20
8.2559
  42
1
  0
VERTEX
  8
Top
  10
40.2805
  20
8.2559
  42
1
  0
SEQEND
  0
POLYLINE
  8
Top
  6
CONTINUOUS
  66
1
  70
0
  40
0.225
  41
0.225
  0
VERTEX
  8
Top
  10
43.9321
  20
4.6042
  42
1
  0
VERTEX
  8
Top
  10
43.7071
  20
4.6042
  42
1
  0
VERTEX
  8
Top
  10
43.9321
  20
4.6042
  42
1
  0
SEQEND
  0
POLYLINE
  8
Top
  6
CONTINUOUS
  66
1
  70
0
  40
0.45
  41
0.45
  0
VERTEX
  8
Top
  10
7.9383
  20
4.6042
  42
0
  0
VERTEX
  8
Top
  10
7.9383
  20
13.4952
  42
0
  0
SEQEND
  0
POLYLINE
  8
Top
  6
CONTINUOUS
  66
1
  70
0
  40
0.225
  41
0.225
  0
VERTEX
  8
Top
  10
8.0508
  20
4.6042
  42
1
  0
VERTEX
  8
Top
  10
7.8258
  20
4.6042
  42
1
  0
VERTEX
  8
Top
  10
8.0508
  20
4.6042
  42
1
  0
SEQEND
  0
POLYLINE
  8
Top
  6
CONTINUOUS
  66
1
  70
0
  40
0.225
  41
0.225
  0
VERTEX
  8
Top
  10
8.0508
  20
13.4952
  42
1
  0
VERTEX
  8
Top
  10
7.8258
  20
13.4952
  42
1
  0
VERTEX
  8
Top
  10
8.0508
  20
13.4952
  42
1
  0
SEQEND
  0
POLYLINE
  8
Top
  6
CONTINUOUS
  66
1
  70
0
  40
0.45
  41
0.45
  0
VERTEX
  8
Top
  10
7.9383
  20
13.4952
  42
0
  0
VERTEX
  8
Top
  10
10.4786
  20
16.0354
  42
0
  0
SEQEND
  0
POLYLINE
  8
Top
  6
CONTINUOUS
  66
1
  70
0
  40
0.225
  41
0.225
  0
VERTEX
  8
Top
  10
8.0508
  20
13.4952
  42
1
  0
VERTEX
  8
Top
  10
7.8258
  20
13.4952
  42
1
  0
VERTEX
  8
Top
  10
8.0508
  20
13.4952
  42
1
  0
SEQEND
  0
POLYLINE
  8
Top
  6
CONTINUOUS
  66
1
  70
0
  40
0.225
  41
0.225
  0
VERTEX
  8
Top
  10
10.5911
  20
16.0354
  42
1
  0
VERTEX
  8
Top
  10
10.3661
  20
16.0354
  42
1
  0
VERTEX
  8
Top
  10
10.5911
  20
16.0354
  42
1
  0
SEQEND
  0
POLYLINE
  8
Top
  6
CONTINUOUS
  66
1
  70
0
  40
0.45
  41
0.45
  0
VERTEX
  8
Top
  10
10.4786
  20
16.0354
  42
0
  0
VERTEX
  8
Top
  10
12.5623
  20
16.0354
  42
0
  0
SEQEND
  0
POLYLINE
  8
Top
  6
CONTINUOUS
  66
1
  70
0
  40
0.225
  41
0.225
  0
VERTEX
  8
Top
  10
10.5911
  20
16.0354
  42
1
  0
VERTEX
  8
Top
  10
10.3661
  20
16.0354
  42
1
  0
VERTEX
  8
Top
  10
10.5911
  20
16.0354
  42
1
  0
SEQEND
  0
POLYLINE
  8
Top
  6
CONTINUOUS
  66
1
  70
0
  40
0.225
  41
0.225
  0
VERTEX
  8
Top
  10
12.6748
  20
16.0354
  42
1
  0
VERTEX
  8
Top
  10
12.4498
  20
16.0354
  42
1
  0
VERTEX
  8
Top
  10
12.6748
  20
16.0354
  42
1
  0
SEQEND
  0
POLYLINE
  8
Top
  6
CONTINUOUS
  66
1
  70
0
  40
0.45
  41
0.45
  0
VERTEX
  8
Top
  10
12.5623
  20
16.0354
  42
0
  0
VERTEX
  8
Top
  10
13.5857
  20
15.0121
  42
0
  0
SEQEND
  0
POLYLINE
  8
Top
  6
CONTINUOUS
  66
1
  70
0
  40
0.225
  41
0.225
  0
VERTEX
  8
Top
  10
12.6748
  20
16.0354
  42
1
  0
VERTEX
  8
Top
  10
12.4498
  20
16.0354
  42
1
  0
VERTEX
  8
Top
  10
12.6748
  20
16.0354
  42
1
  0
SEQEND
  0
POLYLINE
  8
Top
  6
CONTINUOUS
  66
1
  70
0
  40
0.225
  41
0.225
  0
VERTEX
  8
Top
  10
13.6982
  20
15.0121
  42
1
  0
VERTEX
  8
Top
  10
13.4732
  20
15.0121
  42
1
  0
VERTEX
  8
Top
  10
13.6982
  20
15.0121
  42
1
  0
SEQEND
  0
POLYLINE
  8
Top
  6
CONTINUOUS
  66
1
  70
0
  40
0.45
  41
0.45
  0
VERTEX
  8
Top
  10
14.1513
  20
15.5778
  42
0
  0
VERTEX
  8
Top
  10
15.4984
  20
14.2308
  42
0
  0
SEQEND
  0
POLYLINE
  8
Top
  6
CONTINUOUS
  66
1
  70
0
  40
0.225
  41
0.225
  0
VERTEX
  8
Top
  10
14.2638
  20
15.5778
  42
1
  0
VERTEX
  8
Top
  10
14.0388
  20
15.5778
  42
1
  0
VERTEX
  8
Top
  10
14.2638
  20
15.5778
  42
1
  0
SEQEND
  0
POLYLINE
  8
Top
  6
CONTINUOUS
  66
1
  70
0
  40
0.225
  41
0.225
  0
VERTEX
  8
Top
  10
15.6109
  20
14.2308
  42
1
  0
VERTEX
  8
Top
  10
15.3859
  20
14.2308
  42
1
  0
VERTEX
  8
Top
  10
15.6109
  20
14.2308
  42
1
  0
SEQEND
  0
POLYLINE
  8
Top
  6
CONTINUOUS
  66
1
  70
0
  40
0.45
  41
0.45
  0
VERTEX
  8
Top
  10
15.4984
  20
14.2308
  42
0
  0
VERTEX
  8
Top
  10
16.064
  20
14.7964
  42
0
  0
SEQEND
  0
POLYLINE
  8
Top
  6
CONTINUOUS
  66
1
  70
0
  40
0.225
  41
0.225
  0
VERTEX
  8
Top
  10
15.6109
  20
14.2308
  42
1
  0
VERTEX
  8
Top
  10
15.3859
  20
14.2308
  42
1
  0
VERTEX
  8
Top
  10
15.6109
  20
14.2308
  42
1
  0
SEQEND
  0
POLYLINE
  8
Top
  6
CONTINUOUS
  66
1
  70
0
  40
0.225
  41
0.225
  0
VERTEX
  8
Top
  10
16.1765
  20
14.7964
  42
1
  0
VERTEX
  8
Top
  10
15.9515
  20
14.7964
  42
1
  0
VERTEX
  8
Top
  10
16.1765
  20
14.7964
  42
1
  0
SEQEND
  0
POLYLINE
  8
Top
  6
CONTINUOUS
  66
1
  70
0
  40
0.45
  41
0.45
  0
VERTEX
  8
Top
  10
16.064
  20
14.7964
  42
0
  0
VERTEX
  8
Top
  10
16.6297
  20
15.3621
  42
0
  0
SEQEND
  0
POLYLINE
  8
Top
  6
CONTINUOUS
  66
1
  70
0
  40
0.225
  41
0.225
  0
VERTEX
  8
Top
  10
16.1765
  20
14.7964
  42
1
  0
VERTEX
  8
Top
  10
15.9515
  20
14.7964
  42
1
  0
VERTEX
  8
Top
  10
16.1765
  20
14.7964
  42
1
  0
SEQEND
  0
POLYLINE
  8
Top
  6
CONTINUOUS
  66
1
  70
0
  40
0.225
  41
0.225
  0
VERTEX
  8
Top
  10
16.7422
  20
15.3621
  42
1
  0
VERTEX
  8
Top
  10
16.5172
  20
15.3621
  42
1
  0
VERTEX
  8
Top
  10
16.7422
  20
15.3621
  42
1
  0
SEQEND
  0
POLYLINE
  8
Top
  6
CONTINUOUS
  66
1
  70
0
  40
0.45
  41
0.45
  0
VERTEX
  8
Top
  10
16.6297
  20
15.3621
  42
0
  0
VERTEX
  8
Top
  10
15.2827
  20
16.7092
  42
0
  0
SEQEND
  0
POLYLINE
  8
Top
  6
CONTINUOUS
  66
1
  70
0
  40
0.225
  41
0.225
  0
VERTEX
  8
Top
  10
16.7422
  20
15.3621
  42
1
  0
VERTEX
  8
Top
  10
16.5172
  20
15.3621
  42
1
  0
VERTEX
  8
Top
  10
16.7422
  20
15.3621
  42
1
  0
SEQEND
  0
POLYLINE
  8
Top
  6
CONTINUOUS
  66
1
  70
0
  40
0.225
  41
0.225
  0
VERTEX
  8
Top
  10
15.3952
  20
16.7092
  42
1
  0
VERTEX
  8
Top
  10
15.1702
  20
16.7092
  42
1
  0
VERTEX
  8
Top
  10
15.3952
  20
16.7092
  42
1
  0
SEQEND
  0
POLYLINE
  8
Top
  6
CONTINUOUS
  66
1
  70
0
  40
0.45
  41
0.45
  0
VERTEX
  8
Top
  10
20.6567
  20
10.2038
  42
0
  0
VERTEX
  8
Top
  10
16.064
  20
14.7964
  42
0
  0
SEQEND
  0
POLYLINE
  8
Top
  6
CONTINUOUS
  66
1
  70
0
  40
0.225
  41
0.225
  0
VERTEX
  8
Top
  10
20.7692
  20
10.2038
  42
1
  0
VERTEX
  8
Top
  10
20.5442
  20
10.2038
  42
1
  0
VERTEX
  8
Top
  10
20.7692
  20
10.2038
  42
1
  0
SEQEND
  0
POLYLINE
  8
Top
  6
CONTINUOUS
  66
1
  70
0
  40
0.225
  41
0.225
  0
VERTEX
  8
Top
  10
16.1765
  20
14.7964
  42
1
  0
VERTEX
  8
Top
  10
15.9515
  20
14.7964
  42
1
  0
VERTEX
  8
Top
  10
16.1765
  20
14.7964
  42
1
  0
SEQEND
  0
POLYLINE
  8
Top
  6
CONTINUOUS
  66
1
  70
0
  40
1.5
  41
1.5
  0
VERTEX
  8
Top
  10
42.7011
  20
33.341
  42
0
  0
VERTEX
  8
Top
  10
42.7011
  20
25.7131
  42
0
  0
SEQEND
  0
POLYLINE
  8
Top
  6
CONTINUOUS
  66
1
  70
0
  40
0.75
  41
0.75
  0
VERTEX
  8
Top
  10
43.0761
  20
33.341
  42
1
  0
VERTEX
  8
Top
  10
42.3261
  20
33.341
  42
1
  0
VERTEX
  8
Top
  10
43.0761
  20
33.341
  42
1
  0
SEQEND
  0
POLYLINE
  8
Top
  6
CONTINUOUS
  66
1
  70
0
  40
0.75
  41
0.75
  0
VERTEX
  8
Top
  10
43.0761
  20
25.7131
  42
1
  0
VERTEX
  8
Top
  10
42.3261
  20
25.7131
  42
1
  0
VERTEX
  8
Top
  10
43.0761
  20
25.7131
  42
1
  0
SEQEND
  0
POLYLINE
  8
Top
  6
CONTINUOUS
  66
1
  70
0
  40
1.5
  41
1.5
  0
VERTEX
  8
Top
  10
42.7011
  20
25.7131
  42
0
  0
VERTEX
  8
Top
  10
42.0732
  20
25.0851
  42
0
  0
SEQEND
  0
POLYLINE
  8
Top
  6
CONTINUOUS
  66
1
  70
0
  40
0.75
  41
0.75
  0
VERTEX
  8
Top
  10
43.0761
  20
25.7131
  42
1
  0
VERTEX
  8
Top
  10
42.3261
  20
25.7131
  42
1
  0
VERTEX
  8
Top
  10
43.0761
  20
25.7131
  42
1
  0
SEQEND
  0
POLYLINE
  8
Top
  6
CONTINUOUS
  66
1
  70
0
  40
0.75
  41
0.75
  0
VERTEX
  8
Top
  10
42.4482
  20
25.0851
  42
1
  0
VERTEX
  8
Top
  10
41.6982
  20
25.0851
  42
1
  0
VERTEX
  8
Top
  10
42.4482
  20
25.0851
  42
1
  0
SEQEND
  0
POLYLINE
  8
Top
  6
CONTINUOUS
  66
1
  70
0
  40
0.8
  41
0.8
  0
VERTEX
  8
Top
  10
38.896
  20
24.4477
  42
0
  0
VERTEX
  8
Top
  10
37.626
  20
24.4482
  42
0
  0
SEQEND
  0
POLYLINE
  8
Top
  6
CONTINUOUS
  66
1
  70
0
  40
0.4
  41
0.4
  0
VERTEX
  8
Top
  10
39.096
  20
24.4477
  42
1
  0
VERTEX
  8
Top
  10
38.696
  20
24.4477
  42
1
  0
VERTEX
  8
Top
  10
39.096
  20
24.4477
  42
1
  0
SEQEND
  0
POLYLINE
  8
Top
  6
CONTINUOUS
  66
1
  70
0
  40
0.4
  41
0.4
  0
VERTEX
  8
Top
  10
37.826
  20
24.4482
  42
1
  0
VERTEX
  8
Top
  10
37.426
  20
24.4482
  42
1
  0
VERTEX
  8
Top
  10
37.826
  20
24.4482
  42
1
  0
SEQEND
  0
POLYLINE
  8
Top
  6
CONTINUOUS
  66
1
  70
0
  40
0.5
  41
0.5
  0
VERTEX
  8
Top
  10
37.626
  20
24.4482
  42
0
  0
VERTEX
  8
Top
  10
36.991
  20
24.4482
  42
0
  0
SEQEND
  0
POLYLINE
  8
Top
  6
CONTINUOUS
  66
1
  70
0
  40
0.25
  41
0.25
  0
VERTEX
  8
Top
  10
37.751
  20
24.4482
  42
1
  0
VERTEX
  8
Top
  10
37.501
  20
24.4482
  42
1
  0
VERTEX
  8
Top
  10
37.751
  20
24.4482
  42
1
  0
SEQEND
  0
POLYLINE
  8
Top
  6
CONTINUOUS
  66
1
  70
0
  40
0.25
  41
0.25
  0
VERTEX
  8
Top
  10
37.116
  20
24.4482
  42
1
  0
VERTEX
  8
Top
  10
36.866
  20
24.4482
  42
1
  0
VERTEX
  8
Top
  10
37.116
  20
24.4482
  42
1
  0
SEQEND
  0
POLYLINE
  8
Top
  6
CONTINUOUS
  66
1
  70
0
  40
0.5
  41
0.5
  0
VERTEX
  8
Top
  10
36.991
  20
24.4482
  42
0
  0
VERTEX
  8
Top
  10
36.356
  20
24.4482
  42
0
  0
SEQEND
  0
POLYLINE
  8
Top
  6
CONTINUOUS
  66
1
  70
0
  40
0.25
  41
0.25
  0
VERTEX
  8
Top
  10
37.116
  20
24.4482
  42
1
  0
VERTEX
  8
Top
  10
36.866
  20
24.4482
  42
1
  0
VERTEX
  8
Top
  10
37.116
  20
24.4482
  42
1
  0
SEQEND
  0
POLYLINE
  8
Top
  6
CONTINUOUS
  66
1
  70
0
  40
0.25
  41
0.25
  0
VERTEX
  8
Top
  10
36.481
  20
24.4482
  42
1
  0
VERTEX
  8
Top
  10
36.231
  20
24.4482
  42
1
  0
VERTEX
  8
Top
  10
36.481
  20
24.4482
  42
1
  0
SEQEND
  0
POLYLINE
  8
Top
  6
CONTINUOUS
  66
1
  70
0
  40
0.45
  41
0.45
  0
VERTEX
  8
Top
  10
31.9109
  20
24.4477
  42
0
  0
VERTEX
  8
Top
  10
30.6414
  20
24.4477
  42
0
  0
SEQEND
  0
POLYLINE
  8
Top
  6
CONTINUOUS
  66
1
  70
0
  40
0.225
  41
0.225
  0
VERTEX
  8
Top
  10
32.0234
  20
24.4477
  42
1
  0
VERTEX
  8
Top
  10
31.7984
  20
24.4477
  42
1
  0
VERTEX
  8
Top
  10
32.0234
  20
24.4477
  42
1
  0
SEQEND
  0
POLYLINE
  8
Top
  6
CONTINUOUS
  66
1
  70
0
  40
0.225
  41
0.225
  0
VERTEX
  8
Top
  10
30.7539
  20
24.4477
  42
1
  0
VERTEX
  8
Top
  10
30.5289
  20
24.4477
  42
1
  0
VERTEX
  8
Top
  10
30.7539
  20
24.4477
  42
1
  0
SEQEND
  0
POLYLINE
  8
Top
  6
CONTINUOUS
  66
1
  70
0
  40
0.45
  41
0.45
  0
VERTEX
  8
Top
  10
30.6414
  20
24.4477
  42
0
  0
VERTEX
  8
Top
  10
30.6409
  20
24.4482
  42
0
  0
SEQEND
  0
POLYLINE
  8
Top
  6
CONTINUOUS
  66
1
  70
0
  40
0.225
  41
0.225
  0
VERTEX
  8
Top
  10
30.7539
  20
24.4477
  42
1
  0
VERTEX
  8
Top
  10
30.5289
  20
24.4477
  42
1
  0
VERTEX
  8
Top
  10
30.7539
  20
24.4477
  42
1
  0
SEQEND
  0
POLYLINE
  8
Top
  6
CONTINUOUS
  66
1
  70
0
  40
0.45
  41
0.45
  0
VERTEX
  8
Top
  10
30.6409
  20
24.4482
  42
0
  0
VERTEX
  8
Top
  10
30.0059
  20
24.4482
  42
0
  0
SEQEND
  0
POLYLINE
  8
Top
  6
CONTINUOUS
  66
1
  70
0
  40
0.225
  41
0.225
  0
VERTEX
  8
Top
  10
30.7534
  20
24.4482
  42
1
  0
VERTEX
  8
Top
  10
30.5284
  20
24.4482
  42
1
  0
VERTEX
  8
Top
  10
30.7534
  20
24.4482
  42
1
  0
SEQEND
  0
POLYLINE
  8
Top
  6
CONTINUOUS
  66
1
  70
0
  40
0.225
  41
0.225
  0
VERTEX
  8
Top
  10
30.1184
  20
24.4482
  42
1
  0
VERTEX
  8
Top
  10
29.8934
  20
24.4482
  42
1
  0
VERTEX
  8
Top
  10
30.1184
  20
24.4482
  42
1
  0
SEQEND
  0
POLYLINE
  8
Top
  6
CONTINUOUS
  66
1
  70
0
  40
0.45
  41
0.45
  0
VERTEX
  8
Top
  10
30.0059
  20
24.4482
  42
0
  0
VERTEX
  8
Top
  10
30.0059
  20
24.4482
  42
0
  0
SEQEND
  0
POLYLINE
  8
Top
  6
CONTINUOUS
  66
1
  70
0
  40
0.225
  41
0.225
  0
VERTEX
  8
Top
  10
30.1184
  20
24.4482
  42
1
  0
VERTEX
  8
Top
  10
29.8934
  20
24.4482
  42
1
  0
VERTEX
  8
Top
  10
30.1184
  20
24.4482
  42
1
  0
SEQEND
  0
POLYLINE
  8
Top
  6
CONTINUOUS
  66
1
  70
0
  40
0.45
  41
0.45
  0
VERTEX
  8
Top
  10
30.0059
  20
24.4482
  42
0
  0
VERTEX
  8
Top
  10
29.3709
  20
24.4482
  42
0
  0
SEQEND
  0
POLYLINE
  8
Top
  6
CONTINUOUS
  66
1
  70
0
  40
0.225
  41
0.225
  0
VERTEX
  8
Top
  10
30.1184
  20
24.4482
  42
1
  0
VERTEX
  8
Top
  10
29.8934
  20
24.4482
  42
1
  0
VERTEX
  8
Top
  10
30.1184
  20
24.4482
  42
1
  0
SEQEND
  0
POLYLINE
  8
Top
  6
CONTINUOUS
  66
1
  70
0
  40
0.225
  41
0.225
  0
VERTEX
  8
Top
  10
29.4834
  20
24.4482
  42
1
  0
VERTEX
  8
Top
  10
29.2584
  20
24.4482
  42
1
  0
VERTEX
  8
Top
  10
29.4834
  20
24.4482
  42
1
  0
SEQEND
  0
POLYLINE
  8
Top
  6
CONTINUOUS
  66
1
  70
0
  40
0.45
  41
0.45
  0
VERTEX
  8
Top
  10
30.0059
  20
22.0664
  42
0
  0
VERTEX
  8
Top
  10
30.0059
  20
24.4482
  42
0
  0
SEQEND
  0
POLYLINE
  8
Top
  6
CONTINUOUS
  66
1
  70
0
  40
0.225
  41
0.225
  0
VERTEX
  8
Top
  10
30.1184
  20
22.0664
  42
1
  0
VERTEX
  8
Top
  10
29.8934
  20
22.0664
  42
1
  0
VERTEX
  8
Top
  10
30.1184
  20
22.0664
  42
1
  0
SEQEND
  0
POLYLINE
  8
Top
  6
CONTINUOUS
  66
1
  70
0
  40
0.225
  41
0.225
  0
VERTEX
  8
Top
  10
30.1184
  20
24.4482
  42
1
  0
VERTEX
  8
Top
  10
29.8934
  20
24.4482
  42
1
  0
VERTEX
  8
Top
  10
30.1184
  20
24.4482
  42
1
  0
SEQEND
  0
POLYLINE
  8
Top
  6
CONTINUOUS
  66
1
  70
0
  40
0.45
  41
0.45
  0
VERTEX
  8
Top
  10
36.991
  20
22.2252
  42
0
  0
VERTEX
  8
Top
  10
36.991
  20
24.4482
  42
0
  0
SEQEND
  0
POLYLINE
  8
Top
  6
CONTINUOUS
  66
1
  70
0
  40
0.225
  41
0.225
  0
VERTEX
  8
Top
  10
37.1035
  20
22.2252
  42
1
  0
VERTEX
  8
Top
  10
36.8785
  20
22.2252
  42
1
  0
VERTEX
  8
Top
  10
37.1035
  20
22.2252
  42
1
  0
SEQEND
  0
POLYLINE
  8
Top
  6
CONTINUOUS
  66
1
  70
0
  40
0.225
  41
0.225
  0
VERTEX
  8
Top
  10
37.1035
  20
24.4482
  42
1
  0
VERTEX
  8
Top
  10
36.8785
  20
24.4482
  42
1
  0
VERTEX
  8
Top
  10
37.1035
  20
24.4482
  42
1
  0
SEQEND
  0
POLYLINE
  8
Top
  6
CONTINUOUS
  66
1
  70
0
  40
0.45
  41
0.45
  0
VERTEX
  8
Top
  10
39.3722
  20
21.9077
  42
0
  0
VERTEX
  8
Top
  10
39.3722
  20
23.9714
  42
0
  0
SEQEND
  0
POLYLINE
  8
Top
  6
CONTINUOUS
  66
1
  70
0
  40
0.225
  41
0.225
  0
VERTEX
  8
Top
  10
39.4847
  20
21.9077
  42
1
  0
VERTEX
  8
Top
  10
39.2597
  20
21.9077
  42
1
  0
VERTEX
  8
Top
  10
39.4847
  20
21.9077
  42
1
  0
SEQEND
  0
POLYLINE
  8
Top
  6
CONTINUOUS
  66
1
  70
0
  40
0.225
  41
0.225
  0
VERTEX
  8
Top
  10
39.4847
  20
23.9714
  42
1
  0
VERTEX
  8
Top
  10
39.2597
  20
23.9714
  42
1
  0
VERTEX
  8
Top
  10
39.4847
  20
23.9714
  42
1
  0
SEQEND
  0
POLYLINE
  8
Top
  6
CONTINUOUS
  66
1
  70
0
  40
0.45
  41
0.45
  0
VERTEX
  8
Top
  10
39.3722
  20
23.9714
  42
0
  0
VERTEX
  8
Top
  10
38.896
  20
24.4477
  42
0
  0
SEQEND
  0
POLYLINE
  8
Top
  6
CONTINUOUS
  66
1
  70
0
  40
0.225
  41
0.225
  0
VERTEX
  8
Top
  10
39.4847
  20
23.9714
  42
1
  0
VERTEX
  8
Top
  10
39.2597
  20
23.9714
  42
1
  0
VERTEX
  8
Top
  10
39.4847
  20
23.9714
  42
1
  0
SEQEND
  0
POLYLINE
  8
Top
  6
CONTINUOUS
  66
1
  70
0
  40
0.225
  41
0.225
  0
VERTEX
  8
Top
  10
39.0085
  20
24.4477
  42
1
  0
VERTEX
  8
Top
  10
38.7835
  20
24.4477
  42
1
  0
VERTEX
  8
Top
  10
39.0085
  20
24.4477
  42
1
  0
SEQEND
  0
POLYLINE
  8
Top
  6
CONTINUOUS
  66
1
  70
0
  40
0.45
  41
0.45
  0
VERTEX
  8
Top
  10
32.3872
  20
21.9077
  42
0
  0
VERTEX
  8
Top
  10
32.3872
  20
23.6575
  42
0
  0
SEQEND
  0
POLYLINE
  8
Top
  6
CONTINUOUS
  66
1
  70
0
  40
0.225
  41
0.225
  0
VERTEX
  8
Top
  10
32.4997
  20
21.9077
  42
1
  0
VERTEX
  8
Top
  10
32.2747
  20
21.9077
  42
1
  0
VERTEX
  8
Top
  10
32.4997
  20
21.9077
  42
1
  0
SEQEND
  0
POLYLINE
  8
Top
  6
CONTINUOUS
  66
1
  70
0
  40
0.225
  41
0.225
  0
VERTEX
  8
Top
  10
32.4997
  20
23.6575
  42
1
  0
VERTEX
  8
Top
  10
32.2747
  20
23.6575
  42
1
  0
VERTEX
  8
Top
  10
32.4997
  20
23.6575
  42
1
  0
SEQEND
  0
POLYLINE
  8
Top
  6
CONTINUOUS
  66
1
  70
0
  40
0.45
  41
0.45
  0
VERTEX
  8
Top
  10
32.3872
  20
23.6575
  42
0
  0
VERTEX
  8
Top
  10
31.5969
  20
24.4477
  42
0
  0
SEQEND
  0
POLYLINE
  8
Top
  6
CONTINUOUS
  66
1
  70
0
  40
0.225
  41
0.225
  0
VERTEX
  8
Top
  10
32.4997
  20
23.6575
  42
1
  0
VERTEX
  8
Top
  10
32.2747
  20
23.6575
  42
1
  0
VERTEX
  8
Top
  10
32.4997
  20
23.6575
  42
1
  0
SEQEND
  0
POLYLINE
  8
Top
  6
CONTINUOUS
  66
1
  70
0
  40
0.225
  41
0.225
  0
VERTEX
  8
Top
  10
31.7094
  20
24.4477
  42
1
  0
VERTEX
  8
Top
  10
31.4844
  20
24.4477
  42
1
  0
VERTEX
  8
Top
  10
31.7094
  20
24.4477
  42
1
  0
SEQEND
  0
POLYLINE
  8
Top
  6
CONTINUOUS
  66
1
  70
0
  40
0.45
  41
0.45
  0
VERTEX
  8
Top
  10
31.5969
  20
24.4477
  42
0
  0
VERTEX
  8
Top
  10
31.9109
  20
24.4477
  42
0
  0
SEQEND
  0
POLYLINE
  8
Top
  6
CONTINUOUS
  66
1
  70
0
  40
0.225
  41
0.225
  0
VERTEX
  8
Top
  10
31.7094
  20
24.4477
  42
1
  0
VERTEX
  8
Top
  10
31.4844
  20
24.4477
  42
1
  0
VERTEX
  8
Top
  10
31.7094
  20
24.4477
  42
1
  0
SEQEND
  0
POLYLINE
  8
Top
  6
CONTINUOUS
  66
1
  70
0
  40
0.225
  41
0.225
  0
VERTEX
  8
Top
  10
32.0234
  20
24.4477
  42
1
  0
VERTEX
  8
Top
  10
31.7984
  20
24.4477
  42
1
  0
VERTEX
  8
Top
  10
32.0234
  20
24.4477
  42
1
  0
SEQEND
  0
POLYLINE
  8
Top
  6
CONTINUOUS
  66
1
  70
0
  40
0.45
  41
0.45
  0
VERTEX
  8
Top
  10
25.4022
  20
21.9077
  42
0
  0
VERTEX
  8
Top
  10
25.4022
  20
23.9714
  42
0
  0
SEQEND
  0
POLYLINE
  8
Top
  6
CONTINUOUS
  66
1
  70
0
  40
0.225
  41
0.225
  0
VERTEX
  8
Top
  10
25.5147
  20
21.9077
  42
1
  0
VERTEX
  8
Top
  10
25.2897
  20
21.9077
  42
1
  0
VERTEX
  8
Top
  10
25.5147
  20
21.9077
  42
1
  0
SEQEND
  0
POLYLINE
  8
Top
  6
CONTINUOUS
  66
1
  70
0
  40
0.225
  41
0.225
  0
VERTEX
  8
Top
  10
25.5147
  20
23.9714
  42
1
  0
VERTEX
  8
Top
  10
25.2897
  20
23.9714
  42
1
  0
VERTEX
  8
Top
  10
25.5147
  20
23.9714
  42
1
  0
SEQEND
  0
POLYLINE
  8
Top
  6
CONTINUOUS
  66
1
  70
0
  40
0.45
  41
0.45
  0
VERTEX
  8
Top
  10
25.4022
  20
23.9714
  42
0
  0
VERTEX
  8
Top
  10
24.9259
  20
24.4477
  42
0
  0
SEQEND
  0
POLYLINE
  8
Top
  6
CONTINUOUS
  66
1
  70
0
  40
0.225
  41
0.225
  0
VERTEX
  8
Top
  10
25.5147
  20
23.9714
  42
1
  0
VERTEX
  8
Top
  10
25.2897
  20
23.9714
  42
1
  0
VERTEX
  8
Top
  10
25.5147
  20
23.9714
  42
1
  0
SEQEND
  0
POLYLINE
  8
Top
  6
CONTINUOUS
  66
1
  70
0
  40
0.225
  41
0.225
  0
VERTEX
  8
Top
  10
25.0384
  20
24.4477
  42
1
  0
VERTEX
  8
Top
  10
24.8134
  20
24.4477
  42
1
  0
VERTEX
  8
Top
  10
25.0384
  20
24.4477
  42
1
  0
SEQEND
  0
POLYLINE
  8
Top
  6
CONTINUOUS
  66
1
  70
0
  40
0.45
  41
0.45
  0
VERTEX
  8
Top
  10
24.9259
  20
24.4477
  42
0
  0
VERTEX
  8
Top
  10
23.6564
  20
24.4477
  42
0
  0
SEQEND
  0
POLYLINE
  8
Top
  6
CONTINUOUS
  66
1
  70
0
  40
0.225
  41
0.225
  0
VERTEX
  8
Top
  10
25.0384
  20
24.4477
  42
1
  0
VERTEX
  8
Top
  10
24.8134
  20
24.4477
  42
1
  0
VERTEX
  8
Top
  10
25.0384
  20
24.4477
  42
1
  0
SEQEND
  0
POLYLINE
  8
Top
  6
CONTINUOUS
  66
1
  70
0
  40
0.225
  41
0.225
  0
VERTEX
  8
Top
  10
23.7689
  20
24.4477
  42
1
  0
VERTEX
  8
Top
  10
23.5439
  20
24.4477
  42
1
  0
VERTEX
  8
Top
  10
23.7689
  20
24.4477
  42
1
  0
SEQEND
  0
POLYLINE
  8
Top
  6
CONTINUOUS
  66
1
  70
0
  40
0.45
  41
0.45
  0
VERTEX
  8
Top
  10
23.6564
  20
24.4477
  42
0
  0
VERTEX
  8
Top
  10
23.6559
  20
24.4482
  42
0
  0
SEQEND
  0
POLYLINE
  8
Top
  6
CONTINUOUS
  66
1
  70
0
  40
0.225
  41
0.225
  0
VERTEX
  8
Top
  10
23.7689
  20
24.4477
  42
1
  0
VERTEX
  8
Top
  10
23.5439
  20
24.4477
  42
1
  0
VERTEX
  8
Top
  10
23.7689
  20
24.4477
  42
1
  0
SEQEND
  0
POLYLINE
  8
Top
  6
CONTINUOUS
  66
1
  70
0
  40
0.45
  41
0.45
  0
VERTEX
  8
Top
  10
23.6559
  20
24.4482
  42
0
  0
VERTEX
  8
Top
  10
23.021
  20
24.4482
  42
0
  0
SEQEND
  0
POLYLINE
  8
Top
  6
CONTINUOUS
  66
1
  70
0
  40
0.225
  41
0.225
  0
VERTEX
  8
Top
  10
23.7684
  20
24.4482
  42
1
  0
VERTEX
  8
Top
  10
23.5434
  20
24.4482
  42
1
  0
VERTEX
  8
Top
  10
23.7684
  20
24.4482
  42
1
  0
SEQEND
  0
POLYLINE
  8
Top
  6
CONTINUOUS
  66
1
  70
0
  40
0.225
  41
0.225
  0
VERTEX
  8
Top
  10
23.1335
  20
24.4482
  42
1
  0
VERTEX
  8
Top
  10
22.9085
  20
24.4482
  42
1
  0
VERTEX
  8
Top
  10
23.1335
  20
24.4482
  42
1
  0
SEQEND
  0
POLYLINE
  8
Top
  6
CONTINUOUS
  66
1
  70
0
  40
0.45
  41
0.45
  0
VERTEX
  8
Top
  10
23.021
  20
24.4482
  42
0
  0
VERTEX
  8
Top
  10
23.021
  20
24.4482
  42
0
  0
SEQEND
  0
POLYLINE
  8
Top
  6
CONTINUOUS
  66
1
  70
0
  40
0.225
  41
0.225
  0
VERTEX
  8
Top
  10
23.1335
  20
24.4482
  42
1
  0
VERTEX
  8
Top
  10
22.9085
  20
24.4482
  42
1
  0
VERTEX
  8
Top
  10
23.1335
  20
24.4482
  42
1
  0
SEQEND
  0
POLYLINE
  8
Top
  6
CONTINUOUS
  66
1
  70
0
  40
0.45
  41
0.45
  0
VERTEX
  8
Top
  10
23.021
  20
24.4482
  42
0
  0
VERTEX
  8
Top
  10
22.3859
  20
24.4482
  42
0
  0
SEQEND
  0
POLYLINE
  8
Top
  6
CONTINUOUS
  66
1
  70
0
  40
0.225
  41
0.225
  0
VERTEX
  8
Top
  10
23.1335
  20
24.4482
  42
1
  0
VERTEX
  8
Top
  10
22.9085
  20
24.4482
  42
1
  0
VERTEX
  8
Top
  10
23.1335
  20
24.4482
  42
1
  0
SEQEND
  0
POLYLINE
  8
Top
  6
CONTINUOUS
  66
1
  70
0
  40
0.225
  41
0.225
  0
VERTEX
  8
Top
  10
22.4984
  20
24.4482
  42
1
  0
VERTEX
  8
Top
  10
22.2734
  20
24.4482
  42
1
  0
VERTEX
  8
Top
  10
22.4984
  20
24.4482
  42
1
  0
SEQEND
  0
POLYLINE
  8
Top
  6
CONTINUOUS
  66
1
  70
0
  40
0.45
  41
0.45
  0
VERTEX
  8
Top
  10
23.1799
  20
22.5449
  42
0
  0
VERTEX
  8
Top
  10
23.1799
  20
24.4482
  42
0
  0
SEQEND
  0
POLYLINE
  8
Top
  6
CONTINUOUS
  66
1
  70
0
  40
0.225
  41
0.225
  0
VERTEX
  8
Top
  10
23.2924
  20
22.5449
  42
1
  0
VERTEX
  8
Top
  10
23.0674
  20
22.5449
  42
1
  0
VERTEX
  8
Top
  10
23.2924
  20
22.5449
  42
1
  0
SEQEND
  0
POLYLINE
  8
Top
  6
CONTINUOUS
  66
1
  70
0
  40
0.225
  41
0.225
  0
VERTEX
  8
Top
  10
23.2924
  20
24.4482
  42
1
  0
VERTEX
  8
Top
  10
23.0674
  20
24.4482
  42
1
  0
VERTEX
  8
Top
  10
23.2924
  20
24.4482
  42
1
  0
SEQEND
  0
POLYLINE
  8
Top
  6
CONTINUOUS
  66
1
  70
0
  40
0.45
  41
0.45
  0
VERTEX
  8
Top
  10
23.1799
  20
24.4482
  42
0
  0
VERTEX
  8
Top
  10
23.021
  20
24.4482
  42
0
  0
SEQEND
  0
POLYLINE
  8
Top
  6
CONTINUOUS
  66
1
  70
0
  40
0.225
  41
0.225
  0
VERTEX
  8
Top
  10
23.2924
  20
24.4482
  42
1
  0
VERTEX
  8
Top
  10
23.0674
  20
24.4482
  42
1
  0
VERTEX
  8
Top
  10
23.2924
  20
24.4482
  42
1
  0
SEQEND
  0
POLYLINE
  8
Top
  6
CONTINUOUS
  66
1
  70
0
  40
0.225
  41
0.225
  0
VERTEX
  8
Top
  10
23.1335
  20
24.4482
  42
1
  0
VERTEX
  8
Top
  10
22.9085
  20
24.4482
  42
1
  0
VERTEX
  8
Top
  10
23.1335
  20
24.4482
  42
1
  0
SEQEND
  0
POLYLINE
  8
Top
  6
CONTINUOUS
  66
1
  70
0
  40
0.45
  41
0.45
  0
VERTEX
  8
Top
  10
14.1513
  20
15.5778
  42
0
  0
VERTEX
  8
Top
  10
11.5012
  20
18.2279
  42
0
  0
SEQEND
  0
POLYLINE
  8
Top
  6
CONTINUOUS
  66
1
  70
0
  40
0.225
  41
0.225
  0
VERTEX
  8
Top
  10
14.2638
  20
15.5778
  42
1
  0
VERTEX
  8
Top
  10
14.0388
  20
15.5778
  42
1
  0
VERTEX
  8
Top
  10
14.2638
  20
15.5778
  42
1
  0
SEQEND
  0
POLYLINE
  8
Top
  6
CONTINUOUS
  66
1
  70
0
  40
0.225
  41
0.225
  0
VERTEX
  8
Top
  10
11.6137
  20
18.2279
  42
1
  0
VERTEX
  8
Top
  10
11.3887
  20
18.2279
  42
1
  0
VERTEX
  8
Top
  10
11.6137
  20
18.2279
  42
1
  0
SEQEND
  0
POLYLINE
  8
Top
  6
CONTINUOUS
  66
1
  70
0
  40
0.45
  41
0.45
  0
VERTEX
  8
Top
  10
11.5012
  20
18.2279
  42
0
  0
VERTEX
  8
Top
  10
11.5012
  20
18.6457
  42
0
  0
SEQEND
  0
POLYLINE
  8
Top
  6
CONTINUOUS
  66
1
  70
0
  40
0.225
  41
0.225
  0
VERTEX
  8
Top
  10
11.6137
  20
18.2279
  42
1
  0
VERTEX
  8
Top
  10
11.3887
  20
18.2279
  42
1
  0
VERTEX
  8
Top
  10
11.6137
  20
18.2279
  42
1
  0
SEQEND
  0
POLYLINE
  8
Top
  6
CONTINUOUS
  66
1
  70
0
  40
0.225
  41
0.225
  0
VERTEX
  8
Top
  10
11.6137
  20
18.6457
  42
1
  0
VERTEX
  8
Top
  10
11.3887
  20
18.6457
  42
1
  0
VERTEX
  8
Top
  10
11.6137
  20
18.6457
  42
1
  0
SEQEND
  0
POLYLINE
  8
Top
  6
CONTINUOUS
  66
1
  70
0
  40
0.6
  41
0.6
  0
VERTEX
  8
Top
  10
36.7462
  20
13.8127
  42
0
  0
VERTEX
  8
Top
  10
36.7462
  20
13.8127
  42
0
  0
SEQEND
  0
POLYLINE
  8
Top
  6
CONTINUOUS
  66
1
  70
0
  40
0.3
  41
0.3
  0
VERTEX
  8
Top
  10
36.8962
  20
13.8127
  42
1
  0
VERTEX
  8
Top
  10
36.5962
  20
13.8127
  42
1
  0
VERTEX
  8
Top
  10
36.8962
  20
13.8127
  42
1
  0
SEQEND
  0
POLYLINE
  8
Top
  6
CONTINUOUS
  66
1
  70
0
  40
0.6
  41
0.6
  0
VERTEX
  8
Top
  10
36.7462
  20
13.8127
  42
0
  0
VERTEX
  8
Top
  10
36.7462
  20
16.1065
  42
0
  0
SEQEND
  0
POLYLINE
  8
Top
  6
CONTINUOUS
  66
1
  70
0
  40
0.3
  41
0.3
  0
VERTEX
  8
Top
  10
36.8962
  20
13.8127
  42
1
  0
VERTEX
  8
Top
  10
36.5962
  20
13.8127
  42
1
  0
VERTEX
  8
Top
  10
36.8962
  20
13.8127
  42
1
  0
SEQEND
  0
POLYLINE
  8
Top
  6
CONTINUOUS
  66
1
  70
0
  40
0.3
  41
0.3
  0
VERTEX
  8
Top
  10
36.8962
  20
16.1065
  42
1
  0
VERTEX
  8
Top
  10
36.5962
  20
16.1065
  42
1
  0
VERTEX
  8
Top
  10
36.8962
  20
16.1065
  42
1
  0
SEQEND
  0
POLYLINE
  8
Top
  6
CONTINUOUS
  66
1
  70
0
  40
0.6
  41
0.6
  0
VERTEX
  8
Top
  10
36.7462
  20
16.1065
  42
0
  0
VERTEX
  8
Top
  10
42.2319
  20
21.5923
  42
0
  0
SEQEND
  0
POLYLINE
  8
Top
  6
CONTINUOUS
  66
1
  70
0
  40
0.3
  41
0.3
  0
VERTEX
  8
Top
  10
36.8962
  20
16.1065
  42
1
  0
VERTEX
  8
Top
  10
36.5962
  20
16.1065
  42
1
  0
VERTEX
  8
Top
  10
36.8962
  20
16.1065
  42
1
  0
SEQEND
  0
POLYLINE
  8
Top
  6
CONTINUOUS
  66
1
  70
0
  40
0.3
  41
0.3
  0
VERTEX
  8
Top
  10
42.3819
  20
21.5923
  42
1
  0
VERTEX
  8
Top
  10
42.0819
  20
21.5923
  42
1
  0
VERTEX
  8
Top
  10
42.3819
  20
21.5923
  42
1
  0
SEQEND
  0
POLYLINE
  8
Top
  6
CONTINUOUS
  66
1
  70
0
  40
0.6
  41
0.6
  0
VERTEX
  8
Top
  10
42.2319
  20
21.5923
  42
0
  0
VERTEX
  8
Top
  10
42.2319
  20
25.0851
  42
0
  0
SEQEND
  0
POLYLINE
  8
Top
  6
CONTINUOUS
  66
1
  70
0
  40
0.3
  41
0.3
  0
VERTEX
  8
Top
  10
42.3819
  20
21.5923
  42
1
  0
VERTEX
  8
Top
  10
42.0819
  20
21.5923
  42
1
  0
VERTEX
  8
Top
  10
42.3819
  20
21.5923
  42
1
  0
SEQEND
  0
POLYLINE
  8
Top
  6
CONTINUOUS
  66
1
  70
0
  40
0.3
  41
0.3
  0
VERTEX
  8
Top
  10
42.3819
  20
25.0851
  42
1
  0
VERTEX
  8
Top
  10
42.0819
  20
25.0851
  42
1
  0
VERTEX
  8
Top
  10
42.3819
  20
25.0851
  42
1
  0
SEQEND
  0
POLYLINE
  8
Top
  6
CONTINUOUS
  66
1
  70
0
  40
0.6
  41
0.6
  0
VERTEX
  8
Top
  10
42.2319
  20
25.0851
  42
0
  0
VERTEX
  8
Top
  10
42.0732
  20
25.0851
  42
0
  0
SEQEND
  0
POLYLINE
  8
Top
  6
CONTINUOUS
  66
1
  70
0
  40
0.3
  41
0.3
  0
VERTEX
  8
Top
  10
42.3819
  20
25.0851
  42
1
  0
VERTEX
  8
Top
  10
42.0819
  20
25.0851
  42
1
  0
VERTEX
  8
Top
  10
42.3819
  20
25.0851
  42
1
  0
SEQEND
  0
POLYLINE
  8
Top
  6
CONTINUOUS
  66
1
  70
0
  40
0.3
  41
0.3
  0
VERTEX
  8
Top
  10
42.2232
  20
25.0851
  42
1
  0
VERTEX
  8
Top
  10
41.9232
  20
25.0851
  42
1
  0
VERTEX
  8
Top
  10
42.2232
  20
25.0851
  42
1
  0
SEQEND
  0
POLYLINE
  8
Top
  6
CONTINUOUS
  66
1
  70
0
  40
1.5
  41
1.5
  0
VERTEX
  8
Top
  10
42.0732
  20
25.0851
  42
0
  0
VERTEX
  8
Top
  10
42.0732
  20
24.6086
  42
0
  0
SEQEND
  0
POLYLINE
  8
Top
  6
CONTINUOUS
  66
1
  70
0
  40
0.75
  41
0.75
  0
VERTEX
  8
Top
  10
42.4482
  20
25.0851
  42
1
  0
VERTEX
  8
Top
  10
41.6982
  20
25.0851
  42
1
  0
VERTEX
  8
Top
  10
42.4482
  20
25.0851
  42
1
  0
SEQEND
  0
POLYLINE
  8
Top
  6
CONTINUOUS
  66
1
  70
0
  40
0.75
  41
0.75
  0
VERTEX
  8
Top
  10
42.4482
  20
24.6086
  42
1
  0
VERTEX
  8
Top
  10
41.6982
  20
24.6086
  42
1
  0
VERTEX
  8
Top
  10
42.4482
  20
24.6086
  42
1
  0
SEQEND
  0
POLYLINE
  8
Top
  6
CONTINUOUS
  66
1
  70
0
  40
1.5
  41
1.5
  0
VERTEX
  8
Top
  10
42.0732
  20
24.6086
  42
0
  0
VERTEX
  8
Top
  10
39.3722
  20
21.9077
  42
0
  0
SEQEND
  0
POLYLINE
  8
Top
  6
CONTINUOUS
  66
1
  70
0
  40
0.75
  41
0.75
  0
VERTEX
  8
Top
  10
42.4482
  20
24.6086
  42
1
  0
VERTEX
  8
Top
  10
41.6982
  20
24.6086
  42
1
  0
VERTEX
  8
Top
  10
42.4482
  20
24.6086
  42
1
  0
SEQEND
  0
POLYLINE
  8
Top
  6
CONTINUOUS
  66
1
  70
0
  40
0.75
  41
0.75
  0
VERTEX
  8
Top
  10
39.7472
  20
21.9077
  42
1
  0
VERTEX
  8
Top
  10
38.9972
  20
21.9077
  42
1
  0
VERTEX
  8
Top
  10
39.7472
  20
21.9077
  42
1
  0
SEQEND
  0
POLYLINE
  8
Top
  6
CONTINUOUS
  66
1
  70
0
  40
0.5
  41
0.5
  0
VERTEX
  8
Top
  10
11.5012
  20
18.6457
  42
0
  0
VERTEX
  8
Top
  10
11.2024
  20
18.6457
  42
0
  0
SEQEND
  0
POLYLINE
  8
Top
  6
CONTINUOUS
  66
1
  70
0
  40
0.25
  41
0.25
  0
VERTEX
  8
Top
  10
11.6262
  20
18.6457
  42
1
  0
VERTEX
  8
Top
  10
11.3762
  20
18.6457
  42
1
  0
VERTEX
  8
Top
  10
11.6262
  20
18.6457
  42
1
  0
SEQEND
  0
POLYLINE
  8
Top
  6
CONTINUOUS
  66
1
  70
0
  40
0.25
  41
0.25
  0
VERTEX
  8
Top
  10
11.3274
  20
18.6457
  42
1
  0
VERTEX
  8
Top
  10
11.0774
  20
18.6457
  42
1
  0
VERTEX
  8
Top
  10
11.3274
  20
18.6457
  42
1
  0
SEQEND
  0
POLYLINE
  8
Top
  6
CONTINUOUS
  66
1
  70
0
  40
0.5
  41
0.5
  0
VERTEX
  8
Top
  10
11.2024
  20
18.6457
  42
0
  0
VERTEX
  8
Top
  10
8.2559
  20
21.5923
  42
0
  0
SEQEND
  0
POLYLINE
  8
Top
  6
CONTINUOUS
  66
1
  70
0
  40
0.25
  41
0.25
  0
VERTEX
  8
Top
  10
11.3274
  20
18.6457
  42
1
  0
VERTEX
  8
Top
  10
11.0774
  20
18.6457
  42
1
  0
VERTEX
  8
Top
  10
11.3274
  20
18.6457
  42
1
  0
SEQEND
  0
POLYLINE
  8
Top
  6
CONTINUOUS
  66
1
  70
0
  40
0.25
  41
0.25
  0
VERTEX
  8
Top
  10
8.3809
  20
21.5923
  42
1
  0
VERTEX
  8
Top
  10
8.1309
  20
21.5923
  42
1
  0
VERTEX
  8
Top
  10
8.3809
  20
21.5923
  42
1
  0
SEQEND
  0
POLYLINE
  8
Top
  6
CONTINUOUS
  66
1
  70
0
  40
0.5
  41
0.5
  0
VERTEX
  8
Top
  10
8.2559
  20
21.5923
  42
0
  0
VERTEX
  8
Top
  10
3.0166
  20
21.5923
  42
0
  0
SEQEND
  0
POLYLINE
  8
Top
  6
CONTINUOUS
  66
1
  70
0
  40
0.25
  41
0.25
  0
VERTEX
  8
Top
  10
8.3809
  20
21.5923
  42
1
  0
VERTEX
  8
Top
  10
8.1309
  20
21.5923
  42
1
  0
VERTEX
  8
Top
  10
8.3809
  20
21.5923
  42
1
  0
SEQEND
  0
POLYLINE
  8
Top
  6
CONTINUOUS
  66
1
  70
0
  40
0.25
  41
0.25
  0
VERTEX
  8
Top
  10
3.1416
  20
21.5923
  42
1
  0
VERTEX
  8
Top
  10
2.8916
  20
21.5923
  42
1
  0
VERTEX
  8
Top
  10
3.1416
  20
21.5923
  42
1
  0
SEQEND
  0
POLYLINE
  8
Top
  6
CONTINUOUS
  66
1
  70
0
  40
0.5
  41
0.5
  0
VERTEX
  8
Top
  10
3.0166
  20
21.5923
  42
0
  0
VERTEX
  8
Top
  10
1.4283
  20
23.1805
  42
0
  0
SEQEND
  0
POLYLINE
  8
Top
  6
CONTINUOUS
  66
1
  70
0
  40
0.25
  41
0.25
  0
VERTEX
  8
Top
  10
3.1416
  20
21.5923
  42
1
  0
VERTEX
  8
Top
  10
2.8916
  20
21.5923
  42
1
  0
VERTEX
  8
Top
  10
3.1416
  20
21.5923
  42
1
  0
SEQEND
  0
POLYLINE
  8
Top
  6
CONTINUOUS
  66
1
  70
0
  40
0.25
  41
0.25
  0
VERTEX
  8
Top
  10
1.5533
  20
23.1805
  42
1
  0
VERTEX
  8
Top
  10
1.3033
  20
23.1805
  42
1
  0
VERTEX
  8
Top
  10
1.5533
  20
23.1805
  42
1
  0
SEQEND
  0
POLYLINE
  8
Top
  6
CONTINUOUS
  66
1
  70
0
  40
0.5
  41
0.5
  0
VERTEX
  8
Top
  10
1.4283
  20
23.1805
  42
0
  0
VERTEX
  8
Top
  10
1.4283
  20
23.4975
  42
0
  0
SEQEND
  0
POLYLINE
  8
Top
  6
CONTINUOUS
  66
1
  70
0
  40
0.25
  41
0.25
  0
VERTEX
  8
Top
  10
1.5533
  20
23.1805
  42
1
  0
VERTEX
  8
Top
  10
1.3033
  20
23.1805
  42
1
  0
VERTEX
  8
Top
  10
1.5533
  20
23.1805
  42
1
  0
SEQEND
  0
POLYLINE
  8
Top
  6
CONTINUOUS
  66
1
  70
0
  40
0.25
  41
0.25
  0
VERTEX
  8
Top
  10
1.5533
  20
23.4975
  42
1
  0
VERTEX
  8
Top
  10
1.3033
  20
23.4975
  42
1
  0
VERTEX
  8
Top
  10
1.5533
  20
23.4975
  42
1
  0
SEQEND
  0
POLYLINE
  8
Top
  6
CONTINUOUS
  66
1
  70
0
  40
0.8
  41
0.8
  0
VERTEX
  8
Top
  10
1.4283
  20
23.4975
  42
0
  0
VERTEX
  8
Top
  10
1.7464
  20
23.4975
  42
0
  0
SEQEND
  0
POLYLINE
  8
Top
  6
CONTINUOUS
  66
1
  70
0
  40
0.4
  41
0.4
  0
VERTEX
  8
Top
  10
1.6283
  20
23.4975
  42
1
  0
VERTEX
  8
Top
  10
1.2283
  20
23.4975
  42
1
  0
VERTEX
  8
Top
  10
1.6283
  20
23.4975
  42
1
  0
SEQEND
  0
POLYLINE
  8
Top
  6
CONTINUOUS
  66
1
  70
0
  40
0.4
  41
0.4
  0
VERTEX
  8
Top
  10
1.9464
  20
23.4975
  42
1
  0
VERTEX
  8
Top
  10
1.5464
  20
23.4975
  42
1
  0
VERTEX
  8
Top
  10
1.9464
  20
23.4975
  42
1
  0
SEQEND
  0
POLYLINE
  8
Top
  6
CONTINUOUS
  66
1
  70
0
  40
0.8
  41
0.8
  0
VERTEX
  8
Top
  10
1.7464
  20
23.4975
  42
0
  0
VERTEX
  8
Top
  10
1.7464
  20
26.3553
  42
0
  0
SEQEND
  0
POLYLINE
  8
Top
  6
CONTINUOUS
  66
1
  70
0
  40
0.4
  41
0.4
  0
VERTEX
  8
Top
  10
1.9464
  20
23.4975
  42
1
  0
VERTEX
  8
Top
  10
1.5464
  20
23.4975
  42
1
  0
VERTEX
  8
Top
  10
1.9464
  20
23.4975
  42
1
  0
SEQEND
  0
POLYLINE
  8
Top
  6
CONTINUOUS
  66
1
  70
0
  40
0.4
  41
0.4
  0
VERTEX
  8
Top
  10
1.9464
  20
26.3553
  42
1
  0
VERTEX
  8
Top
  10
1.5464
  20
26.3553
  42
1
  0
VERTEX
  8
Top
  10
1.9464
  20
26.3553
  42
1
  0
SEQEND
  0
POLYLINE
  8
Top
  6
CONTINUOUS
  66
1
  70
0
  40
0.8
  41
0.8
  0
VERTEX
  8
Top
  10
1.7464
  20
26.3553
  42
0
  0
VERTEX
  8
Top
  10
1.9065
  20
26.3553
  42
0
  0
SEQEND
  0
POLYLINE
  8
Top
  6
CONTINUOUS
  66
1
  70
0
  40
0.4
  41
0.4
  0
VERTEX
  8
Top
  10
1.9464
  20
26.3553
  42
1
  0
VERTEX
  8
Top
  10
1.5464
  20
26.3553
  42
1
  0
VERTEX
  8
Top
  10
1.9464
  20
26.3553
  42
1
  0
SEQEND
  0
POLYLINE
  8
Top
  6
CONTINUOUS
  66
1
  70
0
  40
0.4
  41
0.4
  0
VERTEX
  8
Top
  10
2.1065
  20
26.3553
  42
1
  0
VERTEX
  8
Top
  10
1.7065
  20
26.3553
  42
1
  0
VERTEX
  8
Top
  10
2.1065
  20
26.3553
  42
1
  0
SEQEND
  0
POLYLINE
  8
Top
  6
CONTINUOUS
  66
1
  70
0
  40
0.6
  41
0.6
  0
VERTEX
  8
Top
  10
42.0732
  20
10.6374
  42
0
  0
VERTEX
  8
Top
  10
42.0732
  20
10.6374
  42
0
  0
SEQEND
  0
POLYLINE
  8
Top
  6
CONTINUOUS
  66
1
  70
0
  40
0.3
  41
0.3
  0
VERTEX
  8
Top
  10
42.2232
  20
10.6374
  42
1
  0
VERTEX
  8
Top
  10
41.9232
  20
10.6374
  42
1
  0
VERTEX
  8
Top
  10
42.2232
  20
10.6374
  42
1
  0
SEQEND
  0
POLYLINE
  8
Top
  6
CONTINUOUS
  66
1
  70
0
  40
0.6
  41
0.6
  0
VERTEX
  8
Top
  10
42.0732
  20
10.6374
  42
0
  0
VERTEX
  8
Top
  10
40.9618
  20
9.526
  42
0
  0
SEQEND
  0
POLYLINE
  8
Top
  6
CONTINUOUS
  66
1
  70
0
  40
0.3
  41
0.3
  0
VERTEX
  8
Top
  10
42.2232
  20
10.6374
  42
1
  0
VERTEX
  8
Top
  10
41.9232
  20
10.6374
  42
1
  0
VERTEX
  8
Top
  10
42.2232
  20
10.6374
  42
1
  0
SEQEND
  0
POLYLINE
  8
Top
  6
CONTINUOUS
  66
1
  70
0
  40
0.3
  41
0.3
  0
VERTEX
  8
Top
  10
41.1118
  20
9.526
  42
1
  0
VERTEX
  8
Top
  10
40.8118
  20
9.526
  42
1
  0
VERTEX
  8
Top
  10
41.1118
  20
9.526
  42
1
  0
SEQEND
  0
POLYLINE
  8
Top
  6
CONTINUOUS
  66
1
  70
0
  40
0.6
  41
0.6
  0
VERTEX
  8
Top
  10
40.9618
  20
9.526
  42
0
  0
VERTEX
  8
Top
  10
36.7462
  20
9.526
  42
0
  0
SEQEND
  0
POLYLINE
  8
Top
  6
CONTINUOUS
  66
1
  70
0
  40
0.3
  41
0.3
  0
VERTEX
  8
Top
  10
41.1118
  20
9.526
  42
1
  0
VERTEX
  8
Top
  10
40.8118
  20
9.526
  42
1
  0
VERTEX
  8
Top
  10
41.1118
  20
9.526
  42
1
  0
SEQEND
  0
POLYLINE
  8
Top
  6
CONTINUOUS
  66
1
  70
0
  40
0.3
  41
0.3
  0
VERTEX
  8
Top
  10
36.8962
  20
9.526
  42
1
  0
VERTEX
  8
Top
  10
36.5962
  20
9.526
  42
1
  0
VERTEX
  8
Top
  10
36.8962
  20
9.526
  42
1
  0
SEQEND
  0
POLYLINE
  8
Top
  6
CONTINUOUS
  66
1
  70
0
  40
0.6
  41
0.6
  0
VERTEX
  8
Top
  10
36.7462
  20
9.526
  42
0
  0
VERTEX
  8
Top
  10
36.7462
  20
13.8127
  42
0
  0
SEQEND
  0
POLYLINE
  8
Top
  6
CONTINUOUS
  66
1
  70
0
  40
0.3
  41
0.3
  0
VERTEX
  8
Top
  10
36.8962
  20
9.526
  42
1
  0
VERTEX
  8
Top
  10
36.5962
  20
9.526
  42
1
  0
VERTEX
  8
Top
  10
36.8962
  20
9.526
  42
1
  0
SEQEND
  0
POLYLINE
  8
Top
  6
CONTINUOUS
  66
1
  70
0
  40
0.3
  41
0.3
  0
VERTEX
  8
Top
  10
36.8962
  20
13.8127
  42
1
  0
VERTEX
  8
Top
  10
36.5962
  20
13.8127
  42
1
  0
VERTEX
  8
Top
  10
36.8962
  20
13.8127
  42
1
  0
SEQEND
  0
POLYLINE
  8
Top
  6
CONTINUOUS
  66
1
  70
0
  40
0.45
  41
0.45
  0
VERTEX
  8
Top
  10
36.7462
  20
9.526
  42
0
  0
VERTEX
  8
Top
  10
36.7462
  20
9.3672
  42
0
  0
SEQEND
  0
POLYLINE
  8
Top
  6
CONTINUOUS
  66
1
  70
0
  40
0.225
  41
0.225
  0
VERTEX
  8
Top
  10
36.8587
  20
9.526
  42
1
  0
VERTEX
  8
Top
  10
36.6337
  20
9.526
  42
1
  0
VERTEX
  8
Top
  10
36.8587
  20
9.526
  42
1
  0
SEQEND
  0
POLYLINE
  8
Top
  6
CONTINUOUS
  66
1
  70
0
  40
0.225
  41
0.225
  0
VERTEX
  8
Top
  10
36.8587
  20
9.3672
  42
1
  0
VERTEX
  8
Top
  10
36.6337
  20
9.3672
  42
1
  0
VERTEX
  8
Top
  10
36.8587
  20
9.3672
  42
1
  0
SEQEND
  0
POLYLINE
  8
Top
  6
CONTINUOUS
  66
1
  70
0
  40
0.45
  41
0.45
  0
VERTEX
  8
Top
  10
36.7462
  20
9.3672
  42
0
  0
VERTEX
  8
Top
  10
21.4933
  20
9.3672
  42
0
  0
SEQEND
  0
POLYLINE
  8
Top
  6
CONTINUOUS
  66
1
  70
0
  40
0.225
  41
0.225
  0
VERTEX
  8
Top
  10
36.8587
  20
9.3672
  42
1
  0
VERTEX
  8
Top
  10
36.6337
  20
9.3672
  42
1
  0
VERTEX
  8
Top
  10
36.8587
  20
9.3672
  42
1
  0
SEQEND
  0
POLYLINE
  8
Top
  6
CONTINUOUS
  66
1
  70
0
  40
0.225
  41
0.225
  0
VERTEX
  8
Top
  10
21.6058
  20
9.3672
  42
1
  0
VERTEX
  8
Top
  10
21.3808
  20
9.3672
  42
1
  0
VERTEX
  8
Top
  10
21.6058
  20
9.3672
  42
1
  0
SEQEND
  0
POLYLINE
  8
Top
  6
CONTINUOUS
  66
1
  70
0
  40
0.45
  41
0.45
  0
VERTEX
  8
Top
  10
21.4933
  20
9.3672
  42
0
  0
VERTEX
  8
Top
  10
20.6567
  20
10.2038
  42
0
  0
SEQEND
  0
POLYLINE
  8
Top
  6
CONTINUOUS
  66
1
  70
0
  40
0.225
  41
0.225
  0
VERTEX
  8
Top
  10
21.6058
  20
9.3672
  42
1
  0
VERTEX
  8
Top
  10
21.3808
  20
9.3672
  42
1
  0
VERTEX
  8
Top
  10
21.6058
  20
9.3672
  42
1
  0
SEQEND
  0
POLYLINE
  8
Top
  6
CONTINUOUS
  66
1
  70
0
  40
0.225
  41
0.225
  0
VERTEX
  8
Top
  10
20.7692
  20
10.2038
  42
1
  0
VERTEX
  8
Top
  10
20.5442
  20
10.2038
  42
1
  0
VERTEX
  8
Top
  10
20.7692
  20
10.2038
  42
1
  0
SEQEND
  0
POLYLINE
  8
Top
  6
CONTINUOUS
  66
1
  70
0
  40
0.45
  41
0.45
  0
VERTEX
  8
Top
  10
16.9798
  20
8.5067
  42
0
  0
VERTEX
  8
Top
  10
16.9214
  20
8.5067
  42
0
  0
SEQEND
  0
POLYLINE
  8
Top
  6
CONTINUOUS
  66
1
  70
0
  40
0.225
  41
0.225
  0
VERTEX
  8
Top
  10
17.0923
  20
8.5067
  42
1
  0
VERTEX
  8
Top
  10
16.8673
  20
8.5067
  42
1
  0
VERTEX
  8
Top
  10
17.0923
  20
8.5067
  42
1
  0
SEQEND
  0
POLYLINE
  8
Top
  6
CONTINUOUS
  66
1
  70
0
  40
0.225
  41
0.225
  0
VERTEX
  8
Top
  10
17.0339
  20
8.5067
  42
1
  0
VERTEX
  8
Top
  10
16.8089
  20
8.5067
  42
1
  0
VERTEX
  8
Top
  10
17.0339
  20
8.5067
  42
1
  0
SEQEND
  0
POLYLINE
  8
Top
  6
CONTINUOUS
  66
1
  70
0
  40
0.45
  41
0.45
  0
VERTEX
  8
Top
  10
16.9214
  20
8.5067
  42
0
  0
VERTEX
  8
Top
  10
16.353
  20
7.9383
  42
0
  0
SEQEND
  0
POLYLINE
  8
Top
  6
CONTINUOUS
  66
1
  70
0
  40
0.225
  41
0.225
  0
VERTEX
  8
Top
  10
17.0339
  20
8.5067
  42
1
  0
VERTEX
  8
Top
  10
16.8089
  20
8.5067
  42
1
  0
VERTEX
  8
Top
  10
17.0339
  20
8.5067
  42
1
  0
SEQEND
  0
POLYLINE
  8
Top
  6
CONTINUOUS
  66
1
  70
0
  40
0.225
  41
0.225
  0
VERTEX
  8
Top
  10
16.4655
  20
7.9383
  42
1
  0
VERTEX
  8
Top
  10
16.2405
  20
7.9383
  42
1
  0
VERTEX
  8
Top
  10
16.4655
  20
7.9383
  42
1
  0
SEQEND
  0
POLYLINE
  8
Top
  6
CONTINUOUS
  66
1
  70
0
  40
0.45
  41
0.45
  0
VERTEX
  8
Top
  10
16.353
  20
7.9383
  42
0
  0
VERTEX
  8
Top
  10
16.353
  20
7.462
  42
0
  0
SEQEND
  0
POLYLINE
  8
Top
  6
CONTINUOUS
  66
1
  70
0
  40
0.225
  41
0.225
  0
VERTEX
  8
Top
  10
16.4655
  20
7.9383
  42
1
  0
VERTEX
  8
Top
  10
16.2405
  20
7.9383
  42
1
  0
VERTEX
  8
Top
  10
16.4655
  20
7.9383
  42
1
  0
SEQEND
  0
POLYLINE
  8
Top
  6
CONTINUOUS
  66
1
  70
0
  40
0.225
  41
0.225
  0
VERTEX
  8
Top
  10
16.4655
  20
7.462
  42
1
  0
VERTEX
  8
Top
  10
16.2405
  20
7.462
  42
1
  0
VERTEX
  8
Top
  10
16.4655
  20
7.462
  42
1
  0
SEQEND
  0
POLYLINE
  8
Top
  6
CONTINUOUS
  66
1
  70
0
  40
0.45
  41
0.45
  0
VERTEX
  8
Top
  10
16.353
  20
7.462
  42
0
  0
VERTEX
  8
Top
  10
17.4643
  20
6.3507
  42
0
  0
SEQEND
  0
POLYLINE
  8
Top
  6
CONTINUOUS
  66
1
  70
0
  40
0.225
  41
0.225
  0
VERTEX
  8
Top
  10
16.4655
  20
7.462
  42
1
  0
VERTEX
  8
Top
  10
16.2405
  20
7.462
  42
1
  0
VERTEX
  8
Top
  10
16.4655
  20
7.462
  42
1
  0
SEQEND
  0
POLYLINE
  8
Top
  6
CONTINUOUS
  66
1
  70
0
  40
0.225
  41
0.225
  0
VERTEX
  8
Top
  10
17.5768
  20
6.3507
  42
1
  0
VERTEX
  8
Top
  10
17.3518
  20
6.3507
  42
1
  0
VERTEX
  8
Top
  10
17.5768
  20
6.3507
  42
1
  0
SEQEND
  0
POLYLINE
  8
Top
  6
CONTINUOUS
  66
1
  70
0
  40
0.45
  41
0.45
  0
VERTEX
  8
Top
  10
17.4643
  20
6.3507
  42
0
  0
VERTEX
  8
Top
  10
32.0709
  20
6.3507
  42
0
  0
SEQEND
  0
POLYLINE
  8
Top
  6
CONTINUOUS
  66
1
  70
0
  40
0.225
  41
0.225
  0
VERTEX
  8
Top
  10
17.5768
  20
6.3507
  42
1
  0
VERTEX
  8
Top
  10
17.3518
  20
6.3507
  42
1
  0
VERTEX
  8
Top
  10
17.5768
  20
6.3507
  42
1
  0
SEQEND
  0
POLYLINE
  8
Top
  6
CONTINUOUS
  66
1
  70
0
  40
0.225
  41
0.225
  0
VERTEX
  8
Top
  10
32.1834
  20
6.3507
  42
1
  0
VERTEX
  8
Top
  10
31.9584
  20
6.3507
  42
1
  0
VERTEX
  8
Top
  10
32.1834
  20
6.3507
  42
1
  0
SEQEND
  0
POLYLINE
  8
Top
  6
CONTINUOUS
  66
1
  70
0
  40
0.45
  41
0.45
  0
VERTEX
  8
Top
  10
32.0709
  20
6.3507
  42
0
  0
VERTEX
  8
Top
  10
33.8173
  20
4.6042
  42
0
  0
SEQEND
  0
POLYLINE
  8
Top
  6
CONTINUOUS
  66
1
  70
0
  40
0.225
  41
0.225
  0
VERTEX
  8
Top
  10
32.1834
  20
6.3507
  42
1
  0
VERTEX
  8
Top
  10
31.9584
  20
6.3507
  42
1
  0
VERTEX
  8
Top
  10
32.1834
  20
6.3507
  42
1
  0
SEQEND
  0
POLYLINE
  8
Top
  6
CONTINUOUS
  66
1
  70
0
  40
0.225
  41
0.225
  0
VERTEX
  8
Top
  10
33.9298
  20
4.6042
  42
1
  0
VERTEX
  8
Top
  10
33.7048
  20
4.6042
  42
1
  0
VERTEX
  8
Top
  10
33.9298
  20
4.6042
  42
1
  0
SEQEND
  0
POLYLINE
  8
Top
  6
CONTINUOUS
  66
1
  70
0
  40
0.45
  41
0.45
  0
VERTEX
  8
Top
  10
33.8173
  20
4.6042
  42
0
  0
VERTEX
  8
Top
  10
33.6583
  20
4.6042
  42
0
  0
SEQEND
  0
POLYLINE
  8
Top
  6
CONTINUOUS
  66
1
  70
0
  40
0.225
  41
0.225
  0
VERTEX
  8
Top
  10
33.9298
  20
4.6042
  42
1
  0
VERTEX
  8
Top
  10
33.7048
  20
4.6042
  42
1
  0
VERTEX
  8
Top
  10
33.9298
  20
4.6042
  42
1
  0
SEQEND
  0
POLYLINE
  8
Top
  6
CONTINUOUS
  66
1
  70
0
  40
0.225
  41
0.225
  0
VERTEX
  8
Top
  10
33.7708
  20
4.6042
  42
1
  0
VERTEX
  8
Top
  10
33.5458
  20
4.6042
  42
1
  0
VERTEX
  8
Top
  10
33.7708
  20
4.6042
  42
1
  0
SEQEND
  0
POLYLINE
  8
Top
  6
CONTINUOUS
  66
1
  70
0
  40
0.45
  41
0.45
  0
VERTEX
  8
Top
  10
16.4141
  20
9.0724
  42
0
  0
VERTEX
  8
Top
  10
15.4004
  20
8.0587
  42
0
  0
SEQEND
  0
POLYLINE
  8
Top
  6
CONTINUOUS
  66
1
  70
0
  40
0.225
  41
0.225
  0
VERTEX
  8
Top
  10
16.5266
  20
9.0724
  42
1
  0
VERTEX
  8
Top
  10
16.3016
  20
9.0724
  42
1
  0
VERTEX
  8
Top
  10
16.5266
  20
9.0724
  42
1
  0
SEQEND
  0
POLYLINE
  8
Top
  6
CONTINUOUS
  66
1
  70
0
  40
0.225
  41
0.225
  0
VERTEX
  8
Top
  10
15.5129
  20
8.0587
  42
1
  0
VERTEX
  8
Top
  10
15.2879
  20
8.0587
  42
1
  0
VERTEX
  8
Top
  10
15.5129
  20
8.0587
  42
1
  0
SEQEND
  0
POLYLINE
  8
Top
  6
CONTINUOUS
  66
1
  70
0
  40
0.45
  41
0.45
  0
VERTEX
  8
Top
  10
15.4004
  20
8.0587
  42
0
  0
VERTEX
  8
Top
  10
15.4004
  20
6.6682
  42
0
  0
SEQEND
  0
POLYLINE
  8
Top
  6
CONTINUOUS
  66
1
  70
0
  40
0.225
  41
0.225
  0
VERTEX
  8
Top
  10
15.5129
  20
8.0587
  42
1
  0
VERTEX
  8
Top
  10
15.2879
  20
8.0587
  42
1
  0
VERTEX
  8
Top
  10
15.5129
  20
8.0587
  42
1
  0
SEQEND
  0
POLYLINE
  8
Top
  6
CONTINUOUS
  66
1
  70
0
  40
0.225
  41
0.225
  0
VERTEX
  8
Top
  10
15.5129
  20
6.6682
  42
1
  0
VERTEX
  8
Top
  10
15.2879
  20
6.6682
  42
1
  0
VERTEX
  8
Top
  10
15.5129
  20
6.6682
  42
1
  0
SEQEND
  0
POLYLINE
  8
Top
  6
CONTINUOUS
  66
1
  70
0
  40
0.45
  41
0.45
  0
VERTEX
  8
Top
  10
15.4004
  20
6.6682
  42
0
  0
VERTEX
  8
Top
  10
16.6705
  20
5.3981
  42
0
  0
SEQEND
  0
POLYLINE
  8
Top
  6
CONTINUOUS
  66
1
  70
0
  40
0.225
  41
0.225
  0
VERTEX
  8
Top
  10
15.5129
  20
6.6682
  42
1
  0
VERTEX
  8
Top
  10
15.2879
  20
6.6682
  42
1
  0
VERTEX
  8
Top
  10
15.5129
  20
6.6682
  42
1
  0
SEQEND
  0
POLYLINE
  8
Top
  6
CONTINUOUS
  66
1
  70
0
  40
0.225
  41
0.225
  0
VERTEX
  8
Top
  10
16.783
  20
5.3981
  42
1
  0
VERTEX
  8
Top
  10
16.558
  20
5.3981
  42
1
  0
VERTEX
  8
Top
  10
16.783
  20
5.3981
  42
1
  0
SEQEND
  0
POLYLINE
  8
Top
  6
CONTINUOUS
  66
1
  70
0
  40
0.45
  41
0.45
  0
VERTEX
  8
Top
  10
16.6705
  20
5.3981
  42
0
  0
VERTEX
  8
Top
  10
24.4501
  20
5.3981
  42
0
  0
SEQEND
  0
POLYLINE
  8
Top
  6
CONTINUOUS
  66
1
  70
0
  40
0.225
  41
0.225
  0
VERTEX
  8
Top
  10
16.783
  20
5.3981
  42
1
  0
VERTEX
  8
Top
  10
16.558
  20
5.3981
  42
1
  0
VERTEX
  8
Top
  10
16.783
  20
5.3981
  42
1
  0
SEQEND
  0
POLYLINE
  8
Top
  6
CONTINUOUS
  66
1
  70
0
  40
0.225
  41
0.225
  0
VERTEX
  8
Top
  10
24.5626
  20
5.3981
  42
1
  0
VERTEX
  8
Top
  10
24.3376
  20
5.3981
  42
1
  0
VERTEX
  8
Top
  10
24.5626
  20
5.3981
  42
1
  0
SEQEND
  0
POLYLINE
  8
Top
  6
CONTINUOUS
  66
1
  70
0
  40
0.45
  41
0.45
  0
VERTEX
  8
Top
  10
24.4501
  20
5.3981
  42
0
  0
VERTEX
  8
Top
  10
25.4027
  20
4.4455
  42
0
  0
SEQEND
  0
POLYLINE
  8
Top
  6
CONTINUOUS
  66
1
  70
0
  40
0.225
  41
0.225
  0
VERTEX
  8
Top
  10
24.5626
  20
5.3981
  42
1
  0
VERTEX
  8
Top
  10
24.3376
  20
5.3981
  42
1
  0
VERTEX
  8
Top
  10
24.5626
  20
5.3981
  42
1
  0
SEQEND
  0
POLYLINE
  8
Top
  6
CONTINUOUS
  66
1
  70
0
  40
0.225
  41
0.225
  0
VERTEX
  8
Top
  10
25.5152
  20
4.4455
  42
1
  0
VERTEX
  8
Top
  10
25.2902
  20
4.4455
  42
1
  0
VERTEX
  8
Top
  10
25.5152
  20
4.4455
  42
1
  0
SEQEND
  0
POLYLINE
  8
Top
  6
CONTINUOUS
  66
1
  70
0
  40
0.45
  41
0.45
  0
VERTEX
  8
Top
  10
25.4027
  20
4.4455
  42
0
  0
VERTEX
  8
Top
  10
25.2436
  20
4.4455
  42
0
  0
SEQEND
  0
POLYLINE
  8
Top
  6
CONTINUOUS
  66
1
  70
0
  40
0.225
  41
0.225
  0
VERTEX
  8
Top
  10
25.5152
  20
4.4455
  42
1
  0
VERTEX
  8
Top
  10
25.2902
  20
4.4455
  42
1
  0
VERTEX
  8
Top
  10
25.5152
  20
4.4455
  42
1
  0
SEQEND
  0
POLYLINE
  8
Top
  6
CONTINUOUS
  66
1
  70
0
  40
0.225
  41
0.225
  0
VERTEX
  8
Top
  10
25.3561
  20
4.4455
  42
1
  0
VERTEX
  8
Top
  10
25.1311
  20
4.4455
  42
1
  0
VERTEX
  8
Top
  10
25.3561
  20
4.4455
  42
1
  0
SEQEND
  0
POLYLINE
  8
Top
  6
CONTINUOUS
  66
1
  70
0
  40
0.45
  41
0.45
  0
VERTEX
  8
Top
  10
13.6539
  20
3.4931
  42
0
  0
VERTEX
  8
Top
  10
13.3364
  20
3.4931
  42
0
  0
SEQEND
  0
POLYLINE
  8
Top
  6
CONTINUOUS
  66
1
  70
0
  40
0.225
  41
0.225
  0
VERTEX
  8
Top
  10
13.7664
  20
3.4931
  42
1
  0
VERTEX
  8
Top
  10
13.5414
  20
3.4931
  42
1
  0
VERTEX
  8
Top
  10
13.7664
  20
3.4931
  42
1
  0
SEQEND
  0
POLYLINE
  8
Top
  6
CONTINUOUS
  66
1
  70
0
  40
0.225
  41
0.225
  0
VERTEX
  8
Top
  10
13.4489
  20
3.4931
  42
1
  0
VERTEX
  8
Top
  10
13.2239
  20
3.4931
  42
1
  0
VERTEX
  8
Top
  10
13.4489
  20
3.4931
  42
1
  0
SEQEND
  0
POLYLINE
  8
Top
  6
CONTINUOUS
  66
1
  70
0
  40
0.45
  41
0.45
  0
VERTEX
  8
Top
  10
13.3364
  20
3.4931
  42
0
  0
VERTEX
  8
Top
  10
13.3364
  20
8.2575
  42
0
  0
SEQEND
  0
POLYLINE
  8
Top
  6
CONTINUOUS
  66
1
  70
0
  40
0.225
  41
0.225
  0
VERTEX
  8
Top
  10
13.4489
  20
3.4931
  42
1
  0
VERTEX
  8
Top
  10
13.2239
  20
3.4931
  42
1
  0
VERTEX
  8
Top
  10
13.4489
  20
3.4931
  42
1
  0
SEQEND
  0
POLYLINE
  8
Top
  6
CONTINUOUS
  66
1
  70
0
  40
0.225
  41
0.225
  0
VERTEX
  8
Top
  10
13.4489
  20
8.2575
  42
1
  0
VERTEX
  8
Top
  10
13.2239
  20
8.2575
  42
1
  0
VERTEX
  8
Top
  10
13.4489
  20
8.2575
  42
1
  0
SEQEND
  0
POLYLINE
  8
Top
  6
CONTINUOUS
  66
1
  70
0
  40
0.45
  41
0.45
  0
VERTEX
  8
Top
  10
13.3364
  20
8.2575
  42
0
  0
VERTEX
  8
Top
  10
15.2827
  20
10.2038
  42
0
  0
SEQEND
  0
POLYLINE
  8
Top
  6
CONTINUOUS
  66
1
  70
0
  40
0.225
  41
0.225
  0
VERTEX
  8
Top
  10
13.4489
  20
8.2575
  42
1
  0
VERTEX
  8
Top
  10
13.2239
  20
8.2575
  42
1
  0
VERTEX
  8
Top
  10
13.4489
  20
8.2575
  42
1
  0
SEQEND
  0
POLYLINE
  8
Top
  6
CONTINUOUS
  66
1
  70
0
  40
0.225
  41
0.225
  0
VERTEX
  8
Top
  10
15.3952
  20
10.2038
  42
1
  0
VERTEX
  8
Top
  10
15.1702
  20
10.2038
  42
1
  0
VERTEX
  8
Top
  10
15.3952
  20
10.2038
  42
1
  0
SEQEND
  0
POLYLINE
  8
Top
  6
CONTINUOUS
  66
1
  70
0
  40
0.8
  41
0.8
  0
VERTEX
  8
Top
  10
35.5637
  20
4.6042
  42
0
  0
VERTEX
  8
Top
  10
37.7865
  20
4.6042
  42
0
  0
SEQEND
  0
POLYLINE
  8
Top
  6
CONTINUOUS
  66
1
  70
0
  40
0.4
  41
0.4
  0
VERTEX
  8
Top
  10
35.7637
  20
4.6042
  42
1
  0
VERTEX
  8
Top
  10
35.3637
  20
4.6042
  42
1
  0
VERTEX
  8
Top
  10
35.7637
  20
4.6042
  42
1
  0
SEQEND
  0
POLYLINE
  8
Top
  6
CONTINUOUS
  66
1
  70
0
  40
0.4
  41
0.4
  0
VERTEX
  8
Top
  10
37.9865
  20
4.6042
  42
1
  0
VERTEX
  8
Top
  10
37.5865
  20
4.6042
  42
1
  0
VERTEX
  8
Top
  10
37.9865
  20
4.6042
  42
1
  0
SEQEND
  0
POLYLINE
  8
Top
  6
CONTINUOUS
  66
1
  70
0
  40
0.8
  41
0.8
  0
VERTEX
  8
Top
  10
27.1491
  20
4.4455
  42
0
  0
VERTEX
  8
Top
  10
29.0543
  20
4.4455
  42
0
  0
SEQEND
  0
POLYLINE
  8
Top
  6
CONTINUOUS
  66
1
  70
0
  40
0.4
  41
0.4
  0
VERTEX
  8
Top
  10
27.3491
  20
4.4455
  42
1
  0
VERTEX
  8
Top
  10
26.9491
  20
4.4455
  42
1
  0
VERTEX
  8
Top
  10
27.3491
  20
4.4455
  42
1
  0
SEQEND
  0
POLYLINE
  8
Top
  6
CONTINUOUS
  66
1
  70
0
  40
0.4
  41
0.4
  0
VERTEX
  8
Top
  10
29.2543
  20
4.4455
  42
1
  0
VERTEX
  8
Top
  10
28.8543
  20
4.4455
  42
1
  0
VERTEX
  8
Top
  10
29.2543
  20
4.4455
  42
1
  0
SEQEND
  0
POLYLINE
  8
Top
  6
CONTINUOUS
  66
1
  70
0
  40
0.8
  41
0.8
  0
VERTEX
  8
Top
  10
29.0543
  20
4.4455
  42
0
  0
VERTEX
  8
Top
  10
29.3718
  20
4.1279
  42
0
  0
SEQEND
  0
POLYLINE
  8
Top
  6
CONTINUOUS
  66
1
  70
0
  40
0.4
  41
0.4
  0
VERTEX
  8
Top
  10
29.2543
  20
4.4455
  42
1
  0
VERTEX
  8
Top
  10
28.8543
  20
4.4455
  42
1
  0
VERTEX
  8
Top
  10
29.2543
  20
4.4455
  42
1
  0
SEQEND
  0
POLYLINE
  8
Top
  6
CONTINUOUS
  66
1
  70
0
  40
0.4
  41
0.4
  0
VERTEX
  8
Top
  10
29.5718
  20
4.1279
  42
1
  0
VERTEX
  8
Top
  10
29.1718
  20
4.1279
  42
1
  0
VERTEX
  8
Top
  10
29.5718
  20
4.1279
  42
1
  0
SEQEND
  0
POLYLINE
  8
Top
  6
CONTINUOUS
  66
1
  70
0
  40
0.8
  41
0.8
  0
VERTEX
  8
Top
  10
16.5117
  20
1.5877
  42
0
  0
VERTEX
  8
Top
  10
13.6539
  20
1.5877
  42
0
  0
SEQEND
  0
POLYLINE
  8
Top
  6
CONTINUOUS
  66
1
  70
0
  40
0.4
  41
0.4
  0
VERTEX
  8
Top
  10
16.7117
  20
1.5877
  42
1
  0
VERTEX
  8
Top
  10
16.3117
  20
1.5877
  42
1
  0
VERTEX
  8
Top
  10
16.7117
  20
1.5877
  42
1
  0
SEQEND
  0
POLYLINE
  8
Top
  6
CONTINUOUS
  66
1
  70
0
  40
0.4
  41
0.4
  0
VERTEX
  8
Top
  10
13.8539
  20
1.5877
  42
1
  0
VERTEX
  8
Top
  10
13.4539
  20
1.5877
  42
1
  0
VERTEX
  8
Top
  10
13.8539
  20
1.5877
  42
1
  0
SEQEND
  0
POLYLINE
  8
Top
  6
CONTINUOUS
  66
1
  70
0
  40
0.45
  41
0.45
  0
VERTEX
  8
Top
  10
15.8484
  20
9.6381
  42
0
  0
VERTEX
  8
Top
  10
14.6065
  20
8.3962
  42
0
  0
SEQEND
  0
POLYLINE
  8
Top
  6
CONTINUOUS
  66
1
  70
0
  40
0.225
  41
0.225
  0
VERTEX
  8
Top
  10
15.9609
  20
9.6381
  42
1
  0
VERTEX
  8
Top
  10
15.7359
  20
9.6381
  42
1
  0
VERTEX
  8
Top
  10
15.9609
  20
9.6381
  42
1
  0
SEQEND
  0
POLYLINE
  8
Top
  6
CONTINUOUS
  66
1
  70
0
  40
0.225
  41
0.225
  0
VERTEX
  8
Top
  10
14.719
  20
8.3962
  42
1
  0
VERTEX
  8
Top
  10
14.494
  20
8.3962
  42
1
  0
VERTEX
  8
Top
  10
14.719
  20
8.3962
  42
1
  0
SEQEND
  0
POLYLINE
  8
Top
  6
CONTINUOUS
  66
1
  70
0
  40
0.45
  41
0.45
  0
VERTEX
  8
Top
  10
14.6065
  20
8.3962
  42
0
  0
VERTEX
  8
Top
  10
14.6065
  20
5.2393
  42
0
  0
SEQEND
  0
POLYLINE
  8
Top
  6
CONTINUOUS
  66
1
  70
0
  40
0.225
  41
0.225
  0
VERTEX
  8
Top
  10
14.719
  20
8.3962
  42
1
  0
VERTEX
  8
Top
  10
14.494
  20
8.3962
  42
1
  0
VERTEX
  8
Top
  10
14.719
  20
8.3962
  42
1
  0
SEQEND
  0
POLYLINE
  8
Top
  6
CONTINUOUS
  66
1
  70
0
  40
0.225
  41
0.225
  0
VERTEX
  8
Top
  10
14.719
  20
5.2393
  42
1
  0
VERTEX
  8
Top
  10
14.494
  20
5.2393
  42
1
  0
VERTEX
  8
Top
  10
14.719
  20
5.2393
  42
1
  0
SEQEND
  0
POLYLINE
  8
Top
  6
CONTINUOUS
  66
1
  70
0
  40
0.45
  41
0.45
  0
VERTEX
  8
Top
  10
14.6065
  20
5.2393
  42
0
  0
VERTEX
  8
Top
  10
15.7179
  20
4.1279
  42
0
  0
SEQEND
  0
POLYLINE
  8
Top
  6
CONTINUOUS
  66
1
  70
0
  40
0.225
  41
0.225
  0
VERTEX
  8
Top
  10
14.719
  20
5.2393
  42
1
  0
VERTEX
  8
Top
  10
14.494
  20
5.2393
  42
1
  0
VERTEX
  8
Top
  10
14.719
  20
5.2393
  42
1
  0
SEQEND
  0
POLYLINE
  8
Top
  6
CONTINUOUS
  66
1
  70
0
  40
0.225
  41
0.225
  0
VERTEX
  8
Top
  10
15.8304
  20
4.1279
  42
1
  0
VERTEX
  8
Top
  10
15.6054
  20
4.1279
  42
1
  0
VERTEX
  8
Top
  10
15.8304
  20
4.1279
  42
1
  0
SEQEND
  0
POLYLINE
  8
Top
  6
CONTINUOUS
  66
1
  70
0
  40
0.45
  41
0.45
  0
VERTEX
  8
Top
  10
15.7179
  20
4.1279
  42
0
  0
VERTEX
  8
Top
  10
15.7179
  20
3.8101
  42
0
  0
SEQEND
  0
POLYLINE
  8
Top
  6
CONTINUOUS
  66
1
  70
0
  40
0.225
  41
0.225
  0
VERTEX
  8
Top
  10
15.8304
  20
4.1279
  42
1
  0
VERTEX
  8
Top
  10
15.6054
  20
4.1279
  42
1
  0
VERTEX
  8
Top
  10
15.8304
  20
4.1279
  42
1
  0
SEQEND
  0
POLYLINE
  8
Top
  6
CONTINUOUS
  66
1
  70
0
  40
0.225
  41
0.225
  0
VERTEX
  8
Top
  10
15.8304
  20
3.8101
  42
1
  0
VERTEX
  8
Top
  10
15.6054
  20
3.8101
  42
1
  0
VERTEX
  8
Top
  10
15.8304
  20
3.8101
  42
1
  0
SEQEND
  0
POLYLINE
  8
Top
  6
CONTINUOUS
  66
1
  70
0
  40
0.45
  41
0.45
  0
VERTEX
  8
Top
  10
15.7179
  20
3.8101
  42
0
  0
VERTEX
  8
Top
  10
15.5589
  20
3.9692
  42
0
  0
SEQEND
  0
POLYLINE
  8
Top
  6
CONTINUOUS
  66
1
  70
0
  40
0.225
  41
0.225
  0
VERTEX
  8
Top
  10
15.8304
  20
3.8101
  42
1
  0
VERTEX
  8
Top
  10
15.6054
  20
3.8101
  42
1
  0
VERTEX
  8
Top
  10
15.8304
  20
3.8101
  42
1
  0
SEQEND
  0
POLYLINE
  8
Top
  6
CONTINUOUS
  66
1
  70
0
  40
0.225
  41
0.225
  0
VERTEX
  8
Top
  10
15.6714
  20
3.9692
  42
1
  0
VERTEX
  8
Top
  10
15.4464
  20
3.9692
  42
1
  0
VERTEX
  8
Top
  10
15.6714
  20
3.9692
  42
1
  0
SEQEND
  0
POLYLINE
  8
Top
  6
CONTINUOUS
  66
1
  70
0
  40
0.8
  41
0.8
  0
VERTEX
  8
Top
  10
17.4643
  20
3.9692
  42
0
  0
VERTEX
  8
Top
  10
17.4643
  20
3.6516
  42
0
  0
SEQEND
  0
POLYLINE
  8
Top
  6
CONTINUOUS
  66
1
  70
0
  40
0.4
  41
0.4
  0
VERTEX
  8
Top
  10
17.6643
  20
3.9692
  42
1
  0
VERTEX
  8
Top
  10
17.2643
  20
3.9692
  42
1
  0
VERTEX
  8
Top
  10
17.6643
  20
3.9692
  42
1
  0
SEQEND
  0
POLYLINE
  8
Top
  6
CONTINUOUS
  66
1
  70
0
  40
0.4
  41
0.4
  0
VERTEX
  8
Top
  10
17.6643
  20
3.6516
  42
1
  0
VERTEX
  8
Top
  10
17.2643
  20
3.6516
  42
1
  0
VERTEX
  8
Top
  10
17.6643
  20
3.6516
  42
1
  0
SEQEND
  0
POLYLINE
  8
Top
  6
CONTINUOUS
  66
1
  70
0
  40
0.8
  41
0.8
  0
VERTEX
  8
Top
  10
17.4643
  20
3.6516
  42
0
  0
VERTEX
  8
Top
  10
18.8932
  20
3.6516
  42
0
  0
SEQEND
  0
POLYLINE
  8
Top
  6
CONTINUOUS
  66
1
  70
0
  40
0.4
  41
0.4
  0
VERTEX
  8
Top
  10
17.6643
  20
3.6516
  42
1
  0
VERTEX
  8
Top
  10
17.2643
  20
3.6516
  42
1
  0
VERTEX
  8
Top
  10
17.6643
  20
3.6516
  42
1
  0
SEQEND
  0
POLYLINE
  8
Top
  6
CONTINUOUS
  66
1
  70
0
  40
0.4
  41
0.4
  0
VERTEX
  8
Top
  10
19.0932
  20
3.6516
  42
1
  0
VERTEX
  8
Top
  10
18.6932
  20
3.6516
  42
1
  0
VERTEX
  8
Top
  10
19.0932
  20
3.6516
  42
1
  0
SEQEND
  0
POLYLINE
  8
Top
  6
CONTINUOUS
  66
1
  70
0
  40
0.8
  41
0.8
  0
VERTEX
  8
Top
  10
18.8932
  20
3.6516
  42
0
  0
VERTEX
  8
Top
  10
19.2108
  20
3.3341
  42
0
  0
SEQEND
  0
POLYLINE
  8
Top
  6
CONTINUOUS
  66
1
  70
0
  40
0.4
  41
0.4
  0
VERTEX
  8
Top
  10
19.0932
  20
3.6516
  42
1
  0
VERTEX
  8
Top
  10
18.6932
  20
3.6516
  42
1
  0
VERTEX
  8
Top
  10
19.0932
  20
3.6516
  42
1
  0
SEQEND
  0
POLYLINE
  8
Top
  6
CONTINUOUS
  66
1
  70
0
  40
0.4
  41
0.4
  0
VERTEX
  8
Top
  10
19.4108
  20
3.3341
  42
1
  0
VERTEX
  8
Top
  10
19.0108
  20
3.3341
  42
1
  0
VERTEX
  8
Top
  10
19.4108
  20
3.3341
  42
1
  0
SEQEND
  0
POLYLINE
  8
Top
  6
CONTINUOUS
  66
1
  70
0
  40
0.45
  41
0.45
  0
VERTEX
  8
Top
  10
22.9194
  20
14.4464
  42
0
  0
VERTEX
  8
Top
  10
22.861
  20
14.4464
  42
0
  0
SEQEND
  0
POLYLINE
  8
Top
  6
CONTINUOUS
  66
1
  70
0
  40
0.225
  41
0.225
  0
VERTEX
  8
Top
  10
23.0319
  20
14.4464
  42
1
  0
VERTEX
  8
Top
  10
22.8069
  20
14.4464
  42
1
  0
VERTEX
  8
Top
  10
23.0319
  20
14.4464
  42
1
  0
SEQEND
  0
POLYLINE
  8
Top
  6
CONTINUOUS
  66
1
  70
0
  40
0.225
  41
0.225
  0
VERTEX
  8
Top
  10
22.9735
  20
14.4464
  42
1
  0
VERTEX
  8
Top
  10
22.7485
  20
14.4464
  42
1
  0
VERTEX
  8
Top
  10
22.9735
  20
14.4464
  42
1
  0
SEQEND
  0
POLYLINE
  8
Top
  6
CONTINUOUS
  66
1
  70
0
  40
0.45
  41
0.45
  0
VERTEX
  8
Top
  10
22.861
  20
14.4464
  42
0
  0
VERTEX
  8
Top
  10
23.4975
  20
15.0828
  42
0
  0
SEQEND
  0
POLYLINE
  8
Top
  6
CONTINUOUS
  66
1
  70
0
  40
0.225
  41
0.225
  0
VERTEX
  8
Top
  10
22.9735
  20
14.4464
  42
1
  0
VERTEX
  8
Top
  10
22.7485
  20
14.4464
  42
1
  0
VERTEX
  8
Top
  10
22.9735
  20
14.4464
  42
1
  0
SEQEND
  0
POLYLINE
  8
Top
  6
CONTINUOUS
  66
1
  70
0
  40
0.225
  41
0.225
  0
VERTEX
  8
Top
  10
23.61
  20
15.0828
  42
1
  0
VERTEX
  8
Top
  10
23.385
  20
15.0828
  42
1
  0
VERTEX
  8
Top
  10
23.61
  20
15.0828
  42
1
  0
SEQEND
  0
POLYLINE
  8
Top
  6
CONTINUOUS
  66
1
  70
0
  40
0.45
  41
0.45
  0
VERTEX
  8
Top
  10
23.4975
  20
15.0828
  42
0
  0
VERTEX
  8
Top
  10
24.7676
  20
15.0828
  42
0
  0
SEQEND
  0
POLYLINE
  8
Top
  6
CONTINUOUS
  66
1
  70
0
  40
0.225
  41
0.225
  0
VERTEX
  8
Top
  10
23.61
  20
15.0828
  42
1
  0
VERTEX
  8
Top
  10
23.385
  20
15.0828
  42
1
  0
VERTEX
  8
Top
  10
23.61
  20
15.0828
  42
1
  0
SEQEND
  0
POLYLINE
  8
Top
  6
CONTINUOUS
  66
1
  70
0
  40
0.225
  41
0.225
  0
VERTEX
  8
Top
  10
24.8801
  20
15.0828
  42
1
  0
VERTEX
  8
Top
  10
24.6551
  20
15.0828
  42
1
  0
VERTEX
  8
Top
  10
24.8801
  20
15.0828
  42
1
  0
SEQEND
  0
POLYLINE
  8
Top
  6
CONTINUOUS
  66
1
  70
0
  40
0.45
  41
0.45
  0
VERTEX
  8
Top
  10
24.7676
  20
15.0828
  42
0
  0
VERTEX
  8
Top
  10
25.5614
  20
14.289
  42
0
  0
SEQEND
  0
POLYLINE
  8
Top
  6
CONTINUOUS
  66
1
  70
0
  40
0.225
  41
0.225
  0
VERTEX
  8
Top
  10
24.8801
  20
15.0828
  42
1
  0
VERTEX
  8
Top
  10
24.6551
  20
15.0828
  42
1
  0
VERTEX
  8
Top
  10
24.8801
  20
15.0828
  42
1
  0
SEQEND
  0
POLYLINE
  8
Top
  6
CONTINUOUS
  66
1
  70
0
  40
0.225
  41
0.225
  0
VERTEX
  8
Top
  10
25.6739
  20
14.289
  42
1
  0
VERTEX
  8
Top
  10
25.4489
  20
14.289
  42
1
  0
VERTEX
  8
Top
  10
25.6739
  20
14.289
  42
1
  0
SEQEND
  0
POLYLINE
  8
Top
  6
CONTINUOUS
  66
1
  70
0
  40
0.5
  41
0.5
  0
VERTEX
  8
Top
  10
28.1005
  20
22.0664
  42
0
  0
VERTEX
  8
Top
  10
28.1009
  20
24.4482
  42
0
  0
SEQEND
  0
POLYLINE
  8
Top
  6
CONTINUOUS
  66
1
  70
0
  40
0.25
  41
0.25
  0
VERTEX
  8
Top
  10
28.2255
  20
22.0664
  42
1
  0
VERTEX
  8
Top
  10
27.9755
  20
22.0664
  42
1
  0
VERTEX
  8
Top
  10
28.2255
  20
22.0664
  42
1
  0
SEQEND
  0
POLYLINE
  8
Top
  6
CONTINUOUS
  66
1
  70
0
  40
0.25
  41
0.25
  0
VERTEX
  8
Top
  10
28.2259
  20
24.4482
  42
1
  0
VERTEX
  8
Top
  10
27.9759
  20
24.4482
  42
1
  0
VERTEX
  8
Top
  10
28.2259
  20
24.4482
  42
1
  0
SEQEND
  0
POLYLINE
  8
Top
  6
CONTINUOUS
  66
1
  70
0
  40
0.5
  41
0.5
  0
VERTEX
  8
Top
  10
28.101
  20
19.6856
  42
0
  0
VERTEX
  8
Top
  10
28.1005
  20
22.0664
  42
0
  0
SEQEND
  0
POLYLINE
  8
Top
  6
CONTINUOUS
  66
1
  70
0
  40
0.25
  41
0.25
  0
VERTEX
  8
Top
  10
28.226
  20
19.6856
  42
1
  0
VERTEX
  8
Top
  10
27.976
  20
19.6856
  42
1
  0
VERTEX
  8
Top
  10
28.226
  20
19.6856
  42
1
  0
SEQEND
  0
POLYLINE
  8
Top
  6
CONTINUOUS
  66
1
  70
0
  40
0.25
  41
0.25
  0
VERTEX
  8
Top
  10
28.2255
  20
22.0664
  42
1
  0
VERTEX
  8
Top
  10
27.9755
  20
22.0664
  42
1
  0
VERTEX
  8
Top
  10
28.2255
  20
22.0664
  42
1
  0
SEQEND
  0
POLYLINE
  8
Top
  6
CONTINUOUS
  66
1
  70
0
  40
0.45
  41
0.45
  0
VERTEX
  8
Top
  10
21.2745
  20
22.5449
  42
0
  0
VERTEX
  8
Top
  10
21.1159
  20
22.5449
  42
0
  0
SEQEND
  0
POLYLINE
  8
Top
  6
CONTINUOUS
  66
1
  70
0
  40
0.225
  41
0.225
  0
VERTEX
  8
Top
  10
21.387
  20
22.5449
  42
1
  0
VERTEX
  8
Top
  10
21.162
  20
22.5449
  42
1
  0
VERTEX
  8
Top
  10
21.387
  20
22.5449
  42
1
  0
SEQEND
  0
POLYLINE
  8
Top
  6
CONTINUOUS
  66
1
  70
0
  40
0.225
  41
0.225
  0
VERTEX
  8
Top
  10
21.2284
  20
22.5449
  42
1
  0
VERTEX
  8
Top
  10
21.0034
  20
22.5449
  42
1
  0
VERTEX
  8
Top
  10
21.2284
  20
22.5449
  42
1
  0
SEQEND
  0
POLYLINE
  8
Top
  6
CONTINUOUS
  66
1
  70
0
  40
0.45
  41
0.45
  0
VERTEX
  8
Top
  10
21.1159
  20
22.5449
  42
0
  0
VERTEX
  8
Top
  10
21.1159
  20
24.4482
  42
0
  0
SEQEND
  0
POLYLINE
  8
Top
  6
CONTINUOUS
  66
1
  70
0
  40
0.225
  41
0.225
  0
VERTEX
  8
Top
  10
21.2284
  20
22.5449
  42
1
  0
VERTEX
  8
Top
  10
21.0034
  20
22.5449
  42
1
  0
VERTEX
  8
Top
  10
21.2284
  20
22.5449
  42
1
  0
SEQEND
  0
POLYLINE
  8
Top
  6
CONTINUOUS
  66
1
  70
0
  40
0.225
  41
0.225
  0
VERTEX
  8
Top
  10
21.2284
  20
24.4482
  42
1
  0
VERTEX
  8
Top
  10
21.0034
  20
24.4482
  42
1
  0
VERTEX
  8
Top
  10
21.2284
  20
24.4482
  42
1
  0
SEQEND
  0
POLYLINE
  8
Top
  6
CONTINUOUS
  66
1
  70
0
  40
0.45
  41
0.45
  0
VERTEX
  8
Top
  10
22.2273
  20
20.4812
  42
0
  0
VERTEX
  8
Top
  10
21.2747
  20
21.4338
  42
0
  0
SEQEND
  0
POLYLINE
  8
Top
  6
CONTINUOUS
  66
1
  70
0
  40
0.225
  41
0.225
  0
VERTEX
  8
Top
  10
22.3398
  20
20.4812
  42
1
  0
VERTEX
  8
Top
  10
22.1148
  20
20.4812
  42
1
  0
VERTEX
  8
Top
  10
22.3398
  20
20.4812
  42
1
  0
SEQEND
  0
POLYLINE
  8
Top
  6
CONTINUOUS
  66
1
  70
0
  40
0.225
  41
0.225
  0
VERTEX
  8
Top
  10
21.3872
  20
21.4338
  42
1
  0
VERTEX
  8
Top
  10
21.1622
  20
21.4338
  42
1
  0
VERTEX
  8
Top
  10
21.3872
  20
21.4338
  42
1
  0
SEQEND
  0
POLYLINE
  8
Top
  6
CONTINUOUS
  66
1
  70
0
  40
0.45
  41
0.45
  0
VERTEX
  8
Top
  10
21.2747
  20
21.4338
  42
0
  0
VERTEX
  8
Top
  10
21.2747
  20
22.5449
  42
0
  0
SEQEND
  0
POLYLINE
  8
Top
  6
CONTINUOUS
  66
1
  70
0
  40
0.225
  41
0.225
  0
VERTEX
  8
Top
  10
21.3872
  20
21.4338
  42
1
  0
VERTEX
  8
Top
  10
21.1622
  20
21.4338
  42
1
  0
VERTEX
  8
Top
  10
21.3872
  20
21.4338
  42
1
  0
SEQEND
  0
POLYLINE
  8
Top
  6
CONTINUOUS
  66
1
  70
0
  40
0.225
  41
0.225
  0
VERTEX
  8
Top
  10
21.3872
  20
22.5449
  42
1
  0
VERTEX
  8
Top
  10
21.1622
  20
22.5449
  42
1
  0
VERTEX
  8
Top
  10
21.3872
  20
22.5449
  42
1
  0
SEQEND
  0
POLYLINE
  8
Top
  6
CONTINUOUS
  66
1
  70
0
  40
0.45
  41
0.45
  0
VERTEX
  8
Top
  10
21.2747
  20
22.5449
  42
0
  0
VERTEX
  8
Top
  10
21.2745
  20
22.5449
  42
0
  0
SEQEND
  0
POLYLINE
  8
Top
  6
CONTINUOUS
  66
1
  70
0
  40
0.225
  41
0.225
  0
VERTEX
  8
Top
  10
21.3872
  20
22.5449
  42
1
  0
VERTEX
  8
Top
  10
21.1622
  20
22.5449
  42
1
  0
VERTEX
  8
Top
  10
21.3872
  20
22.5449
  42
1
  0
SEQEND
  0
POLYLINE
  8
Top
  6
CONTINUOUS
  66
1
  70
0
  40
0.5
  41
0.5
  0
VERTEX
  8
Top
  10
35.0855
  20
22.2252
  42
0
  0
VERTEX
  8
Top
  10
35.0855
  20
24.4477
  42
0
  0
SEQEND
  0
POLYLINE
  8
Top
  6
CONTINUOUS
  66
1
  70
0
  40
0.25
  41
0.25
  0
VERTEX
  8
Top
  10
35.2105
  20
22.2252
  42
1
  0
VERTEX
  8
Top
  10
34.9605
  20
22.2252
  42
1
  0
VERTEX
  8
Top
  10
35.2105
  20
22.2252
  42
1
  0
SEQEND
  0
POLYLINE
  8
Top
  6
CONTINUOUS
  66
1
  70
0
  40
0.25
  41
0.25
  0
VERTEX
  8
Top
  10
35.2105
  20
24.4477
  42
1
  0
VERTEX
  8
Top
  10
34.9605
  20
24.4477
  42
1
  0
VERTEX
  8
Top
  10
35.2105
  20
24.4477
  42
1
  0
SEQEND
  0
POLYLINE
  8
Top
  6
CONTINUOUS
  66
1
  70
0
  40
0.5
  41
0.5
  0
VERTEX
  8
Top
  10
35.0855
  20
24.4477
  42
0
  0
VERTEX
  8
Top
  10
35.086
  20
24.4482
  42
0
  0
SEQEND
  0
POLYLINE
  8
Top
  6
CONTINUOUS
  66
1
  70
0
  40
0.25
  41
0.25
  0
VERTEX
  8
Top
  10
35.2105
  20
24.4477
  42
1
  0
VERTEX
  8
Top
  10
34.9605
  20
24.4477
  42
1
  0
VERTEX
  8
Top
  10
35.2105
  20
24.4477
  42
1
  0
SEQEND
  0
POLYLINE
  8
Top
  6
CONTINUOUS
  66
1
  70
0
  40
0.5
  41
0.5
  0
VERTEX
  8
Top
  10
35.086
  20
19.6856
  42
0
  0
VERTEX
  8
Top
  10
35.086
  20
22.2247
  42
0
  0
SEQEND
  0
POLYLINE
  8
Top
  6
CONTINUOUS
  66
1
  70
0
  40
0.25
  41
0.25
  0
VERTEX
  8
Top
  10
35.211
  20
19.6856
  42
1
  0
VERTEX
  8
Top
  10
34.961
  20
19.6856
  42
1
  0
VERTEX
  8
Top
  10
35.211
  20
19.6856
  42
1
  0
SEQEND
  0
POLYLINE
  8
Top
  6
CONTINUOUS
  66
1
  70
0
  40
0.25
  41
0.25
  0
VERTEX
  8
Top
  10
35.211
  20
22.2247
  42
1
  0
VERTEX
  8
Top
  10
34.961
  20
22.2247
  42
1
  0
VERTEX
  8
Top
  10
35.211
  20
22.2247
  42
1
  0
SEQEND
  0
POLYLINE
  8
Top
  6
CONTINUOUS
  66
1
  70
0
  40
0.5
  41
0.5
  0
VERTEX
  8
Top
  10
35.086
  20
22.2247
  42
0
  0
VERTEX
  8
Top
  10
35.0855
  20
22.2252
  42
0
  0
SEQEND
  0
POLYLINE
  8
Top
  6
CONTINUOUS
  66
1
  70
0
  40
0.25
  41
0.25
  0
VERTEX
  8
Top
  10
35.211
  20
22.2247
  42
1
  0
VERTEX
  8
Top
  10
34.961
  20
22.2247
  42
1
  0
VERTEX
  8
Top
  10
35.211
  20
22.2247
  42
1
  0
SEQEND
  0
POLYLINE
  8
Top
  6
CONTINUOUS
  66
1
  70
0
  40
1.5
  41
1.5
  0
VERTEX
  8
Top
  10
36.991
  20
28.3684
  42
0
  0
VERTEX
  8
Top
  10
36.991
  20
33.3301
  42
0
  0
SEQEND
  0
POLYLINE
  8
Top
  6
CONTINUOUS
  66
1
  70
0
  40
0.75
  41
0.75
  0
VERTEX
  8
Top
  10
37.366
  20
28.3684
  42
1
  0
VERTEX
  8
Top
  10
36.616
  20
28.3684
  42
1
  0
VERTEX
  8
Top
  10
37.366
  20
28.3684
  42
1
  0
SEQEND
  0
POLYLINE
  8
Top
  6
CONTINUOUS
  66
1
  70
0
  40
0.75
  41
0.75
  0
VERTEX
  8
Top
  10
37.366
  20
33.3301
  42
1
  0
VERTEX
  8
Top
  10
36.616
  20
33.3301
  42
1
  0
VERTEX
  8
Top
  10
37.366
  20
33.3301
  42
1
  0
SEQEND
  0
POLYLINE
  8
Top
  6
CONTINUOUS
  66
1
  70
0
  40
1.5
  41
1.5
  0
VERTEX
  8
Top
  10
36.991
  20
33.3301
  42
0
  0
VERTEX
  8
Top
  10
36.9985
  20
33.3376
  42
0
  0
SEQEND
  0
POLYLINE
  8
Top
  6
CONTINUOUS
  66
1
  70
0
  40
0.75
  41
0.75
  0
VERTEX
  8
Top
  10
37.366
  20
33.3301
  42
1
  0
VERTEX
  8
Top
  10
36.616
  20
33.3301
  42
1
  0
VERTEX
  8
Top
  10
37.366
  20
33.3301
  42
1
  0
SEQEND
  0
POLYLINE
  8
Top
  6
CONTINUOUS
  66
1
  70
0
  40
0.75
  41
0.75
  0
VERTEX
  8
Top
  10
37.3735
  20
33.3376
  42
1
  0
VERTEX
  8
Top
  10
36.6235
  20
33.3376
  42
1
  0
VERTEX
  8
Top
  10
37.3735
  20
33.3376
  42
1
  0
SEQEND
  0
POLYLINE
  8
Top
  6
CONTINUOUS
  66
1
  70
0
  40
1.5
  41
1.5
  0
VERTEX
  8
Top
  10
30.0059
  20
28.3684
  42
0
  0
VERTEX
  8
Top
  10
30.0059
  20
33.3301
  42
0
  0
SEQEND
  0
POLYLINE
  8
Top
  6
CONTINUOUS
  66
1
  70
0
  40
0.75
  41
0.75
  0
VERTEX
  8
Top
  10
30.3809
  20
28.3684
  42
1
  0
VERTEX
  8
Top
  10
29.6309
  20
28.3684
  42
1
  0
VERTEX
  8
Top
  10
30.3809
  20
28.3684
  42
1
  0
SEQEND
  0
POLYLINE
  8
Top
  6
CONTINUOUS
  66
1
  70
0
  40
0.75
  41
0.75
  0
VERTEX
  8
Top
  10
30.3809
  20
33.3301
  42
1
  0
VERTEX
  8
Top
  10
29.6309
  20
33.3301
  42
1
  0
VERTEX
  8
Top
  10
30.3809
  20
33.3301
  42
1
  0
SEQEND
  0
POLYLINE
  8
Top
  6
CONTINUOUS
  66
1
  70
0
  40
1.5
  41
1.5
  0
VERTEX
  8
Top
  10
30.0059
  20
33.3301
  42
0
  0
VERTEX
  8
Top
  10
30.0135
  20
33.3376
  42
0
  0
SEQEND
  0
POLYLINE
  8
Top
  6
CONTINUOUS
  66
1
  70
0
  40
0.75
  41
0.75
  0
VERTEX
  8
Top
  10
30.3809
  20
33.3301
  42
1
  0
VERTEX
  8
Top
  10
29.6309
  20
33.3301
  42
1
  0
VERTEX
  8
Top
  10
30.3809
  20
33.3301
  42
1
  0
SEQEND
  0
POLYLINE
  8
Top
  6
CONTINUOUS
  66
1
  70
0
  40
0.75
  41
0.75
  0
VERTEX
  8
Top
  10
30.3885
  20
33.3376
  42
1
  0
VERTEX
  8
Top
  10
29.6385
  20
33.3376
  42
1
  0
VERTEX
  8
Top
  10
30.3885
  20
33.3376
  42
1
  0
SEQEND
  0
POLYLINE
  8
Top
  6
CONTINUOUS
  66
1
  70
0
  40
1.5
  41
1.5
  0
VERTEX
  8
Top
  10
23.0209
  20
28.3684
  42
0
  0
VERTEX
  8
Top
  10
23.0285
  20
33.3376
  42
0
  0
SEQEND
  0
POLYLINE
  8
Top
  6
CONTINUOUS
  66
1
  70
0
  40
0.75
  41
0.75
  0
VERTEX
  8
Top
  10
23.3959
  20
28.3684
  42
1
  0
VERTEX
  8
Top
  10
22.6459
  20
28.3684
  42
1
  0
VERTEX
  8
Top
  10
23.3959
  20
28.3684
  42
1
  0
SEQEND
  0
POLYLINE
  8
Top
  6
CONTINUOUS
  66
1
  70
0
  40
0.75
  41
0.75
  0
VERTEX
  8
Top
  10
23.4035
  20
33.3376
  42
1
  0
VERTEX
  8
Top
  10
22.6535
  20
33.3376
  42
1
  0
VERTEX
  8
Top
  10
23.4035
  20
33.3376
  42
1
  0
SEQEND
  0
POLYLINE
  8
Top
  6
CONTINUOUS
  66
1
  70
0
  40
0.45
  41
0.45
  0
VERTEX
  8
Top
  10
22.2273
  20
18.5757
  42
0
  0
VERTEX
  8
Top
  10
22.2273
  20
17.1484
  42
0
  0
SEQEND
  0
POLYLINE
  8
Top
  6
CONTINUOUS
  66
1
  70
0
  40
0.225
  41
0.225
  0
VERTEX
  8
Top
  10
22.3398
  20
18.5757
  42
1
  0
VERTEX
  8
Top
  10
22.1148
  20
18.5757
  42
1
  0
VERTEX
  8
Top
  10
22.3398
  20
18.5757
  42
1
  0
SEQEND
  0
POLYLINE
  8
Top
  6
CONTINUOUS
  66
1
  70
0
  40
0.225
  41
0.225
  0
VERTEX
  8
Top
  10
22.3398
  20
17.1484
  42
1
  0
VERTEX
  8
Top
  10
22.1148
  20
17.1484
  42
1
  0
VERTEX
  8
Top
  10
22.3398
  20
17.1484
  42
1
  0
SEQEND
  0
POLYLINE
  8
Top
  6
CONTINUOUS
  66
1
  70
0
  40
0.45
  41
0.45
  0
VERTEX
  8
Top
  10
22.2273
  20
17.1484
  42
0
  0
VERTEX
  8
Top
  10
21.2224
  20
16.1435
  42
0
  0
SEQEND
  0
POLYLINE
  8
Top
  6
CONTINUOUS
  66
1
  70
0
  40
0.225
  41
0.225
  0
VERTEX
  8
Top
  10
22.3398
  20
17.1484
  42
1
  0
VERTEX
  8
Top
  10
22.1148
  20
17.1484
  42
1
  0
VERTEX
  8
Top
  10
22.3398
  20
17.1484
  42
1
  0
SEQEND
  0
POLYLINE
  8
Top
  6
CONTINUOUS
  66
1
  70
0
  40
0.225
  41
0.225
  0
VERTEX
  8
Top
  10
21.3349
  20
16.1435
  42
1
  0
VERTEX
  8
Top
  10
21.1099
  20
16.1435
  42
1
  0
VERTEX
  8
Top
  10
21.3349
  20
16.1435
  42
1
  0
SEQEND
  0
POLYLINE
  8
Top
  6
CONTINUOUS
  66
1
  70
0
  40
0.45
  41
0.45
  0
VERTEX
  8
Top
  10
28.101
  20
17.7801
  42
0
  0
VERTEX
  8
Top
  10
23.9904
  20
17.7801
  42
0
  0
SEQEND
  0
POLYLINE
  8
Top
  6
CONTINUOUS
  66
1
  70
0
  40
0.225
  41
0.225
  0
VERTEX
  8
Top
  10
28.2135
  20
17.7801
  42
1
  0
VERTEX
  8
Top
  10
27.9885
  20
17.7801
  42
1
  0
VERTEX
  8
Top
  10
28.2135
  20
17.7801
  42
1
  0
SEQEND
  0
POLYLINE
  8
Top
  6
CONTINUOUS
  66
1
  70
0
  40
0.225
  41
0.225
  0
VERTEX
  8
Top
  10
24.1029
  20
17.7801
  42
1
  0
VERTEX
  8
Top
  10
23.8779
  20
17.7801
  42
1
  0
VERTEX
  8
Top
  10
24.1029
  20
17.7801
  42
1
  0
SEQEND
  0
POLYLINE
  8
Top
  6
CONTINUOUS
  66
1
  70
0
  40
0.45
  41
0.45
  0
VERTEX
  8
Top
  10
23.9904
  20
17.7801
  42
0
  0
VERTEX
  8
Top
  10
21.7881
  20
15.5778
  42
0
  0
SEQEND
  0
POLYLINE
  8
Top
  6
CONTINUOUS
  66
1
  70
0
  40
0.225
  41
0.225
  0
VERTEX
  8
Top
  10
24.1029
  20
17.7801
  42
1
  0
VERTEX
  8
Top
  10
23.8779
  20
17.7801
  42
1
  0
VERTEX
  8
Top
  10
24.1029
  20
17.7801
  42
1
  0
SEQEND
  0
POLYLINE
  8
Top
  6
CONTINUOUS
  66
1
  70
0
  40
0.225
  41
0.225
  0
VERTEX
  8
Top
  10
21.9006
  20
15.5778
  42
1
  0
VERTEX
  8
Top
  10
21.6756
  20
15.5778
  42
1
  0
VERTEX
  8
Top
  10
21.9006
  20
15.5778
  42
1
  0
SEQEND
  0
POLYLINE
  8
Top
  6
CONTINUOUS
  66
1
  70
0
  40
0.45
  41
0.45
  0
VERTEX
  8
Top
  10
35.086
  20
17.7801
  42
0
  0
VERTEX
  8
Top
  10
35.086
  20
17.9392
  42
0
  0
SEQEND
  0
POLYLINE
  8
Top
  6
CONTINUOUS
  66
1
  70
0
  40
0.225
  41
0.225
  0
VERTEX
  8
Top
  10
35.1985
  20
17.7801
  42
1
  0
VERTEX
  8
Top
  10
34.9735
  20
17.7801
  42
1
  0
VERTEX
  8
Top
  10
35.1985
  20
17.7801
  42
1
  0
SEQEND
  0
POLYLINE
  8
Top
  6
CONTINUOUS
  66
1
  70
0
  40
0.225
  41
0.225
  0
VERTEX
  8
Top
  10
35.1985
  20
17.9392
  42
1
  0
VERTEX
  8
Top
  10
34.9735
  20
17.9392
  42
1
  0
VERTEX
  8
Top
  10
35.1985
  20
17.9392
  42
1
  0
SEQEND
  0
POLYLINE
  8
Top
  6
CONTINUOUS
  66
1
  70
0
  40
0.5
  41
0.5
  0
VERTEX
  8
Top
  10
35.086
  20
17.7801
  42
0
  0
VERTEX
  8
Top
  10
31.5946
  20
17.7819
  42
0
  0
SEQEND
  0
POLYLINE
  8
Top
  6
CONTINUOUS
  66
1
  70
0
  40
0.25
  41
0.25
  0
VERTEX
  8
Top
  10
35.211
  20
17.7801
  42
1
  0
VERTEX
  8
Top
  10
34.961
  20
17.7801
  42
1
  0
VERTEX
  8
Top
  10
35.211
  20
17.7801
  42
1
  0
SEQEND
  0
POLYLINE
  8
Top
  6
CONTINUOUS
  66
1
  70
0
  40
0.25
  41
0.25
  0
VERTEX
  8
Top
  10
31.7196
  20
17.7819
  42
1
  0
VERTEX
  8
Top
  10
31.4696
  20
17.7819
  42
1
  0
VERTEX
  8
Top
  10
31.7196
  20
17.7819
  42
1
  0
SEQEND
  0
POLYLINE
  8
Top
  6
CONTINUOUS
  66
1
  70
0
  40
0.45
  41
0.45
  0
VERTEX
  8
Top
  10
22.3538
  20
15.0121
  42
0
  0
VERTEX
  8
Top
  10
23.6946
  20
16.353
  42
0
  0
SEQEND
  0
POLYLINE
  8
Top
  6
CONTINUOUS
  66
1
  70
0
  40
0.225
  41
0.225
  0
VERTEX
  8
Top
  10
22.4663
  20
15.0121
  42
1
  0
VERTEX
  8
Top
  10
22.2413
  20
15.0121
  42
1
  0
VERTEX
  8
Top
  10
22.4663
  20
15.0121
  42
1
  0
SEQEND
  0
POLYLINE
  8
Top
  6
CONTINUOUS
  66
1
  70
0
  40
0.225
  41
0.225
  0
VERTEX
  8
Top
  10
23.8071
  20
16.353
  42
1
  0
VERTEX
  8
Top
  10
23.5821
  20
16.353
  42
1
  0
VERTEX
  8
Top
  10
23.8071
  20
16.353
  42
1
  0
SEQEND
  0
POLYLINE
  8
Top
  6
CONTINUOUS
  66
1
  70
0
  40
0.45
  41
0.45
  0
VERTEX
  8
Top
  10
23.6946
  20
16.353
  42
0
  0
VERTEX
  8
Top
  10
30.3244
  20
16.353
  42
0
  0
SEQEND
  0
POLYLINE
  8
Top
  6
CONTINUOUS
  66
1
  70
0
  40
0.225
  41
0.225
  0
VERTEX
  8
Top
  10
23.8071
  20
16.353
  42
1
  0
VERTEX
  8
Top
  10
23.5821
  20
16.353
  42
1
  0
VERTEX
  8
Top
  10
23.8071
  20
16.353
  42
1
  0
SEQEND
  0
POLYLINE
  8
Top
  6
CONTINUOUS
  66
1
  70
0
  40
0.225
  41
0.225
  0
VERTEX
  8
Top
  10
30.4369
  20
16.353
  42
1
  0
VERTEX
  8
Top
  10
30.2119
  20
16.353
  42
1
  0
VERTEX
  8
Top
  10
30.4369
  20
16.353
  42
1
  0
SEQEND
  0
POLYLINE
  8
Top
  6
CONTINUOUS
  66
1
  70
0
  40
0.45
  41
0.45
  0
VERTEX
  8
Top
  10
30.3244
  20
16.353
  42
0
  0
VERTEX
  8
Top
  10
31.7533
  20
17.7819
  42
0
  0
SEQEND
  0
POLYLINE
  8
Top
  6
CONTINUOUS
  66
1
  70
0
  40
0.225
  41
0.225
  0
VERTEX
  8
Top
  10
30.4369
  20
16.353
  42
1
  0
VERTEX
  8
Top
  10
30.2119
  20
16.353
  42
1
  0
VERTEX
  8
Top
  10
30.4369
  20
16.353
  42
1
  0
SEQEND
  0
POLYLINE
  8
Top
  6
CONTINUOUS
  66
1
  70
0
  40
0.225
  41
0.225
  0
VERTEX
  8
Top
  10
31.8658
  20
17.7819
  42
1
  0
VERTEX
  8
Top
  10
31.6408
  20
17.7819
  42
1
  0
VERTEX
  8
Top
  10
31.8658
  20
17.7819
  42
1
  0
SEQEND
  0
POLYLINE
  8
Top
  6
CONTINUOUS
  66
1
  70
0
  40
0.45
  41
0.45
  0
VERTEX
  8
Top
  10
31.7533
  20
17.7819
  42
0
  0
VERTEX
  8
Top
  10
31.5946
  20
17.7819
  42
0
  0
SEQEND
  0
POLYLINE
  8
Top
  6
CONTINUOUS
  66
1
  70
0
  40
0.225
  41
0.225
  0
VERTEX
  8
Top
  10
31.8658
  20
17.7819
  42
1
  0
VERTEX
  8
Top
  10
31.6408
  20
17.7819
  42
1
  0
VERTEX
  8
Top
  10
31.8658
  20
17.7819
  42
1
  0
SEQEND
  0
POLYLINE
  8
Top
  6
CONTINUOUS
  66
1
  70
0
  40
0.225
  41
0.225
  0
VERTEX
  8
Top
  10
31.7071
  20
17.7819
  42
1
  0
VERTEX
  8
Top
  10
31.4821
  20
17.7819
  42
1
  0
VERTEX
  8
Top
  10
31.7071
  20
17.7819
  42
1
  0
SEQEND
  0
POLYLINE
  8
Top
  6
CONTINUOUS
  66
1
  70
0
  40
0.8
  41
0.8
  0
VERTEX
  8
Top
  10
10.1608
  20
23.0212
  42
0
  0
VERTEX
  8
Top
  10
10.002
  20
23.1799
  42
0
  0
SEQEND
  0
POLYLINE
  8
Top
  6
CONTINUOUS
  66
1
  70
0
  40
0.4
  41
0.4
  0
VERTEX
  8
Top
  10
10.3608
  20
23.0212
  42
1
  0
VERTEX
  8
Top
  10
9.9608
  20
23.0212
  42
1
  0
VERTEX
  8
Top
  10
10.3608
  20
23.0212
  42
1
  0
SEQEND
  0
POLYLINE
  8
Top
  6
CONTINUOUS
  66
1
  70
0
  40
0.4
  41
0.4
  0
VERTEX
  8
Top
  10
10.202
  20
23.1799
  42
1
  0
VERTEX
  8
Top
  10
9.802
  20
23.1799
  42
1
  0
VERTEX
  8
Top
  10
10.202
  20
23.1799
  42
1
  0
SEQEND
  0
POLYLINE
  8
Top
  6
CONTINUOUS
  66
1
  70
0
  40
0.8
  41
0.8
  0
VERTEX
  8
Top
  10
10.002
  20
23.1799
  42
0
  0
VERTEX
  8
Top
  10
4.9218
  20
23.1799
  42
0
  0
SEQEND
  0
POLYLINE
  8
Top
  6
CONTINUOUS
  66
1
  70
0
  40
0.4
  41
0.4
  0
VERTEX
  8
Top
  10
10.202
  20
23.1799
  42
1
  0
VERTEX
  8
Top
  10
9.802
  20
23.1799
  42
1
  0
VERTEX
  8
Top
  10
10.202
  20
23.1799
  42
1
  0
SEQEND
  0
POLYLINE
  8
Top
  6
CONTINUOUS
  66
1
  70
0
  40
0.4
  41
0.4
  0
VERTEX
  8
Top
  10
5.1218
  20
23.1799
  42
1
  0
VERTEX
  8
Top
  10
4.7218
  20
23.1799
  42
1
  0
VERTEX
  8
Top
  10
5.1218
  20
23.1799
  42
1
  0
SEQEND
  0
POLYLINE
  8
Top
  6
CONTINUOUS
  66
1
  70
0
  40
0.8
  41
0.8
  0
VERTEX
  8
Top
  10
4.9218
  20
23.1799
  42
0
  0
VERTEX
  8
Top
  10
4.9218
  20
23.4975
  42
0
  0
SEQEND
  0
POLYLINE
  8
Top
  6
CONTINUOUS
  66
1
  70
0
  40
0.4
  41
0.4
  0
VERTEX
  8
Top
  10
5.1218
  20
23.1799
  42
1
  0
VERTEX
  8
Top
  10
4.7218
  20
23.1799
  42
1
  0
VERTEX
  8
Top
  10
5.1218
  20
23.1799
  42
1
  0
SEQEND
  0
POLYLINE
  8
Top
  6
CONTINUOUS
  66
1
  70
0
  40
0.4
  41
0.4
  0
VERTEX
  8
Top
  10
5.1218
  20
23.4975
  42
1
  0
VERTEX
  8
Top
  10
4.7218
  20
23.4975
  42
1
  0
VERTEX
  8
Top
  10
5.1218
  20
23.4975
  42
1
  0
SEQEND
  0
POLYLINE
  8
Top
  6
CONTINUOUS
  66
1
  70
0
  40
0.8
  41
0.8
  0
VERTEX
  8
Top
  10
4.9218
  20
23.4975
  42
0
  0
VERTEX
  8
Top
  10
4.9218
  20
23.6562
  42
0
  0
SEQEND
  0
POLYLINE
  8
Top
  6
CONTINUOUS
  66
1
  70
0
  40
0.4
  41
0.4
  0
VERTEX
  8
Top
  10
5.1218
  20
23.4975
  42
1
  0
VERTEX
  8
Top
  10
4.7218
  20
23.4975
  42
1
  0
VERTEX
  8
Top
  10
5.1218
  20
23.4975
  42
1
  0
SEQEND
  0
POLYLINE
  8
Top
  6
CONTINUOUS
  66
1
  70
0
  40
0.4
  41
0.4
  0
VERTEX
  8
Top
  10
5.1218
  20
23.6562
  42
1
  0
VERTEX
  8
Top
  10
4.7218
  20
23.6562
  42
1
  0
VERTEX
  8
Top
  10
5.1218
  20
23.6562
  42
1
  0
SEQEND
  0
POLYLINE
  8
Top
  6
CONTINUOUS
  66
1
  70
0
  40
0.8
  41
0.8
  0
VERTEX
  8
Top
  10
4.9218
  20
23.6562
  42
0
  0
VERTEX
  8
Top
  10
4.6042
  20
23.9738
  42
0
  0
SEQEND
  0
POLYLINE
  8
Top
  6
CONTINUOUS
  66
1
  70
0
  40
0.4
  41
0.4
  0
VERTEX
  8
Top
  10
5.1218
  20
23.6562
  42
1
  0
VERTEX
  8
Top
  10
4.7218
  20
23.6562
  42
1
  0
VERTEX
  8
Top
  10
5.1218
  20
23.6562
  42
1
  0
SEQEND
  0
POLYLINE
  8
Top
  6
CONTINUOUS
  66
1
  70
0
  40
0.4
  41
0.4
  0
VERTEX
  8
Top
  10
4.8042
  20
23.9738
  42
1
  0
VERTEX
  8
Top
  10
4.4042
  20
23.9738
  42
1
  0
VERTEX
  8
Top
  10
4.8042
  20
23.9738
  42
1
  0
SEQEND
  0
POLYLINE
  8
Top
  6
CONTINUOUS
  66
1
  70
0
  40
0.8
  41
0.8
  0
VERTEX
  8
Top
  10
4.6042
  20
23.9738
  42
0
  0
VERTEX
  8
Top
  10
4.6042
  20
26.3553
  42
0
  0
SEQEND
  0
POLYLINE
  8
Top
  6
CONTINUOUS
  66
1
  70
0
  40
0.4
  41
0.4
  0
VERTEX
  8
Top
  10
4.8042
  20
23.9738
  42
1
  0
VERTEX
  8
Top
  10
4.4042
  20
23.9738
  42
1
  0
VERTEX
  8
Top
  10
4.8042
  20
23.9738
  42
1
  0
SEQEND
  0
POLYLINE
  8
Top
  6
CONTINUOUS
  66
1
  70
0
  40
0.4
  41
0.4
  0
VERTEX
  8
Top
  10
4.8042
  20
26.3553
  42
1
  0
VERTEX
  8
Top
  10
4.4042
  20
26.3553
  42
1
  0
VERTEX
  8
Top
  10
4.8042
  20
26.3553
  42
1
  0
SEQEND
  0
POLYLINE
  8
Top
  6
CONTINUOUS
  66
1
  70
0
  40
0.8
  41
0.8
  0
VERTEX
  8
Top
  10
4.6042
  20
26.3553
  42
0
  0
VERTEX
  8
Top
  10
4.4465
  20
26.3553
  42
0
  0
SEQEND
  0
POLYLINE
  8
Top
  6
CONTINUOUS
  66
1
  70
0
  40
0.4
  41
0.4
  0
VERTEX
  8
Top
  10
4.8042
  20
26.3553
  42
1
  0
VERTEX
  8
Top
  10
4.4042
  20
26.3553
  42
1
  0
VERTEX
  8
Top
  10
4.8042
  20
26.3553
  42
1
  0
SEQEND
  0
POLYLINE
  8
Top
  6
CONTINUOUS
  66
1
  70
0
  40
0.4
  41
0.4
  0
VERTEX
  8
Top
  10
4.6465
  20
26.3553
  42
1
  0
VERTEX
  8
Top
  10
4.2465
  20
26.3553
  42
1
  0
VERTEX
  8
Top
  10
4.6465
  20
26.3553
  42
1
  0
SEQEND
  0
POLYLINE
  8
Top
  6
CONTINUOUS
  66
1
  70
0
  40
0.45
  41
0.45
  0
VERTEX
  8
Top
  10
14.717
  20
10.7695
  42
0
  0
VERTEX
  8
Top
  10
13.7911
  20
9.8435
  42
0
  0
SEQEND
  0
POLYLINE
  8
Top
  6
CONTINUOUS
  66
1
  70
0
  40
0.225
  41
0.225
  0
VERTEX
  8
Top
  10
14.8295
  20
10.7695
  42
1
  0
VERTEX
  8
Top
  10
14.6045
  20
10.7695
  42
1
  0
VERTEX
  8
Top
  10
14.8295
  20
10.7695
  42
1
  0
SEQEND
  0
POLYLINE
  8
Top
  6
CONTINUOUS
  66
1
  70
0
  40
0.225
  41
0.225
  0
VERTEX
  8
Top
  10
13.9036
  20
9.8435
  42
1
  0
VERTEX
  8
Top
  10
13.6786
  20
9.8435
  42
1
  0
VERTEX
  8
Top
  10
13.9036
  20
9.8435
  42
1
  0
SEQEND
  0
POLYLINE
  8
Top
  6
CONTINUOUS
  66
1
  70
0
  40
0.45
  41
0.45
  0
VERTEX
  8
Top
  10
13.7911
  20
9.8435
  42
0
  0
VERTEX
  8
Top
  10
11.1137
  20
9.8435
  42
0
  0
SEQEND
  0
POLYLINE
  8
Top
  6
CONTINUOUS
  66
1
  70
0
  40
0.225
  41
0.225
  0
VERTEX
  8
Top
  10
13.9036
  20
9.8435
  42
1
  0
VERTEX
  8
Top
  10
13.6786
  20
9.8435
  42
1
  0
VERTEX
  8
Top
  10
13.9036
  20
9.8435
  42
1
  0
SEQEND
  0
POLYLINE
  8
Top
  6
CONTINUOUS
  66
1
  70
0
  40
0.225
  41
0.225
  0
VERTEX
  8
Top
  10
11.2262
  20
9.8435
  42
1
  0
VERTEX
  8
Top
  10
11.0012
  20
9.8435
  42
1
  0
VERTEX
  8
Top
  10
11.2262
  20
9.8435
  42
1
  0
SEQEND
  0
POLYLINE
  8
Top
  6
CONTINUOUS
  66
1
  70
0
  40
0.45
  41
0.45
  0
VERTEX
  8
Top
  10
11.1137
  20
9.8435
  42
0
  0
VERTEX
  8
Top
  10
11.1137
  20
10.1611
  42
0
  0
SEQEND
  0
POLYLINE
  8
Top
  6
CONTINUOUS
  66
1
  70
0
  40
0.225
  41
0.225
  0
VERTEX
  8
Top
  10
11.2262
  20
9.8435
  42
1
  0
VERTEX
  8
Top
  10
11.0012
  20
9.8435
  42
1
  0
VERTEX
  8
Top
  10
11.2262
  20
9.8435
  42
1
  0
SEQEND
  0
POLYLINE
  8
Top
  6
CONTINUOUS
  66
1
  70
0
  40
0.225
  41
0.225
  0
VERTEX
  8
Top
  10
11.2262
  20
10.1611
  42
1
  0
VERTEX
  8
Top
  10
11.0012
  20
10.1611
  42
1
  0
VERTEX
  8
Top
  10
11.2262
  20
10.1611
  42
1
  0
SEQEND
  0
POLYLINE
  8
Top
  6
CONTINUOUS
  66
1
  70
0
  40
0.45
  41
0.45
  0
VERTEX
  8
Top
  10
22.9195
  20
12.4665
  42
0
  0
VERTEX
  8
Top
  10
23.4785
  20
11.9075
  42
0
  0
SEQEND
  0
POLYLINE
  8
Top
  6
CONTINUOUS
  66
1
  70
0
  40
0.225
  41
0.225
  0
VERTEX
  8
Top
  10
23.032
  20
12.4665
  42
1
  0
VERTEX
  8
Top
  10
22.807
  20
12.4665
  42
1
  0
VERTEX
  8
Top
  10
23.032
  20
12.4665
  42
1
  0
SEQEND
  0
POLYLINE
  8
Top
  6
CONTINUOUS
  66
1
  70
0
  40
0.225
  41
0.225
  0
VERTEX
  8
Top
  10
23.591
  20
11.9075
  42
1
  0
VERTEX
  8
Top
  10
23.366
  20
11.9075
  42
1
  0
VERTEX
  8
Top
  10
23.591
  20
11.9075
  42
1
  0
SEQEND
  0
POLYLINE
  8
Top
  6
CONTINUOUS
  66
1
  70
0
  40
0.45
  41
0.45
  0
VERTEX
  8
Top
  10
23.4785
  20
11.9075
  42
0
  0
VERTEX
  8
Top
  10
27.4666
  20
11.9075
  42
0
  0
SEQEND
  0
POLYLINE
  8
Top
  6
CONTINUOUS
  66
1
  70
0
  40
0.225
  41
0.225
  0
VERTEX
  8
Top
  10
23.591
  20
11.9075
  42
1
  0
VERTEX
  8
Top
  10
23.366
  20
11.9075
  42
1
  0
VERTEX
  8
Top
  10
23.591
  20
11.9075
  42
1
  0
SEQEND
  0
POLYLINE
  8
Top
  6
CONTINUOUS
  66
1
  70
0
  40
0.225
  41
0.225
  0
VERTEX
  8
Top
  10
27.5791
  20
11.9075
  42
1
  0
VERTEX
  8
Top
  10
27.3541
  20
11.9075
  42
1
  0
VERTEX
  8
Top
  10
27.5791
  20
11.9075
  42
1
  0
SEQEND
  0
POLYLINE
  8
Top
  6
CONTINUOUS
  66
1
  70
0
  40
0.45
  41
0.45
  0
VERTEX
  8
Top
  10
27.4666
  20
11.9075
  42
0
  0
VERTEX
  8
Top
  10
28.4192
  20
12.8601
  42
0
  0
SEQEND
  0
POLYLINE
  8
Top
  6
CONTINUOUS
  66
1
  70
0
  40
0.225
  41
0.225
  0
VERTEX
  8
Top
  10
27.5791
  20
11.9075
  42
1
  0
VERTEX
  8
Top
  10
27.3541
  20
11.9075
  42
1
  0
VERTEX
  8
Top
  10
27.5791
  20
11.9075
  42
1
  0
SEQEND
  0
POLYLINE
  8
Top
  6
CONTINUOUS
  66
1
  70
0
  40
0.225
  41
0.225
  0
VERTEX
  8
Top
  10
28.5317
  20
12.8601
  42
1
  0
VERTEX
  8
Top
  10
28.3067
  20
12.8601
  42
1
  0
VERTEX
  8
Top
  10
28.5317
  20
12.8601
  42
1
  0
SEQEND
  0
POLYLINE
  8
Top
  6
CONTINUOUS
  66
1
  70
0
  40
0.45
  41
0.45
  0
VERTEX
  8
Top
  10
22.3538
  20
11.9008
  42
0
  0
VERTEX
  8
Top
  10
20.4817
  20
13.7729
  42
0
  0
SEQEND
  0
POLYLINE
  8
Top
  6
CONTINUOUS
  66
1
  70
0
  40
0.225
  41
0.225
  0
VERTEX
  8
Top
  10
22.4663
  20
11.9008
  42
1
  0
VERTEX
  8
Top
  10
22.2413
  20
11.9008
  42
1
  0
VERTEX
  8
Top
  10
22.4663
  20
11.9008
  42
1
  0
SEQEND
  0
POLYLINE
  8
Top
  6
CONTINUOUS
  66
1
  70
0
  40
0.225
  41
0.225
  0
VERTEX
  8
Top
  10
20.5942
  20
13.7729
  42
1
  0
VERTEX
  8
Top
  10
20.3692
  20
13.7729
  42
1
  0
VERTEX
  8
Top
  10
20.5942
  20
13.7729
  42
1
  0
SEQEND
  0
POLYLINE
  8
Top
  6
CONTINUOUS
  66
1
  70
0
  40
0.45
  41
0.45
  0
VERTEX
  8
Top
  10
20.4817
  20
13.7729
  42
0
  0
VERTEX
  8
Top
  10
19.3503
  20
13.7729
  42
0
  0
SEQEND
  0
POLYLINE
  8
Top
  6
CONTINUOUS
  66
1
  70
0
  40
0.225
  41
0.225
  0
VERTEX
  8
Top
  10
20.5942
  20
13.7729
  42
1
  0
VERTEX
  8
Top
  10
20.3692
  20
13.7729
  42
1
  0
VERTEX
  8
Top
  10
20.5942
  20
13.7729
  42
1
  0
SEQEND
  0
POLYLINE
  8
Top
  6
CONTINUOUS
  66
1
  70
0
  40
0.225
  41
0.225
  0
VERTEX
  8
Top
  10
19.4628
  20
13.7729
  42
1
  0
VERTEX
  8
Top
  10
19.2378
  20
13.7729
  42
1
  0
VERTEX
  8
Top
  10
19.4628
  20
13.7729
  42
1
  0
SEQEND
  0
POLYLINE
  8
Top
  6
CONTINUOUS
  66
1
  70
0
  40
0.45
  41
0.45
  0
VERTEX
  8
Top
  10
19.3503
  20
13.7729
  42
0
  0
VERTEX
  8
Top
  10
15.8484
  20
17.2748
  42
0
  0
SEQEND
  0
POLYLINE
  8
Top
  6
CONTINUOUS
  66
1
  70
0
  40
0.225
  41
0.225
  0
VERTEX
  8
Top
  10
19.4628
  20
13.7729
  42
1
  0
VERTEX
  8
Top
  10
19.2378
  20
13.7729
  42
1
  0
VERTEX
  8
Top
  10
19.4628
  20
13.7729
  42
1
  0
SEQEND
  0
POLYLINE
  8
Top
  6
CONTINUOUS
  66
1
  70
0
  40
0.225
  41
0.225
  0
VERTEX
  8
Top
  10
15.9609
  20
17.2748
  42
1
  0
VERTEX
  8
Top
  10
15.7359
  20
17.2748
  42
1
  0
VERTEX
  8
Top
  10
15.9609
  20
17.2748
  42
1
  0
SEQEND
  0
POLYLINE
  8
Top
  6
CONTINUOUS
  66
1
  70
0
  40
0.45
  41
0.45
  0
VERTEX
  8
Top
  10
14.717
  20
16.1435
  42
0
  0
VERTEX
  8
Top
  10
13.5945
  20
17.266
  42
0
  0
SEQEND
  0
POLYLINE
  8
Top
  6
CONTINUOUS
  66
1
  70
0
  40
0.225
  41
0.225
  0
VERTEX
  8
Top
  10
14.8295
  20
16.1435
  42
1
  0
VERTEX
  8
Top
  10
14.6045
  20
16.1435
  42
1
  0
VERTEX
  8
Top
  10
14.8295
  20
16.1435
  42
1
  0
SEQEND
  0
POLYLINE
  8
Top
  6
CONTINUOUS
  66
1
  70
0
  40
0.225
  41
0.225
  0
VERTEX
  8
Top
  10
13.707
  20
17.266
  42
1
  0
VERTEX
  8
Top
  10
13.482
  20
17.266
  42
1
  0
VERTEX
  8
Top
  10
13.707
  20
17.266
  42
1
  0
SEQEND
  0
POLYLINE
  8
Top
  6
CONTINUOUS
  66
1
  70
0
  40
0.45
  41
0.45
  0
VERTEX
  8
Top
  10
13.5945
  20
17.266
  42
0
  0
VERTEX
  8
Top
  10
14.7258
  20
18.3974
  42
0
  0
SEQEND
  0
POLYLINE
  8
Top
  6
CONTINUOUS
  66
1
  70
0
  40
0.225
  41
0.225
  0
VERTEX
  8
Top
  10
13.707
  20
17.266
  42
1
  0
VERTEX
  8
Top
  10
13.482
  20
17.266
  42
1
  0
VERTEX
  8
Top
  10
13.707
  20
17.266
  42
1
  0
SEQEND
  0
POLYLINE
  8
Top
  6
CONTINUOUS
  66
1
  70
0
  40
0.225
  41
0.225
  0
VERTEX
  8
Top
  10
14.8383
  20
18.3974
  42
1
  0
VERTEX
  8
Top
  10
14.6133
  20
18.3974
  42
1
  0
VERTEX
  8
Top
  10
14.8383
  20
18.3974
  42
1
  0
SEQEND
  0
POLYLINE
  8
Top
  6
CONTINUOUS
  66
1
  70
0
  40
0.45
  41
0.45
  0
VERTEX
  8
Top
  10
14.7258
  20
18.3974
  42
0
  0
VERTEX
  8
Top
  10
14.8668
  20
18.2564
  42
0
  0
SEQEND
  0
POLYLINE
  8
Top
  6
CONTINUOUS
  66
1
  70
0
  40
0.225
  41
0.225
  0
VERTEX
  8
Top
  10
14.8383
  20
18.3974
  42
1
  0
VERTEX
  8
Top
  10
14.6133
  20
18.3974
  42
1
  0
VERTEX
  8
Top
  10
14.8383
  20
18.3974
  42
1
  0
SEQEND
  0
POLYLINE
  8
Top
  6
CONTINUOUS
  66
1
  70
0
  40
0.225
  41
0.225
  0
VERTEX
  8
Top
  10
14.9793
  20
18.2564
  42
1
  0
VERTEX
  8
Top
  10
14.7543
  20
18.2564
  42
1
  0
VERTEX
  8
Top
  10
14.9793
  20
18.2564
  42
1
  0
SEQEND
  0
POLYLINE
  8
Top
  6
CONTINUOUS
  66
1
  70
0
  40
0.45
  41
0.45
  0
VERTEX
  8
Top
  10
14.8668
  20
18.2564
  42
0
  0
VERTEX
  8
Top
  10
15.8484
  20
17.2748
  42
0
  0
SEQEND
  0
POLYLINE
  8
Top
  6
CONTINUOUS
  66
1
  70
0
  40
0.225
  41
0.225
  0
VERTEX
  8
Top
  10
14.9793
  20
18.2564
  42
1
  0
VERTEX
  8
Top
  10
14.7543
  20
18.2564
  42
1
  0
VERTEX
  8
Top
  10
14.9793
  20
18.2564
  42
1
  0
SEQEND
  0
POLYLINE
  8
Top
  6
CONTINUOUS
  66
1
  70
0
  40
0.225
  41
0.225
  0
VERTEX
  8
Top
  10
15.9609
  20
17.2748
  42
1
  0
VERTEX
  8
Top
  10
15.7359
  20
17.2748
  42
1
  0
VERTEX
  8
Top
  10
15.9609
  20
17.2748
  42
1
  0
SEQEND
  0
POLYLINE
  8
Top
  6
CONTINUOUS
  66
1
  70
0
  40
0.45
  41
0.45
  0
VERTEX
  8
Top
  10
35.2462
  20
13.8127
  42
0
  0
VERTEX
  8
Top
  10
35.2462
  20
11.59
  42
0
  0
SEQEND
  0
POLYLINE
  8
Top
  6
CONTINUOUS
  66
1
  70
0
  40
0.225
  41
0.225
  0
VERTEX
  8
Top
  10
35.3587
  20
13.8127
  42
1
  0
VERTEX
  8
Top
  10
35.1337
  20
13.8127
  42
1
  0
VERTEX
  8
Top
  10
35.3587
  20
13.8127
  42
1
  0
SEQEND
  0
POLYLINE
  8
Top
  6
CONTINUOUS
  66
1
  70
0
  40
0.225
  41
0.225
  0
VERTEX
  8
Top
  10
35.3587
  20
11.59
  42
1
  0
VERTEX
  8
Top
  10
35.1337
  20
11.59
  42
1
  0
VERTEX
  8
Top
  10
35.3587
  20
11.59
  42
1
  0
SEQEND
  0
POLYLINE
  8
Top
  6
CONTINUOUS
  66
1
  70
0
  40
0.45
  41
0.45
  0
VERTEX
  8
Top
  10
35.2462
  20
11.59
  42
0
  0
VERTEX
  8
Top
  10
34.2936
  20
10.6374
  42
0
  0
SEQEND
  0
POLYLINE
  8
Top
  6
CONTINUOUS
  66
1
  70
0
  40
0.225
  41
0.225
  0
VERTEX
  8
Top
  10
35.3587
  20
11.59
  42
1
  0
VERTEX
  8
Top
  10
35.1337
  20
11.59
  42
1
  0
VERTEX
  8
Top
  10
35.3587
  20
11.59
  42
1
  0
SEQEND
  0
POLYLINE
  8
Top
  6
CONTINUOUS
  66
1
  70
0
  40
0.225
  41
0.225
  0
VERTEX
  8
Top
  10
34.4061
  20
10.6374
  42
1
  0
VERTEX
  8
Top
  10
34.1811
  20
10.6374
  42
1
  0
VERTEX
  8
Top
  10
34.4061
  20
10.6374
  42
1
  0
SEQEND
  0
POLYLINE
  8
Top
  6
CONTINUOUS
  66
1
  70
0
  40
0.45
  41
0.45
  0
VERTEX
  8
Top
  10
34.2936
  20
10.6374
  42
0
  0
VERTEX
  8
Top
  10
23.6172
  20
10.6374
  42
0
  0
SEQEND
  0
POLYLINE
  8
Top
  6
CONTINUOUS
  66
1
  70
0
  40
0.225
  41
0.225
  0
VERTEX
  8
Top
  10
34.4061
  20
10.6374
  42
1
  0
VERTEX
  8
Top
  10
34.1811
  20
10.6374
  42
1
  0
VERTEX
  8
Top
  10
34.4061
  20
10.6374
  42
1
  0
SEQEND
  0
POLYLINE
  8
Top
  6
CONTINUOUS
  66
1
  70
0
  40
0.225
  41
0.225
  0
VERTEX
  8
Top
  10
23.7297
  20
10.6374
  42
1
  0
VERTEX
  8
Top
  10
23.5047
  20
10.6374
  42
1
  0
VERTEX
  8
Top
  10
23.7297
  20
10.6374
  42
1
  0
SEQEND
  0
POLYLINE
  8
Top
  6
CONTINUOUS
  66
1
  70
0
  40
0.45
  41
0.45
  0
VERTEX
  8
Top
  10
23.6172
  20
10.6374
  42
0
  0
VERTEX
  8
Top
  10
22.3538
  20
11.9008
  42
0
  0
SEQEND
  0
POLYLINE
  8
Top
  6
CONTINUOUS
  66
1
  70
0
  40
0.225
  41
0.225
  0
VERTEX
  8
Top
  10
23.7297
  20
10.6374
  42
1
  0
VERTEX
  8
Top
  10
23.5047
  20
10.6374
  42
1
  0
VERTEX
  8
Top
  10
23.7297
  20
10.6374
  42
1
  0
SEQEND
  0
POLYLINE
  8
Top
  6
CONTINUOUS
  66
1
  70
0
  40
0.225
  41
0.225
  0
VERTEX
  8
Top
  10
22.4663
  20
11.9008
  42
1
  0
VERTEX
  8
Top
  10
22.2413
  20
11.9008
  42
1
  0
VERTEX
  8
Top
  10
22.4663
  20
11.9008
  42
1
  0
SEQEND
  0
POLYLINE
  8
Top
  6
CONTINUOUS
  66
1
  70
0
  40
0.45
  41
0.45
  0
VERTEX
  8
Top
  10
13.9715
  20
21.116
  42
0
  0
VERTEX
  8
Top
  10
14.7662
  20
20.3212
  42
0
  0
SEQEND
  0
POLYLINE
  8
Top
  6
CONTINUOUS
  66
1
  70
0
  40
0.225
  41
0.225
  0
VERTEX
  8
Top
  10
14.084
  20
21.116
  42
1
  0
VERTEX
  8
Top
  10
13.859
  20
21.116
  42
1
  0
VERTEX
  8
Top
  10
14.084
  20
21.116
  42
1
  0
SEQEND
  0
POLYLINE
  8
Top
  6
CONTINUOUS
  66
1
  70
0
  40
0.225
  41
0.225
  0
VERTEX
  8
Top
  10
14.8787
  20
20.3212
  42
1
  0
VERTEX
  8
Top
  10
14.6537
  20
20.3212
  42
1
  0
VERTEX
  8
Top
  10
14.8787
  20
20.3212
  42
1
  0
SEQEND
  0
POLYLINE
  8
Top
  6
CONTINUOUS
  66
1
  70
0
  40
0.45
  41
0.45
  0
VERTEX
  8
Top
  10
14.7662
  20
20.3212
  42
0
  0
VERTEX
  8
Top
  10
14.7662
  20
18.2564
  42
0
  0
SEQEND
  0
POLYLINE
  8
Top
  6
CONTINUOUS
  66
1
  70
0
  40
0.225
  41
0.225
  0
VERTEX
  8
Top
  10
14.8787
  20
20.3212
  42
1
  0
VERTEX
  8
Top
  10
14.6537
  20
20.3212
  42
1
  0
VERTEX
  8
Top
  10
14.8787
  20
20.3212
  42
1
  0
SEQEND
  0
POLYLINE
  8
Top
  6
CONTINUOUS
  66
1
  70
0
  40
0.225
  41
0.225
  0
VERTEX
  8
Top
  10
14.8787
  20
18.2564
  42
1
  0
VERTEX
  8
Top
  10
14.6537
  20
18.2564
  42
1
  0
VERTEX
  8
Top
  10
14.8787
  20
18.2564
  42
1
  0
SEQEND
  0
POLYLINE
  8
Top
  6
CONTINUOUS
  66
1
  70
0
  40
0.45
  41
0.45
  0
VERTEX
  8
Top
  10
14.7662
  20
18.2564
  42
0
  0
VERTEX
  8
Top
  10
14.8668
  20
18.2564
  42
0
  0
SEQEND
  0
POLYLINE
  8
Top
  6
CONTINUOUS
  66
1
  70
0
  40
0.225
  41
0.225
  0
VERTEX
  8
Top
  10
14.8787
  20
18.2564
  42
1
  0
VERTEX
  8
Top
  10
14.6537
  20
18.2564
  42
1
  0
VERTEX
  8
Top
  10
14.8787
  20
18.2564
  42
1
  0
SEQEND
  0
POLYLINE
  8
Top
  6
CONTINUOUS
  66
1
  70
0
  40
0.225
  41
0.225
  0
VERTEX
  8
Top
  10
14.9793
  20
18.2564
  42
1
  0
VERTEX
  8
Top
  10
14.7543
  20
18.2564
  42
1
  0
VERTEX
  8
Top
  10
14.9793
  20
18.2564
  42
1
  0
SEQEND
  0
POLYLINE
  8
Top
  6
CONTINUOUS
  66
1
  70
0
  40
0.8
  41
0.8
  0
VERTEX
  8
Top
  10
13.9715
  20
21.116
  42
0
  0
VERTEX
  8
Top
  10
13.9714
  20
21.116
  42
0
  0
SEQEND
  0
POLYLINE
  8
Top
  6
CONTINUOUS
  66
1
  70
0
  40
0.4
  41
0.4
  0
VERTEX
  8
Top
  10
14.1715
  20
21.116
  42
1
  0
VERTEX
  8
Top
  10
13.7715
  20
21.116
  42
1
  0
VERTEX
  8
Top
  10
14.1715
  20
21.116
  42
1
  0
SEQEND
  0
POLYLINE
  8
Top
  6
CONTINUOUS
  66
1
  70
0
  40
0.8
  41
0.8
  0
VERTEX
  8
Top
  10
13.9714
  20
21.116
  42
0
  0
VERTEX
  8
Top
  10
12.0662
  20
23.0212
  42
0
  0
SEQEND
  0
POLYLINE
  8
Top
  6
CONTINUOUS
  66
1
  70
0
  40
0.4
  41
0.4
  0
VERTEX
  8
Top
  10
14.1714
  20
21.116
  42
1
  0
VERTEX
  8
Top
  10
13.7714
  20
21.116
  42
1
  0
VERTEX
  8
Top
  10
14.1714
  20
21.116
  42
1
  0
SEQEND
  0
POLYLINE
  8
Top
  6
CONTINUOUS
  66
1
  70
0
  40
0.4
  41
0.4
  0
VERTEX
  8
Top
  10
12.2662
  20
23.0212
  42
1
  0
VERTEX
  8
Top
  10
11.8662
  20
23.0212
  42
1
  0
VERTEX
  8
Top
  10
12.2662
  20
23.0212
  42
1
  0
SEQEND
  0
POLYLINE
  8
Top
  6
CONTINUOUS
  66
1
  70
0
  40
0.8
  41
0.8
  0
VERTEX
  8
Top
  10
12.0662
  20
23.0212
  42
0
  0
VERTEX
  8
Top
  10
12.0662
  20
26.355
  42
0
  0
SEQEND
  0
POLYLINE
  8
Top
  6
CONTINUOUS
  66
1
  70
0
  40
0.4
  41
0.4
  0
VERTEX
  8
Top
  10
12.2662
  20
23.0212
  42
1
  0
VERTEX
  8
Top
  10
11.8662
  20
23.0212
  42
1
  0
VERTEX
  8
Top
  10
12.2662
  20
23.0212
  42
1
  0
SEQEND
  0
POLYLINE
  8
Top
  6
CONTINUOUS
  66
1
  70
0
  40
0.4
  41
0.4
  0
VERTEX
  8
Top
  10
12.2662
  20
26.355
  42
1
  0
VERTEX
  8
Top
  10
11.8662
  20
26.355
  42
1
  0
VERTEX
  8
Top
  10
12.2662
  20
26.355
  42
1
  0
SEQEND
  0
POLYLINE
  8
Top
  6
CONTINUOUS
  66
1
  70
0
  40
0.8
  41
0.8
  0
VERTEX
  8
Top
  10
12.0662
  20
26.355
  42
0
  0
VERTEX
  8
Top
  10
12.0665
  20
26.3553
  42
0
  0
SEQEND
  0
POLYLINE
  8
Top
  6
CONTINUOUS
  66
1
  70
0
  40
0.4
  41
0.4
  0
VERTEX
  8
Top
  10
12.2662
  20
26.355
  42
1
  0
VERTEX
  8
Top
  10
11.8662
  20
26.355
  42
1
  0
VERTEX
  8
Top
  10
12.2662
  20
26.355
  42
1
  0
SEQEND
  0
POLYLINE
  8
Top
  6
CONTINUOUS
  66
1
  70
0
  40
0.6
  41
0.6
  0
VERTEX
  8
Top
  10
35.2462
  20
13.8127
  42
0
  0
VERTEX
  8
Top
  10
31.7533
  20
13.8127
  42
0
  0
SEQEND
  0
POLYLINE
  8
Top
  6
CONTINUOUS
  66
1
  70
0
  40
0.3
  41
0.3
  0
VERTEX
  8
Top
  10
35.3962
  20
13.8127
  42
1
  0
VERTEX
  8
Top
  10
35.0962
  20
13.8127
  42
1
  0
VERTEX
  8
Top
  10
35.3962
  20
13.8127
  42
1
  0
SEQEND
  0
POLYLINE
  8
Top
  6
CONTINUOUS
  66
1
  70
0
  40
0.3
  41
0.3
  0
VERTEX
  8
Top
  10
31.9033
  20
13.8127
  42
1
  0
VERTEX
  8
Top
  10
31.6033
  20
13.8127
  42
1
  0
VERTEX
  8
Top
  10
31.9033
  20
13.8127
  42
1
  0
SEQEND
  0
POLYLINE
  8
Top
  6
CONTINUOUS
  66
1
  70
0
  40
0.6
  41
0.6
  0
VERTEX
  8
Top
  10
31.7533
  20
13.8127
  42
0
  0
VERTEX
  8
Top
  10
31.5946
  20
13.6539
  42
0
  0
SEQEND
  0
POLYLINE
  8
Top
  6
CONTINUOUS
  66
1
  70
0
  40
0.3
  41
0.3
  0
VERTEX
  8
Top
  10
31.9033
  20
13.8127
  42
1
  0
VERTEX
  8
Top
  10
31.6033
  20
13.8127
  42
1
  0
VERTEX
  8
Top
  10
31.9033
  20
13.8127
  42
1
  0
SEQEND
  0
POLYLINE
  8
Top
  6
CONTINUOUS
  66
1
  70
0
  40
0.3
  41
0.3
  0
VERTEX
  8
Top
  10
31.7446
  20
13.6539
  42
1
  0
VERTEX
  8
Top
  10
31.4446
  20
13.6539
  42
1
  0
VERTEX
  8
Top
  10
31.7446
  20
13.6539
  42
1
  0
SEQEND
  0
POLYLINE
  8
Top
  6
CONTINUOUS
  66
1
  70
0
  40
0.635
  41
0.635
  0
VERTEX
  8
Top
  10
39.7863
  20
24.136
  42
0
  0
VERTEX
  8
Top
  10
36.4208
  20
24.136
  42
0
  0
SEQEND
  0
POLYLINE
  8
Top
  6
CONTINUOUS
  66
1
  70
0
  40
0.635
  41
0.635
  0
VERTEX
  8
Top
  10
39.7863
  20
23.5043
  42
0
  0
VERTEX
  8
Top
  10
36.6143
  20
23.5043
  42
0
  0
SEQEND
  0
POLYLINE
  8
Top
  6
CONTINUOUS
  66
1
  70
0
  40
0.635
  41
0.635
  0
VERTEX
  8
Top
  10
39.7863
  20
22.8726
  42
0
  0
VERTEX
  8
Top
  10
36.8971
  20
22.8726
  42
0
  0
SEQEND
  0
POLYLINE
  8
Top
  6
CONTINUOUS
  66
1
  70
0
  40
0.635
  41
0.635
  0
VERTEX
  8
Top
  10
39.7863
  20
22.241
  42
0
  0
VERTEX
  8
Top
  10
36.8971
  20
22.241
  42
0
  0
SEQEND
  0
POLYLINE
  8
Top
  6
CONTINUOUS
  66
1
  70
0
  40
0.635
  41
0.635
  0
VERTEX
  8
Top
  10
39.7863
  20
21.6093
  42
0
  0
VERTEX
  8
Top
  10
36.8971
  20
21.6093
  42
0
  0
SEQEND
  0
POLYLINE
  8
Top
  6
CONTINUOUS
  66
1
  70
0
  40
0.635
  41
0.635
  0
VERTEX
  8
Top
  10
36.3588
  20
24.7676
  42
0
  0
VERTEX
  8
Top
  10
39.8513
  20
24.7676
  42
0
  0
SEQEND
  0
POLYLINE
  8
Top
  6
CONTINUOUS
  66
1
  70
0
  40
0.3175
  41
0.3175
  0
VERTEX
  8
Top
  10
36.5175
  20
24.7676
  42
1
  0
VERTEX
  8
Top
  10
36.2
  20
24.7676
  42
1
  0
VERTEX
  8
Top
  10
36.5175
  20
24.7676
  42
1
  0
SEQEND
  0
POLYLINE
  8
Top
  6
CONTINUOUS
  66
1
  70
0
  40
0.3175
  41
0.3175
  0
VERTEX
  8
Top
  10
40.01
  20
24.7676
  42
1
  0
VERTEX
  8
Top
  10
39.6925
  20
24.7676
  42
1
  0
VERTEX
  8
Top
  10
40.01
  20
24.7676
  42
1
  0
SEQEND
  0
POLYLINE
  8
Top
  6
CONTINUOUS
  66
1
  70
0
  40
0.635
  41
0.635
  0
VERTEX
  8
Top
  10
39.8513
  20
24.7676
  42
0
  0
VERTEX
  8
Top
  10
39.8505
  20
21.1151
  42
0
  0
SEQEND
  0
POLYLINE
  8
Top
  6
CONTINUOUS
  66
1
  70
0
  40
0.3175
  41
0.3175
  0
VERTEX
  8
Top
  10
40.01
  20
24.7676
  42
1
  0
VERTEX
  8
Top
  10
39.6925
  20
24.7676
  42
1
  0
VERTEX
  8
Top
  10
40.01
  20
24.7676
  42
1
  0
SEQEND
  0
POLYLINE
  8
Top
  6
CONTINUOUS
  66
1
  70
0
  40
0.3175
  41
0.3175
  0
VERTEX
  8
Top
  10
40.0092
  20
21.1151
  42
1
  0
VERTEX
  8
Top
  10
39.6917
  20
21.1151
  42
1
  0
VERTEX
  8
Top
  10
40.0092
  20
21.1151
  42
1
  0
SEQEND
  0
POLYLINE
  8
Top
  6
CONTINUOUS
  66
1
  70
0
  40
0.635
  41
0.635
  0
VERTEX
  8
Top
  10
39.8505
  20
21.1151
  42
0
  0
VERTEX
  8
Top
  10
36.833
  20
21.1159
  42
0
  0
SEQEND
  0
POLYLINE
  8
Top
  6
CONTINUOUS
  66
1
  70
0
  40
0.3175
  41
0.3175
  0
VERTEX
  8
Top
  10
40.0092
  20
21.1151
  42
1
  0
VERTEX
  8
Top
  10
39.6917
  20
21.1151
  42
1
  0
VERTEX
  8
Top
  10
40.0092
  20
21.1151
  42
1
  0
SEQEND
  0
POLYLINE
  8
Top
  6
CONTINUOUS
  66
1
  70
0
  40
0.3175
  41
0.3175
  0
VERTEX
  8
Top
  10
36.9917
  20
21.1159
  42
1
  0
VERTEX
  8
Top
  10
36.6742
  20
21.1159
  42
1
  0
VERTEX
  8
Top
  10
36.9917
  20
21.1159
  42
1
  0
SEQEND
  0
POLYLINE
  8
Top
  6
CONTINUOUS
  66
1
  70
0
  40
0.635
  41
0.635
  0
VERTEX
  8
Top
  10
36.833
  20
21.1159
  42
0
  0
VERTEX
  8
Top
  10
36.8299
  20
22.9121
  42
0
  0
SEQEND
  0
POLYLINE
  8
Top
  6
CONTINUOUS
  66
1
  70
0
  40
0.3175
  41
0.3175
  0
VERTEX
  8
Top
  10
36.9917
  20
21.1159
  42
1
  0
VERTEX
  8
Top
  10
36.6742
  20
21.1159
  42
1
  0
VERTEX
  8
Top
  10
36.9917
  20
21.1159
  42
1
  0
SEQEND
  0
POLYLINE
  8
Top
  6
CONTINUOUS
  66
1
  70
0
  40
0.3175
  41
0.3175
  0
VERTEX
  8
Top
  10
36.9887
  20
22.9121
  42
1
  0
VERTEX
  8
Top
  10
36.6712
  20
22.9121
  42
1
  0
VERTEX
  8
Top
  10
36.9887
  20
22.9121
  42
1
  0
SEQEND
  0
POLYLINE
  8
Top
  6
CONTINUOUS
  66
1
  70
0
  40
0.635
  41
0.635
  0
VERTEX
  8
Top
  10
36.8299
  20
22.9121
  42
0
  0
VERTEX
  8
Top
  10
36.8003
  20
23.0044
  42
0
  0
SEQEND
  0
POLYLINE
  8
Top
  6
CONTINUOUS
  66
1
  70
0
  40
0.3175
  41
0.3175
  0
VERTEX
  8
Top
  10
36.9887
  20
22.9121
  42
1
  0
VERTEX
  8
Top
  10
36.6712
  20
22.9121
  42
1
  0
VERTEX
  8
Top
  10
36.9887
  20
22.9121
  42
1
  0
SEQEND
  0
POLYLINE
  8
Top
  6
CONTINUOUS
  66
1
  70
0
  40
0.3175
  41
0.3175
  0
VERTEX
  8
Top
  10
36.9591
  20
23.0044
  42
1
  0
VERTEX
  8
Top
  10
36.6415
  20
23.0044
  42
1
  0
VERTEX
  8
Top
  10
36.9591
  20
23.0044
  42
1
  0
SEQEND
  0
POLYLINE
  8
Top
  6
CONTINUOUS
  66
1
  70
0
  40
0.635
  41
0.635
  0
VERTEX
  8
Top
  10
36.8003
  20
23.0044
  42
0
  0
VERTEX
  8
Top
  10
36.3576
  20
23.8898
  42
0
  0
SEQEND
  0
POLYLINE
  8
Top
  6
CONTINUOUS
  66
1
  70
0
  40
0.3175
  41
0.3175
  0
VERTEX
  8
Top
  10
36.9591
  20
23.0044
  42
1
  0
VERTEX
  8
Top
  10
36.6415
  20
23.0044
  42
1
  0
VERTEX
  8
Top
  10
36.9591
  20
23.0044
  42
1
  0
SEQEND
  0
POLYLINE
  8
Top
  6
CONTINUOUS
  66
1
  70
0
  40
0.3175
  41
0.3175
  0
VERTEX
  8
Top
  10
36.5164
  20
23.8898
  42
1
  0
VERTEX
  8
Top
  10
36.1989
  20
23.8898
  42
1
  0
VERTEX
  8
Top
  10
36.5164
  20
23.8898
  42
1
  0
SEQEND
  0
POLYLINE
  8
Top
  6
CONTINUOUS
  66
1
  70
0
  40
0.635
  41
0.635
  0
VERTEX
  8
Top
  10
36.3576
  20
23.8898
  42
0
  0
VERTEX
  8
Top
  10
36.3575
  20
24.7687
  42
0
  0
SEQEND
  0
POLYLINE
  8
Top
  6
CONTINUOUS
  66
1
  70
0
  40
0.3175
  41
0.3175
  0
VERTEX
  8
Top
  10
36.5164
  20
23.8898
  42
1
  0
VERTEX
  8
Top
  10
36.1989
  20
23.8898
  42
1
  0
VERTEX
  8
Top
  10
36.5164
  20
23.8898
  42
1
  0
SEQEND
  0
POLYLINE
  8
Top
  6
CONTINUOUS
  66
1
  70
0
  40
0.3175
  41
0.3175
  0
VERTEX
  8
Top
  10
36.5163
  20
24.7687
  42
1
  0
VERTEX
  8
Top
  10
36.1988
  20
24.7687
  42
1
  0
VERTEX
  8
Top
  10
36.5163
  20
24.7687
  42
1
  0
SEQEND
  0
POLYLINE
  8
Top
  6
CONTINUOUS
  66
1
  70
0
  40
0.635
  41
0.635
  0
VERTEX
  8
Top
  10
32.8006
  20
24.136
  42
0
  0
VERTEX
  8
Top
  10
29.4351
  20
24.136
  42
0
  0
SEQEND
  0
POLYLINE
  8
Top
  6
CONTINUOUS
  66
1
  70
0
  40
0.635
  41
0.635
  0
VERTEX
  8
Top
  10
32.8006
  20
23.5043
  42
0
  0
VERTEX
  8
Top
  10
29.6286
  20
23.5043
  42
0
  0
SEQEND
  0
POLYLINE
  8
Top
  6
CONTINUOUS
  66
1
  70
0
  40
0.635
  41
0.635
  0
VERTEX
  8
Top
  10
32.8006
  20
22.8726
  42
0
  0
VERTEX
  8
Top
  10
29.9114
  20
22.8726
  42
0
  0
SEQEND
  0
POLYLINE
  8
Top
  6
CONTINUOUS
  66
1
  70
0
  40
0.635
  41
0.635
  0
VERTEX
  8
Top
  10
32.8006
  20
22.241
  42
0
  0
VERTEX
  8
Top
  10
29.9114
  20
22.241
  42
0
  0
SEQEND
  0
POLYLINE
  8
Top
  6
CONTINUOUS
  66
1
  70
0
  40
0.635
  41
0.635
  0
VERTEX
  8
Top
  10
32.8006
  20
21.6093
  42
0
  0
VERTEX
  8
Top
  10
29.9114
  20
21.6093
  42
0
  0
SEQEND
  0
POLYLINE
  8
Top
  6
CONTINUOUS
  66
1
  70
0
  40
0.635
  41
0.635
  0
VERTEX
  8
Top
  10
29.373
  20
24.7676
  42
0
  0
VERTEX
  8
Top
  10
32.8655
  20
24.7676
  42
0
  0
SEQEND
  0
POLYLINE
  8
Top
  6
CONTINUOUS
  66
1
  70
0
  40
0.3175
  41
0.3175
  0
VERTEX
  8
Top
  10
29.5318
  20
24.7676
  42
1
  0
VERTEX
  8
Top
  10
29.2143
  20
24.7676
  42
1
  0
VERTEX
  8
Top
  10
29.5318
  20
24.7676
  42
1
  0
SEQEND
  0
POLYLINE
  8
Top
  6
CONTINUOUS
  66
1
  70
0
  40
0.3175
  41
0.3175
  0
VERTEX
  8
Top
  10
33.0243
  20
24.7676
  42
1
  0
VERTEX
  8
Top
  10
32.7068
  20
24.7676
  42
1
  0
VERTEX
  8
Top
  10
33.0243
  20
24.7676
  42
1
  0
SEQEND
  0
POLYLINE
  8
Top
  6
CONTINUOUS
  66
1
  70
0
  40
0.635
  41
0.635
  0
VERTEX
  8
Top
  10
32.8655
  20
24.7676
  42
0
  0
VERTEX
  8
Top
  10
32.8647
  20
21.1151
  42
0
  0
SEQEND
  0
POLYLINE
  8
Top
  6
CONTINUOUS
  66
1
  70
0
  40
0.3175
  41
0.3175
  0
VERTEX
  8
Top
  10
33.0243
  20
24.7676
  42
1
  0
VERTEX
  8
Top
  10
32.7068
  20
24.7676
  42
1
  0
VERTEX
  8
Top
  10
33.0243
  20
24.7676
  42
1
  0
SEQEND
  0
POLYLINE
  8
Top
  6
CONTINUOUS
  66
1
  70
0
  40
0.3175
  41
0.3175
  0
VERTEX
  8
Top
  10
33.0235
  20
21.1151
  42
1
  0
VERTEX
  8
Top
  10
32.706
  20
21.1151
  42
1
  0
VERTEX
  8
Top
  10
33.0235
  20
21.1151
  42
1
  0
SEQEND
  0
POLYLINE
  8
Top
  6
CONTINUOUS
  66
1
  70
0
  40
0.635
  41
0.635
  0
VERTEX
  8
Top
  10
32.8647
  20
21.1151
  42
0
  0
VERTEX
  8
Top
  10
29.8472
  20
21.1159
  42
0
  0
SEQEND
  0
POLYLINE
  8
Top
  6
CONTINUOUS
  66
1
  70
0
  40
0.3175
  41
0.3175
  0
VERTEX
  8
Top
  10
33.0235
  20
21.1151
  42
1
  0
VERTEX
  8
Top
  10
32.706
  20
21.1151
  42
1
  0
VERTEX
  8
Top
  10
33.0235
  20
21.1151
  42
1
  0
SEQEND
  0
POLYLINE
  8
Top
  6
CONTINUOUS
  66
1
  70
0
  40
0.3175
  41
0.3175
  0
VERTEX
  8
Top
  10
30.006
  20
21.1159
  42
1
  0
VERTEX
  8
Top
  10
29.6885
  20
21.1159
  42
1
  0
VERTEX
  8
Top
  10
30.006
  20
21.1159
  42
1
  0
SEQEND
  0
POLYLINE
  8
Top
  6
CONTINUOUS
  66
1
  70
0
  40
0.635
  41
0.635
  0
VERTEX
  8
Top
  10
29.8472
  20
21.1159
  42
0
  0
VERTEX
  8
Top
  10
29.8442
  20
22.9121
  42
0
  0
SEQEND
  0
POLYLINE
  8
Top
  6
CONTINUOUS
  66
1
  70
0
  40
0.3175
  41
0.3175
  0
VERTEX
  8
Top
  10
30.006
  20
21.1159
  42
1
  0
VERTEX
  8
Top
  10
29.6885
  20
21.1159
  42
1
  0
VERTEX
  8
Top
  10
30.006
  20
21.1159
  42
1
  0
SEQEND
  0
POLYLINE
  8
Top
  6
CONTINUOUS
  66
1
  70
0
  40
0.3175
  41
0.3175
  0
VERTEX
  8
Top
  10
30.003
  20
22.9121
  42
1
  0
VERTEX
  8
Top
  10
29.6855
  20
22.9121
  42
1
  0
VERTEX
  8
Top
  10
30.003
  20
22.9121
  42
1
  0
SEQEND
  0
POLYLINE
  8
Top
  6
CONTINUOUS
  66
1
  70
0
  40
0.635
  41
0.635
  0
VERTEX
  8
Top
  10
29.8442
  20
22.9121
  42
0
  0
VERTEX
  8
Top
  10
29.8146
  20
23.0044
  42
0
  0
SEQEND
  0
POLYLINE
  8
Top
  6
CONTINUOUS
  66
1
  70
0
  40
0.3175
  41
0.3175
  0
VERTEX
  8
Top
  10
30.003
  20
22.9121
  42
1
  0
VERTEX
  8
Top
  10
29.6855
  20
22.9121
  42
1
  0
VERTEX
  8
Top
  10
30.003
  20
22.9121
  42
1
  0
SEQEND
  0
POLYLINE
  8
Top
  6
CONTINUOUS
  66
1
  70
0
  40
0.3175
  41
0.3175
  0
VERTEX
  8
Top
  10
29.9733
  20
23.0044
  42
1
  0
VERTEX
  8
Top
  10
29.6558
  20
23.0044
  42
1
  0
VERTEX
  8
Top
  10
29.9733
  20
23.0044
  42
1
  0
SEQEND
  0
POLYLINE
  8
Top
  6
CONTINUOUS
  66
1
  70
0
  40
0.635
  41
0.635
  0
VERTEX
  8
Top
  10
29.8146
  20
23.0044
  42
0
  0
VERTEX
  8
Top
  10
29.3719
  20
23.8898
  42
0
  0
SEQEND
  0
POLYLINE
  8
Top
  6
CONTINUOUS
  66
1
  70
0
  40
0.3175
  41
0.3175
  0
VERTEX
  8
Top
  10
29.9733
  20
23.0044
  42
1
  0
VERTEX
  8
Top
  10
29.6558
  20
23.0044
  42
1
  0
VERTEX
  8
Top
  10
29.9733
  20
23.0044
  42
1
  0
SEQEND
  0
POLYLINE
  8
Top
  6
CONTINUOUS
  66
1
  70
0
  40
0.3175
  41
0.3175
  0
VERTEX
  8
Top
  10
29.5306
  20
23.8898
  42
1
  0
VERTEX
  8
Top
  10
29.2132
  20
23.8898
  42
1
  0
VERTEX
  8
Top
  10
29.5306
  20
23.8898
  42
1
  0
SEQEND
  0
POLYLINE
  8
Top
  6
CONTINUOUS
  66
1
  70
0
  40
0.635
  41
0.635
  0
VERTEX
  8
Top
  10
29.3719
  20
23.8898
  42
0
  0
VERTEX
  8
Top
  10
29.3718
  20
24.7687
  42
0
  0
SEQEND
  0
POLYLINE
  8
Top
  6
CONTINUOUS
  66
1
  70
0
  40
0.3175
  41
0.3175
  0
VERTEX
  8
Top
  10
29.5306
  20
23.8898
  42
1
  0
VERTEX
  8
Top
  10
29.2132
  20
23.8898
  42
1
  0
VERTEX
  8
Top
  10
29.5306
  20
23.8898
  42
1
  0
SEQEND
  0
POLYLINE
  8
Top
  6
CONTINUOUS
  66
1
  70
0
  40
0.3175
  41
0.3175
  0
VERTEX
  8
Top
  10
29.5306
  20
24.7687
  42
1
  0
VERTEX
  8
Top
  10
29.213
  20
24.7687
  42
1
  0
VERTEX
  8
Top
  10
29.5306
  20
24.7687
  42
1
  0
SEQEND
  0
POLYLINE
  8
Top
  6
CONTINUOUS
  66
1
  70
0
  40
0.635
  41
0.635
  0
VERTEX
  8
Top
  10
25.8149
  20
24.136
  42
0
  0
VERTEX
  8
Top
  10
22.4494
  20
24.136
  42
0
  0
SEQEND
  0
POLYLINE
  8
Top
  6
CONTINUOUS
  66
1
  70
0
  40
0.635
  41
0.635
  0
VERTEX
  8
Top
  10
25.8149
  20
23.5043
  42
0
  0
VERTEX
  8
Top
  10
23.0844
  20
23.5043
  42
0
  0
SEQEND
  0
POLYLINE
  8
Top
  6
CONTINUOUS
  66
1
  70
0
  40
0.635
  41
0.635
  0
VERTEX
  8
Top
  10
25.8149
  20
22.8726
  42
0
  0
VERTEX
  8
Top
  10
23.0844
  20
22.8726
  42
0
  0
SEQEND
  0
POLYLINE
  8
Top
  6
CONTINUOUS
  66
1
  70
0
  40
0.635
  41
0.635
  0
VERTEX
  8
Top
  10
25.8149
  20
22.241
  42
0
  0
VERTEX
  8
Top
  10
23.0844
  20
22.241
  42
0
  0
SEQEND
  0
POLYLINE
  8
Top
  6
CONTINUOUS
  66
1
  70
0
  40
0.635
  41
0.635
  0
VERTEX
  8
Top
  10
25.8149
  20
21.6093
  42
0
  0
VERTEX
  8
Top
  10
24.1956
  20
21.6093
  42
0
  0
SEQEND
  0
POLYLINE
  8
Top
  6
CONTINUOUS
  66
1
  70
0
  40
0.635
  41
0.635
  0
VERTEX
  8
Top
  10
22.3873
  20
24.7676
  42
0
  0
VERTEX
  8
Top
  10
25.8798
  20
24.7676
  42
0
  0
SEQEND
  0
POLYLINE
  8
Top
  6
CONTINUOUS
  66
1
  70
0
  40
0.3175
  41
0.3175
  0
VERTEX
  8
Top
  10
22.5461
  20
24.7676
  42
1
  0
VERTEX
  8
Top
  10
22.2286
  20
24.7676
  42
1
  0
VERTEX
  8
Top
  10
22.5461
  20
24.7676
  42
1
  0
SEQEND
  0
POLYLINE
  8
Top
  6
CONTINUOUS
  66
1
  70
0
  40
0.3175
  41
0.3175
  0
VERTEX
  8
Top
  10
26.0386
  20
24.7676
  42
1
  0
VERTEX
  8
Top
  10
25.721
  20
24.7676
  42
1
  0
VERTEX
  8
Top
  10
26.0386
  20
24.7676
  42
1
  0
SEQEND
  0
POLYLINE
  8
Top
  6
CONTINUOUS
  66
1
  70
0
  40
0.635
  41
0.635
  0
VERTEX
  8
Top
  10
25.8798
  20
24.7676
  42
0
  0
VERTEX
  8
Top
  10
25.879
  20
21.1151
  42
0
  0
SEQEND
  0
POLYLINE
  8
Top
  6
CONTINUOUS
  66
1
  70
0
  40
0.3175
  41
0.3175
  0
VERTEX
  8
Top
  10
26.0386
  20
24.7676
  42
1
  0
VERTEX
  8
Top
  10
25.721
  20
24.7676
  42
1
  0
VERTEX
  8
Top
  10
26.0386
  20
24.7676
  42
1
  0
SEQEND
  0
POLYLINE
  8
Top
  6
CONTINUOUS
  66
1
  70
0
  40
0.3175
  41
0.3175
  0
VERTEX
  8
Top
  10
26.0378
  20
21.1151
  42
1
  0
VERTEX
  8
Top
  10
25.7202
  20
21.1151
  42
1
  0
VERTEX
  8
Top
  10
26.0378
  20
21.1151
  42
1
  0
SEQEND
  0
POLYLINE
  8
Top
  6
CONTINUOUS
  66
1
  70
0
  40
0.635
  41
0.635
  0
VERTEX
  8
Top
  10
25.879
  20
21.1151
  42
0
  0
VERTEX
  8
Top
  10
24.1315
  20
21.1159
  42
0
  0
SEQEND
  0
POLYLINE
  8
Top
  6
CONTINUOUS
  66
1
  70
0
  40
0.3175
  41
0.3175
  0
VERTEX
  8
Top
  10
26.0378
  20
21.1151
  42
1
  0
VERTEX
  8
Top
  10
25.7202
  20
21.1151
  42
1
  0
VERTEX
  8
Top
  10
26.0378
  20
21.1151
  42
1
  0
SEQEND
  0
POLYLINE
  8
Top
  6
CONTINUOUS
  66
1
  70
0
  40
0.3175
  41
0.3175
  0
VERTEX
  8
Top
  10
24.2903
  20
21.1159
  42
1
  0
VERTEX
  8
Top
  10
23.9728
  20
21.1159
  42
1
  0
VERTEX
  8
Top
  10
24.2903
  20
21.1159
  42
1
  0
SEQEND
  0
POLYLINE
  8
Top
  6
CONTINUOUS
  66
1
  70
0
  40
0.635
  41
0.635
  0
VERTEX
  8
Top
  10
24.1315
  20
21.1159
  42
0
  0
VERTEX
  8
Top
  10
24.1286
  20
21.8007
  42
0
  0
SEQEND
  0
POLYLINE
  8
Top
  6
CONTINUOUS
  66
1
  70
0
  40
0.3175
  41
0.3175
  0
VERTEX
  8
Top
  10
24.2903
  20
21.1159
  42
1
  0
VERTEX
  8
Top
  10
23.9728
  20
21.1159
  42
1
  0
VERTEX
  8
Top
  10
24.2903
  20
21.1159
  42
1
  0
SEQEND
  0
POLYLINE
  8
Top
  6
CONTINUOUS
  66
1
  70
0
  40
0.3175
  41
0.3175
  0
VERTEX
  8
Top
  10
24.2873
  20
21.8007
  42
1
  0
VERTEX
  8
Top
  10
23.9698
  20
21.8007
  42
1
  0
VERTEX
  8
Top
  10
24.2873
  20
21.8007
  42
1
  0
SEQEND
  0
POLYLINE
  8
Top
  6
CONTINUOUS
  66
1
  70
0
  40
0.635
  41
0.635
  0
VERTEX
  8
Top
  10
24.1286
  20
21.8007
  42
0
  0
VERTEX
  8
Top
  10
24.0979
  20
21.8952
  42
0
  0
SEQEND
  0
POLYLINE
  8
Top
  6
CONTINUOUS
  66
1
  70
0
  40
0.3175
  41
0.3175
  0
VERTEX
  8
Top
  10
24.2873
  20
21.8007
  42
1
  0
VERTEX
  8
Top
  10
23.9698
  20
21.8007
  42
1
  0
VERTEX
  8
Top
  10
24.2873
  20
21.8007
  42
1
  0
SEQEND
  0
POLYLINE
  8
Top
  6
CONTINUOUS
  66
1
  70
0
  40
0.3175
  41
0.3175
  0
VERTEX
  8
Top
  10
24.2567
  20
21.8952
  42
1
  0
VERTEX
  8
Top
  10
23.9392
  20
21.8952
  42
1
  0
VERTEX
  8
Top
  10
24.2567
  20
21.8952
  42
1
  0
SEQEND
  0
POLYLINE
  8
Top
  6
CONTINUOUS
  66
1
  70
0
  40
0.635
  41
0.635
  0
VERTEX
  8
Top
  10
24.0979
  20
21.8952
  42
0
  0
VERTEX
  8
Top
  10
24.0395
  20
21.9755
  42
0
  0
SEQEND
  0
POLYLINE
  8
Top
  6
CONTINUOUS
  66
1
  70
0
  40
0.3175
  41
0.3175
  0
VERTEX
  8
Top
  10
24.2567
  20
21.8952
  42
1
  0
VERTEX
  8
Top
  10
23.9392
  20
21.8952
  42
1
  0
VERTEX
  8
Top
  10
24.2567
  20
21.8952
  42
1
  0
SEQEND
  0
POLYLINE
  8
Top
  6
CONTINUOUS
  66
1
  70
0
  40
0.3175
  41
0.3175
  0
VERTEX
  8
Top
  10
24.1982
  20
21.9755
  42
1
  0
VERTEX
  8
Top
  10
23.8808
  20
21.9755
  42
1
  0
VERTEX
  8
Top
  10
24.1982
  20
21.9755
  42
1
  0
SEQEND
  0
POLYLINE
  8
Top
  6
CONTINUOUS
  66
1
  70
0
  40
0.635
  41
0.635
  0
VERTEX
  8
Top
  10
24.0395
  20
21.9755
  42
0
  0
VERTEX
  8
Top
  10
23.9591
  20
22.0339
  42
0
  0
SEQEND
  0
POLYLINE
  8
Top
  6
CONTINUOUS
  66
1
  70
0
  40
0.3175
  41
0.3175
  0
VERTEX
  8
Top
  10
24.1982
  20
21.9755
  42
1
  0
VERTEX
  8
Top
  10
23.8808
  20
21.9755
  42
1
  0
VERTEX
  8
Top
  10
24.1982
  20
21.9755
  42
1
  0
SEQEND
  0
POLYLINE
  8
Top
  6
CONTINUOUS
  66
1
  70
0
  40
0.3175
  41
0.3175
  0
VERTEX
  8
Top
  10
24.1179
  20
22.0339
  42
1
  0
VERTEX
  8
Top
  10
23.8004
  20
22.0339
  42
1
  0
VERTEX
  8
Top
  10
24.1179
  20
22.0339
  42
1
  0
SEQEND
  0
POLYLINE
  8
Top
  6
CONTINUOUS
  66
1
  70
0
  40
0.635
  41
0.635
  0
VERTEX
  8
Top
  10
23.9591
  20
22.0339
  42
0
  0
VERTEX
  8
Top
  10
23.8647
  20
22.0646
  42
0
  0
SEQEND
  0
POLYLINE
  8
Top
  6
CONTINUOUS
  66
1
  70
0
  40
0.3175
  41
0.3175
  0
VERTEX
  8
Top
  10
24.1179
  20
22.0339
  42
1
  0
VERTEX
  8
Top
  10
23.8004
  20
22.0339
  42
1
  0
VERTEX
  8
Top
  10
24.1179
  20
22.0339
  42
1
  0
SEQEND
  0
POLYLINE
  8
Top
  6
CONTINUOUS
  66
1
  70
0
  40
0.3175
  41
0.3175
  0
VERTEX
  8
Top
  10
24.0234
  20
22.0646
  42
1
  0
VERTEX
  8
Top
  10
23.7059
  20
22.0646
  42
1
  0
VERTEX
  8
Top
  10
24.0234
  20
22.0646
  42
1
  0
SEQEND
  0
POLYLINE
  8
Top
  6
CONTINUOUS
  66
1
  70
0
  40
0.635
  41
0.635
  0
VERTEX
  8
Top
  10
23.8647
  20
22.0646
  42
0
  0
VERTEX
  8
Top
  10
23.02
  20
22.0685
  42
0
  0
SEQEND
  0
POLYLINE
  8
Top
  6
CONTINUOUS
  66
1
  70
0
  40
0.3175
  41
0.3175
  0
VERTEX
  8
Top
  10
24.0234
  20
22.0646
  42
1
  0
VERTEX
  8
Top
  10
23.7059
  20
22.0646
  42
1
  0
VERTEX
  8
Top
  10
24.0234
  20
22.0646
  42
1
  0
SEQEND
  0
POLYLINE
  8
Top
  6
CONTINUOUS
  66
1
  70
0
  40
0.3175
  41
0.3175
  0
VERTEX
  8
Top
  10
23.1788
  20
22.0685
  42
1
  0
VERTEX
  8
Top
  10
22.8613
  20
22.0685
  42
1
  0
VERTEX
  8
Top
  10
23.1788
  20
22.0685
  42
1
  0
SEQEND
  0
POLYLINE
  8
Top
  6
CONTINUOUS
  66
1
  70
0
  40
0.635
  41
0.635
  0
VERTEX
  8
Top
  10
23.02
  20
22.0685
  42
0
  0
VERTEX
  8
Top
  10
23.0172
  20
23.8647
  42
0
  0
SEQEND
  0
POLYLINE
  8
Top
  6
CONTINUOUS
  66
1
  70
0
  40
0.3175
  41
0.3175
  0
VERTEX
  8
Top
  10
23.1788
  20
22.0685
  42
1
  0
VERTEX
  8
Top
  10
22.8613
  20
22.0685
  42
1
  0
VERTEX
  8
Top
  10
23.1788
  20
22.0685
  42
1
  0
SEQEND
  0
POLYLINE
  8
Top
  6
CONTINUOUS
  66
1
  70
0
  40
0.3175
  41
0.3175
  0
VERTEX
  8
Top
  10
23.176
  20
23.8647
  42
1
  0
VERTEX
  8
Top
  10
22.8585
  20
23.8647
  42
1
  0
VERTEX
  8
Top
  10
23.176
  20
23.8647
  42
1
  0
SEQEND
  0
POLYLINE
  8
Top
  6
CONTINUOUS
  66
1
  70
0
  40
0.635
  41
0.635
  0
VERTEX
  8
Top
  10
23.0172
  20
23.8647
  42
0
  0
VERTEX
  8
Top
  10
22.9865
  20
23.9591
  42
0
  0
SEQEND
  0
POLYLINE
  8
Top
  6
CONTINUOUS
  66
1
  70
0
  40
0.3175
  41
0.3175
  0
VERTEX
  8
Top
  10
23.176
  20
23.8647
  42
1
  0
VERTEX
  8
Top
  10
22.8585
  20
23.8647
  42
1
  0
VERTEX
  8
Top
  10
23.176
  20
23.8647
  42
1
  0
SEQEND
  0
POLYLINE
  8
Top
  6
CONTINUOUS
  66
1
  70
0
  40
0.3175
  41
0.3175
  0
VERTEX
  8
Top
  10
23.1453
  20
23.9591
  42
1
  0
VERTEX
  8
Top
  10
22.8278
  20
23.9591
  42
1
  0
VERTEX
  8
Top
  10
23.1453
  20
23.9591
  42
1
  0
SEQEND
  0
POLYLINE
  8
Top
  6
CONTINUOUS
  66
1
  70
0
  40
0.635
  41
0.635
  0
VERTEX
  8
Top
  10
22.9865
  20
23.9591
  42
0
  0
VERTEX
  8
Top
  10
22.9281
  20
24.0395
  42
0
  0
SEQEND
  0
POLYLINE
  8
Top
  6
CONTINUOUS
  66
1
  70
0
  40
0.3175
  41
0.3175
  0
VERTEX
  8
Top
  10
23.1453
  20
23.9591
  42
1
  0
VERTEX
  8
Top
  10
22.8278
  20
23.9591
  42
1
  0
VERTEX
  8
Top
  10
23.1453
  20
23.9591
  42
1
  0
SEQEND
  0
POLYLINE
  8
Top
  6
CONTINUOUS
  66
1
  70
0
  40
0.3175
  41
0.3175
  0
VERTEX
  8
Top
  10
23.0869
  20
24.0395
  42
1
  0
VERTEX
  8
Top
  10
22.7694
  20
24.0395
  42
1
  0
VERTEX
  8
Top
  10
23.0869
  20
24.0395
  42
1
  0
SEQEND
  0
POLYLINE
  8
Top
  6
CONTINUOUS
  66
1
  70
0
  40
0.635
  41
0.635
  0
VERTEX
  8
Top
  10
22.9281
  20
24.0395
  42
0
  0
VERTEX
  8
Top
  10
22.8478
  20
24.0979
  42
0
  0
SEQEND
  0
POLYLINE
  8
Top
  6
CONTINUOUS
  66
1
  70
0
  40
0.3175
  41
0.3175
  0
VERTEX
  8
Top
  10
23.0869
  20
24.0395
  42
1
  0
VERTEX
  8
Top
  10
22.7694
  20
24.0395
  42
1
  0
VERTEX
  8
Top
  10
23.0869
  20
24.0395
  42
1
  0
SEQEND
  0
POLYLINE
  8
Top
  6
CONTINUOUS
  66
1
  70
0
  40
0.3175
  41
0.3175
  0
VERTEX
  8
Top
  10
23.0065
  20
24.0979
  42
1
  0
VERTEX
  8
Top
  10
22.689
  20
24.0979
  42
1
  0
VERTEX
  8
Top
  10
23.0065
  20
24.0979
  42
1
  0
SEQEND
  0
POLYLINE
  8
Top
  6
CONTINUOUS
  66
1
  70
0
  40
0.635
  41
0.635
  0
VERTEX
  8
Top
  10
22.8478
  20
24.0979
  42
0
  0
VERTEX
  8
Top
  10
22.7533
  20
24.1286
  42
0
  0
SEQEND
  0
POLYLINE
  8
Top
  6
CONTINUOUS
  66
1
  70
0
  40
0.3175
  41
0.3175
  0
VERTEX
  8
Top
  10
23.0065
  20
24.0979
  42
1
  0
VERTEX
  8
Top
  10
22.689
  20
24.0979
  42
1
  0
VERTEX
  8
Top
  10
23.0065
  20
24.0979
  42
1
  0
SEQEND
  0
POLYLINE
  8
Top
  6
CONTINUOUS
  66
1
  70
0
  40
0.3175
  41
0.3175
  0
VERTEX
  8
Top
  10
22.912
  20
24.1286
  42
1
  0
VERTEX
  8
Top
  10
22.5945
  20
24.1286
  42
1
  0
VERTEX
  8
Top
  10
22.912
  20
24.1286
  42
1
  0
SEQEND
  0
POLYLINE
  8
Top
  6
CONTINUOUS
  66
1
  70
0
  40
0.635
  41
0.635
  0
VERTEX
  8
Top
  10
22.7533
  20
24.1286
  42
0
  0
VERTEX
  8
Top
  10
22.3849
  20
24.1325
  42
0
  0
SEQEND
  0
POLYLINE
  8
Top
  6
CONTINUOUS
  66
1
  70
0
  40
0.3175
  41
0.3175
  0
VERTEX
  8
Top
  10
22.912
  20
24.1286
  42
1
  0
VERTEX
  8
Top
  10
22.5945
  20
24.1286
  42
1
  0
VERTEX
  8
Top
  10
22.912
  20
24.1286
  42
1
  0
SEQEND
  0
POLYLINE
  8
Top
  6
CONTINUOUS
  66
1
  70
0
  40
0.3175
  41
0.3175
  0
VERTEX
  8
Top
  10
22.5437
  20
24.1325
  42
1
  0
VERTEX
  8
Top
  10
22.2262
  20
24.1325
  42
1
  0
VERTEX
  8
Top
  10
22.5437
  20
24.1325
  42
1
  0
SEQEND
  0
POLYLINE
  8
Top
  6
CONTINUOUS
  66
1
  70
0
  40
0.635
  41
0.635
  0
VERTEX
  8
Top
  10
22.3849
  20
24.1325
  42
0
  0
VERTEX
  8
Top
  10
22.3861
  20
24.7687
  42
0
  0
SEQEND
  0
POLYLINE
  8
Top
  6
CONTINUOUS
  66
1
  70
0
  40
0.3175
  41
0.3175
  0
VERTEX
  8
Top
  10
22.5437
  20
24.1325
  42
1
  0
VERTEX
  8
Top
  10
22.2262
  20
24.1325
  42
1
  0
VERTEX
  8
Top
  10
22.5437
  20
24.1325
  42
1
  0
SEQEND
  0
POLYLINE
  8
Top
  6
CONTINUOUS
  66
1
  70
0
  40
0.3175
  41
0.3175
  0
VERTEX
  8
Top
  10
22.5448
  20
24.7687
  42
1
  0
VERTEX
  8
Top
  10
22.2273
  20
24.7687
  42
1
  0
VERTEX
  8
Top
  10
22.5448
  20
24.7687
  42
1
  0
SEQEND
  0
CIRCLE
  8
Drill_Top
  10
42.0732
  20
25.0851
  40
0.25
  0
CIRCLE
  8
Drill_Top
  10
45.5652
  20
25.0851
  40
0.25
  0
CIRCLE
  8
Drill_Top
  10
19.5285
  20
33.3376
  40
0.25
  0
CIRCLE
  8
Drill_Top
  10
23.0285
  20
33.3376
  40
0.25
  0
CIRCLE
  8
Drill_Top
  10
26.5135
  20
33.3376
  40
0.25
  0
CIRCLE
  8
Drill_Top
  10
30.0135
  20
33.3376
  40
0.25
  0
CIRCLE
  8
Drill_Top
  10
33.4985
  20
33.3376
  40
0.25
  0
CIRCLE
  8
Drill_Top
  10
36.9985
  20
33.3376
  40
0.25
  0
CIRCLE
  8
Drill_Top
  10
46.2011
  20
33.341
  40
0.25
  0
CIRCLE
  8
Drill_Top
  10
42.7011
  20
33.341
  40
0.25
  0
CIRCLE
  8
Drill_Top
  10
1.9065
  20
26.3553
  40
0.25
  0
CIRCLE
  8
Drill_Top
  10
4.4465
  20
26.3553
  40
0.25
  0
CIRCLE
  8
Drill_Top
  10
6.9865
  20
26.3553
  40
0.25
  0
CIRCLE
  8
Drill_Top
  10
9.5265
  20
26.3553
  40
0.25
  0
CIRCLE
  8
Drill_Top
  10
12.0665
  20
26.3553
  40
0.25
  0
CIRCLE
  8
Drill_Top
  10
14.6065
  20
26.3553
  40
0.25
  0
CIRCLE
  8
Drill_Top
  10
43.3413
  20
1.2701
  40
0.25
  0
CIRCLE
  8
Drill_Top
  10
40.8013
  20
1.2701
  40
0.25
  0
CIRCLE
  8
Drill_Top
  10
38.2613
  20
1.2701
  40
0.25
  0
CIRCLE
  8
Drill_Top
  10
27.1488
  20
1.2701
  40
0.25
  0
CIRCLE
  8
Drill_Top
  10
24.6088
  20
1.2701
  40
0.25
  0
CIRCLE
  8
Drill_Top
  10
22.0688
  20
1.2701
  40
0.25
  0
CIRCLE
  8
Drill_Top
  10
10.9563
  20
1.2701
  40
0.25
  0
CIRCLE
  8
Drill_Top
  10
8.4163
  20
1.2701
  40
0.25
  0
CIRCLE
  8
Drill_Top
  10
5.8763
  20
1.2701
  40
0.25
  0
CIRCLE
  8
Drill_Top
  10
42.0732
  20
10.6374
  40
0.243
  0
CIRCLE
  8
Drill_Top
  10
31.5946
  20
13.6539
  40
0.243
  0
CIRCLE
  8
Drill_Top
  10
25.5614
  20
14.289
  40
0.243
  0
CIRCLE
  8
Drill_Top
  10
28.4192
  20
12.8601
  40
0.243
  0
CIRCLE
  8
Drill_Top
  10
43.5015
  20
17.9392
  40
1.5
  0
CIRCLE
  8
Drill_Top
  10
5.7156
  20
17.9406
  40
1.5
  0
CIRCLE
  8
Drill_Top
  10
25.4022
  20
21.9077
  40
0.243
  0
CIRCLE
  8
Drill_Top
  10
39.3722
  20
21.9077
  40
0.243
  0
CIRCLE
  8
Drill_Top
  10
32.3872
  20
21.9077
  40
0.243
  0
CIRCLE
  8
Drill_Top
  10
11.1137
  20
10.1611
  40
0.243
  0
CIRCLE
  8
Drill_Top
  10
31.5946
  20
17.7819
  40
0.243
  0
CIRCLE
  8
Drill_Top
  10
43.8196
  20
4.6042
  40
0.243
  0
CIRCLE
  8
Drill_Top
  10
40.803
  20
4.6042
  40
0.243
  0
CIRCLE
  8
Drill_Top
  10
37.7865
  20
4.6042
  40
0.243
  0
CIRCLE
  8
Drill_Top
  10
29.3718
  20
4.1279
  40
0.243
  0
CIRCLE
  8
Drill_Top
  10
19.2108
  20
3.3341
  40
0.243
  0
CIRCLE
  8
Drill_Top
  10
16.5117
  20
1.5877
  40
0.243
  0
CIRCLE
  8
Drill_Top
  10
10.9549
  20
4.6042
  40
0.243
  0
CIRCLE
  8
Drill_Top
  10
7.9383
  20
4.6042
  40
0.243
  0
POLYLINE
  8
Board_Outline
  6
CONTINUOUS
  66
1
  70
0
  40
0.14
  41
0.14
  0
VERTEX
  8
Board_Outline
  10
49.2177
  20
39.0566
  42
0
  0
VERTEX
  8
Board_Outline
  10
49.2177
  20
0.0
  42
0
  0
VERTEX
  8
Board_Outline
  10
0.0
  20
0.0
  42
0
  0
VERTEX
  8
Board_Outline
  10
0.0
  20
39.0566
  42
0
  0
VERTEX
  8
Board_Outline
  10
49.2177
  20
39.0566
  42
0
  0
SEQEND
  0
ENDSEC
  0
EOF
